<?xml version="1.0" encoding="utf-8"?>
<svg id="master-artboard" viewBox="0 0 342.1768798828125 355.31097412109375" version="1.1" xmlns="http://www.w3.org/2000/svg" x="0px" y="0px" style="enable-background:new 0 0 1400 980;" width="342.1768798828125px" height="355.31097412109375px"><rect id="ee-background" x="0" y="0" width="342.1768798828125" height="355.31097412109375" style="fill: white; fill-opacity: 0; pointer-events: none;"/>

<g transform="matrix(1, 0, 0, 1, -553.9234733581543, -73.20574188232422)">
		
			<linearGradient id="SVGID_1_" gradientUnits="userSpaceOnUse" x1="644.3635" y1="25.8044" x2="644.3635" y2="64.9343" gradientTransform="matrix(0.8548 0.5189 -0.5189 0.8548 144.9687 -64.4096)">
			<stop offset="0" style="stop-color:#6FCA24"/>
			<stop offset="1" style="stop-color:#235C17"/>
		</linearGradient>
		<path class="st0" d="M661.4,325.1c0,0-4.5-26.8,21.9-32.5C683.3,292.6,687.6,318.4,661.4,325.1z" style="fill: url('#SVGID_1_');"/>
		
			<linearGradient id="SVGID_2_" gradientUnits="userSpaceOnUse" x1="644.1085" y1="33.2256" x2="644.1085" y2="64.9343" gradientTransform="matrix(0.8548 0.5189 -0.5189 0.8548 144.9687 -64.4096)">
			<stop offset="0" style="stop-color:#B3FF1D"/>
			<stop offset="1" style="stop-color:#235C17"/>
		</linearGradient>
		<path d="M 661.2999877929688 323.8999938964844 L 679.4000244140625 298.79998779296875 L 662.5 324.79998779296875 L 661.4000244140625 325.1000061035156 Z" class="st1" style="fill: url('#SVGID_2_');"/>
	</g><linearGradient id="SVGID_3_" gradientUnits="userSpaceOnUse" x1="712.578" y1="294.9668" x2="712.578" y2="334.0966" gradientTransform="matrix(0.9233 -0.384 0.384 0.9233 64.1171 190.1567)">
			<stop offset="0" style="stop-color:#6FCA24"/>
			<stop offset="1" style="stop-color:#235C17"/>
		</linearGradient><path class="st2" d="M849.6,225.3c0,0-24.3-12.2-13.3-36.8C836.3,188.5,859.7,200.3,849.6,225.3z" style="fill: url('#SVGID_3_');" transform="matrix(1, 0, 0, 1, -553.9234733581543, -73.20574188232422)"/><linearGradient id="SVGID_4_" gradientUnits="userSpaceOnUse" x1="712.3231" y1="302.3879" x2="712.3231" y2="334.0966" gradientTransform="matrix(0.9233 -0.384 0.384 0.9233 64.1171 190.1567)">
			<stop offset="0" style="stop-color:#B3FF1D"/>
			<stop offset="1" style="stop-color:#235C17"/>
		</linearGradient><path d="M 848.7000122070312 224.8000030517578 L 839.0999755859375 195.39999389648438 L 850 224.3000030517578 L 849.5999755859375 225.3000030517578 Z" class="st3" style="fill: url('#SVGID_4_');" transform="matrix(1, 0, 0, 1, -553.9234733581543, -73.20574188232422)"/><g transform="matrix(1, 0, 0, 1, -553.9234733581543, -73.20574188232422)">
			
				<linearGradient id="SVGID_5_" gradientUnits="userSpaceOnUse" x1="470.9726" y1="-297.8672" x2="470.9726" y2="-239.8672" gradientTransform="matrix(0.5756 0.8177 -0.8177 0.5756 129.2365 -64.6844)">
				<stop offset="0" style="stop-color:#6FCA24"/>
				<stop offset="1" style="stop-color:#235C17"/>
			</linearGradient>
			<path class="st4" d="M595.8,181.5c0,0,9.8-39,49-31.2C644.8,150.3,635.2,187.9,595.8,181.5z" style="fill: url('#SVGID_5_');"/>
			
				<linearGradient id="SVGID_6_" gradientUnits="userSpaceOnUse" x1="470.5946" y1="-286.8672" x2="470.5946" y2="-239.8672" gradientTransform="matrix(0.5756 0.8177 -0.8177 0.5756 129.2365 -64.6844)">
				<stop offset="0" style="stop-color:#B3FF1D"/>
				<stop offset="1" style="stop-color:#235C17"/>
			</linearGradient>
			<path d="M 596.2999877929688 179.89999389648438 L 635.7000122070312 156.5 L 597.4000244140625 181.6999969482422 L 595.7999877929688 181.5 Z" class="st5" style="fill: url('#SVGID_6_');"/>
		</g><linearGradient id="SVGID_7_" gradientUnits="userSpaceOnUse" x1="-8.0607" y1="-207.2442" x2="-8.0607" y2="-172.7442" gradientTransform="matrix(-3.410195e-02 0.9994 -0.9994 -3.410195e-02 422.8248 184.2248)">
				<stop offset="0" style="stop-color:#6FCA24"/>
				<stop offset="1" style="stop-color:#235C17"/>
			</linearGradient><path class="st6" d="M595.8,181.4c0,0,18.7-15,34.4,2.8C630.2,184.2,612.1,198.6,595.8,181.4z" style="fill: url('#SVGID_7_');" transform="matrix(1, 0, 0, 1, -553.9234733581543, -73.20574188232422)"/><linearGradient id="SVGID_8_" gradientUnits="userSpaceOnUse" x1="-8.2855" y1="-200.7011" x2="-8.2855" y2="-172.7442" gradientTransform="matrix(-3.410195e-02 0.9994 -0.9994 -3.410195e-02 422.8248 184.2248)">
				<stop offset="0" style="stop-color:#B3FF1D"/>
				<stop offset="1" style="stop-color:#235C17"/>
			</linearGradient><path d="M 596.5999755859375 180.8000030517578 L 623.7000122070312 183.89999389648438 L 596.5 182.10000610351562 L 595.7999877929688 181.39999389648438 Z" class="st7" style="fill: url('#SVGID_8_');" transform="matrix(1, 0, 0, 1, -553.9234733581543, -73.20574188232422)"/><path class="st8" d="M730,373.5c-13,0-25.5-3.2-37.5-9.7c-36-19.3-66.8-66.8-91.6-141C582.6,168,574.5,118,574.4,117.5&#10;&#9;&#9;c-0.3-2.2,1.1-4.2,3.3-4.6c2.2-0.3,4.2,1.1,4.6,3.3c0.1,0.5,8,49.9,26.2,104.1c16.6,49.6,45.3,113.6,87.8,136.4&#10;&#9;&#9;c21.3,11.4,44.5,11.6,69,0.4c57-26,105.4-169.2,105.9-170.6c0.7-2.1,3-3.2,5.1-2.5c2.1,0.7,3.2,3,2.5,5.1&#10;&#9;&#9;c-2,6-49.9,148-110.1,175.4C755.4,370.5,742.5,373.5,730,373.5z" style="fill: rgb(167, 145, 122);" transform="matrix(1, 0, 0, 1, -553.9234733581543, -73.20574188232422)"/><path class="st9" d="M874.9,187.9" style="fill: none; stroke: rgb(167, 145, 122); stroke-width: 8; stroke-linecap: round; stroke-miterlimit: 10;" transform="matrix(1, 0, 0, 1, -553.9234733581543, -73.20574188232422)"/><path class="st10" d="M709,367.3c-3.5,0-6.9-0.3-10.3-0.9c-21.7-3.7-42-19-60.3-45.7c-14.4-21-27.6-49.1-39.3-83.5&#10;&#9;&#9;c-19.8-58.4-28.5-115.6-28.6-116.2c-0.2-1.6,0.9-3.2,2.5-3.4c1.6-0.2,3.2,0.9,3.4,2.5c0.1,0.6,8.7,57.4,28.4,115.2&#10;&#9;&#9;c17.9,52.8,48.9,117.5,94.8,125.2c49.7,8.4,107.8-50.2,172.6-174c0.8-1.5,2.6-2,4-1.3c1.5,0.8,2,2.6,1.3,4&#10;&#9;&#9;c-34.9,66.7-68.4,115.2-99.5,144.3C753.9,356,730.8,367.3,709,367.3z" style="fill: rgb(119, 102, 87);" transform="matrix(1, 0, 0, 1, -553.9234733581543, -73.20574188232422)"/><path class="st11" d="M685.3,369.5c-6.5,0-13.1-1.7-20-6.1c-19.1-12.3-20.7-30-22.5-48.7c-1.2-12.3-2.3-25.1-8.6-37.5&#10;&#9;&#9;c-7.8-15.7-19.4-29.1-29.6-40.9c-10.5-12.1-20.3-23.6-24.5-35.4c-3.8-10.8-3.1-23.5-2.2-37c0.9-15.6,1.9-31.7-4.3-45.8&#10;&#9;&#9;c-0.7-1.5,0-3.3,1.5-4c1.5-0.7,3.3,0,4,1.5c6.9,15.4,5.8,32.3,4.8,48.6c-0.8,12.8-1.5,24.9,1.9,34.6c3.8,10.8,12.9,21.3,23.4,33.5&#10;&#9;&#9;c10.4,12.1,22.3,25.8,30.4,42.2c6.7,13.4,8,27.4,9.2,39.7c1.7,17.9,3.1,33.4,19.8,44.2c14.5,9.3,27.4,4.3,43.8-2&#10;&#9;&#9;c15.6-6,33.3-12.8,57-9.5c14.6,2.1,26.3-1.2,34.6-9.7c8.8-8.9,17.5-29.3,13-57.2c-2.9-18.1,12-36.9,26.4-55.1&#10;&#9;&#9;c11.6-14.6,22.5-28.4,22.5-39.6c0-1.7,1.3-3,3-3s3,1.3,3,3c0,13.3-11.6,27.9-23.8,43.3c-13.6,17.2-27.7,34.9-25.2,50.4&#10;&#9;&#9;c3,18.8,1,46.4-14.7,62.3c-9.8,10-23.2,13.8-39.8,11.4c-22.1-3.2-39,3.4-54,9.1C704.2,365.9,694.8,369.5,685.3,369.5z" style="fill: rgb(191, 164, 144);" transform="matrix(1, 0, 0, 1, -553.9234733581543, -73.20574188232422)"/><path class="st8" d="M768.6,364.5l-3.3-7.3c19.5-8.9,40.1-32.4,61.3-70l7,3.9C811.5,330.3,789.6,354.9,768.6,364.5z" style="fill: rgb(167, 145, 122);" transform="matrix(1, 0, 0, 1, -553.9234733581543, -73.20574188232422)"/><path class="st10" d="M709,367.3c-25.4,0-48.8-15.3-69.8-45.5c-1.5-2.2-3.1-4.6-4.6-6.9l5.1-3.2c1.5,2.3,3,4.6,4.5,6.7&#10;&#9;&#9;c22.7,32.7,48.1,46.8,75.5,41.9c4.3-0.8,8.8-2,13.3-3.8l2.2,5.6c-4.8,1.9-9.7,3.2-14.4,4.1C716.7,366.9,712.9,367.3,709,367.3z" style="fill: rgb(119, 102, 87);" transform="matrix(1, 0, 0, 1, -553.9234733581543, -73.20574188232422)"/><linearGradient id="SVGID_9_" gradientUnits="userSpaceOnUse" x1="-359.8038" y1="414.7633" x2="-359.8038" y2="451.6548" gradientTransform="matrix(-0.8182 -0.575 0.575 -0.8182 52.4064 405.5585)">
			<stop offset="0" style="stop-color:#6FCA24"/>
			<stop offset="1" style="stop-color:#235C17"/>
		</linearGradient><path class="st12" d="M607.1,243.3c0,0,2.5,25.5-22.6,29.2C584.4,272.5,582.1,247.9,607.1,243.3z" style="fill: url('#SVGID_9_');" transform="matrix(1, 0, 0, 1, -553.9234733581543, -73.20574188232422)"/><linearGradient id="SVGID_10_" gradientUnits="userSpaceOnUse" x1="-360.0442" y1="421.76" x2="-360.0442" y2="451.6548" gradientTransform="matrix(-0.8182 -0.575 0.575 -0.8182 52.4064 405.5585)">
			<stop offset="0" style="stop-color:#B3FF1D"/>
			<stop offset="1" style="stop-color:#235C17"/>
		</linearGradient><path d="M 607.0999755859375 244.39999389648438 L 588.5999755859375 266.8999938964844 L 606 243.5 L 607.0999755859375 243.3000030517578 Z" class="st13" style="fill: url('#SVGID_10_');" transform="matrix(1, 0, 0, 1, -553.9234733581543, -73.20574188232422)"/><linearGradient id="SVGID_11_" gradientUnits="userSpaceOnUse" x1="214.678" y1="-349.0393" x2="214.678" y2="-309.9095" gradientTransform="matrix(-0.3091 0.951 -0.951 -0.3091 551.5221 30.1309)">
			<stop offset="0" style="stop-color:#6FCA24"/>
			<stop offset="1" style="stop-color:#235C17"/>
		</linearGradient><path class="st14" d="M780.1,329.4c0,0,25-10.5,36.6,13.8C816.8,343.2,792.6,353.3,780.1,329.4z" style="fill: url('#SVGID_11_');" transform="matrix(1, 0, 0, 1, -553.9234733581543, -73.20574188232422)"/><linearGradient id="SVGID_12_" gradientUnits="userSpaceOnUse" x1="214.4231" y1="-341.6182" x2="214.4231" y2="-309.9095" gradientTransform="matrix(-0.3091 0.951 -0.951 -0.3091 551.5221 30.1309)">
			<stop offset="0" style="stop-color:#B3FF1D"/>
			<stop offset="1" style="stop-color:#235C17"/>
		</linearGradient><path d="M 781.2000122070312 329 L 809.7999877929688 340.79998779296875 L 780.7000122070312 330.29998779296875 L 780.0999755859375 329.3999938964844 Z" class="st15" style="fill: url('#SVGID_12_');" transform="matrix(1, 0, 0, 1, -553.9234733581543, -73.20574188232422)"/><linearGradient id="SVGID_13_" gradientUnits="userSpaceOnUse" x1="511.2529" y1="-276.6267" x2="511.2529" y2="-251.6103" gradientTransform="matrix(0.323 0.9464 -0.9464 0.323 377.5616 -73.4487)">
			<stop offset="0" style="stop-color:#6FCA24"/>
			<stop offset="1" style="stop-color:#235C17"/>
		</linearGradient><path class="st16" d="M780.7,328.6c0,0,8.8-15,24.1-7C804.7,321.7,796.2,336.1,780.7,328.6z" style="fill: url('#SVGID_13_');" transform="matrix(1, 0, 0, 1, -553.9234733581543, -73.20574188232422)"/><linearGradient id="SVGID_14_" gradientUnits="userSpaceOnUse" x1="511.0899" y1="-271.8822" x2="511.0899" y2="-251.6103" gradientTransform="matrix(0.323 0.9464 -0.9464 0.323 377.5616 -73.4487)">
			<stop offset="0" style="stop-color:#B3FF1D"/>
			<stop offset="1" style="stop-color:#235C17"/>
		</linearGradient><path d="M 781.0999755859375 328 L 800.2000122070312 323.1000061035156 L 781.2999877929688 328.8999938964844 L 780.7000122070312 328.6000061035156 Z" class="st17" style="fill: url('#SVGID_14_');" transform="matrix(1, 0, 0, 1, -553.9234733581543, -73.20574188232422)"/>
<linearGradient id="SVGID_18_" gradientUnits="userSpaceOnUse" x1="1047.5352" y1="613.0492" x2="1063.6455" y2="613.0492" gradientTransform="matrix(-0.4645 0.8856 -0.8856 -0.4645 1372.139 -352.0345)">
			<stop offset="0" style="stop-color:#6FCA24"/>
			<stop offset="1" style="stop-color:#235C17"/>
		</linearGradient><linearGradient id="SVGID_19_" gradientUnits="userSpaceOnUse" x1="1062.9244" y1="612.2877" x2="1062.9244" y2="626.5129" gradientTransform="matrix(-0.4645 0.8856 -0.8856 -0.4645 1372.139 -352.0345)">
			<stop offset="0" style="stop-color:#6FCA24"/>
			<stop offset="1" style="stop-color:#235C17"/>
		</linearGradient><linearGradient id="SVGID_20_" gradientUnits="userSpaceOnUse" x1="1046.8317" y1="610.2942" x2="1046.8317" y2="626.0291" gradientTransform="matrix(-0.4645 0.8856 -0.8856 -0.4645 1372.139 -352.0345)">
			<stop offset="0" style="stop-color:#6FCA24"/>
			<stop offset="1" style="stop-color:#235C17"/>
		</linearGradient>
<linearGradient id="SVGID_21_" gradientUnits="userSpaceOnUse" x1="1029.9985" y1="176.0975" x2="1029.9985" y2="210.1155" gradientTransform="matrix(0.9974 -7.204962e-02 7.204962e-02 0.9974 -9.6308 83.7211)">
			<stop offset="0" style="stop-color:#6FCA24"/>
			<stop offset="1" style="stop-color:#649305"/>
		</linearGradient><linearGradient id="SVGID_22_" gradientUnits="userSpaceOnUse" x1="1131.2677" y1="235.5194" x2="1131.2677" y2="255.7862" gradientTransform="matrix(0.9974 -7.204962e-02 7.204962e-02 0.9974 -9.6308 83.7211)">
			<stop offset="0" style="stop-color:#6FCA24"/>
			<stop offset="1" style="stop-color:#649305"/>
		</linearGradient><linearGradient id="SVGID_23_" gradientUnits="userSpaceOnUse" x1="1083.6663" y1="199.9073" x2="1083.6663" y2="240.441" gradientTransform="matrix(0.9974 -7.204962e-02 7.204962e-02 0.9974 -9.6308 83.7211)">
			<stop offset="0" style="stop-color:#6FCA24"/>
			<stop offset="1" style="stop-color:#649305"/>
		</linearGradient><linearGradient id="SVGID_24_" gradientUnits="userSpaceOnUse" x1="1265.2793" y1="224.4203" x2="1265.2793" y2="244.6872" gradientTransform="matrix(0.8397 -0.543 0.543 0.8397 104.9107 725.7385)">
			<stop offset="0" style="stop-color:#6FCA24"/>
			<stop offset="1" style="stop-color:#649305"/>
		</linearGradient><linearGradient id="SVGID_25_" gradientUnits="userSpaceOnUse" x1="1255.1528" y1="194.3117" x2="1255.1528" y2="219.3483" gradientTransform="matrix(-0.909 -0.4167 -0.4167 0.909 2460.7986 555.5554)">
			<stop offset="0" style="stop-color:#6FCA24"/>
			<stop offset="1" style="stop-color:#649305"/>
		</linearGradient><linearGradient id="SVGID_26_" gradientUnits="userSpaceOnUse" x1="1243.1532" y1="219.3015" x2="1243.1532" y2="253.5339" gradientTransform="matrix(0.4751 0.88 -0.88 0.4751 820.439 -933.2662)">
			<stop offset="0" style="stop-color:#6FCA24"/>
			<stop offset="1" style="stop-color:#649305"/>
		</linearGradient><linearGradient id="SVGID_27_" gradientUnits="userSpaceOnUse" x1="1240.2634" y1="221.3082" x2="1240.2634" y2="237.5153" gradientTransform="matrix(-7.358210e-02 0.9973 0.9973 7.358210e-02 1034.1172 -978.9634)">
			<stop offset="0" style="stop-color:#6FCA24"/>
			<stop offset="1" style="stop-color:#649305"/>
		</linearGradient><linearGradient id="SVGID_28_" gradientUnits="userSpaceOnUse" x1="1081.7869" y1="123.1245" x2="1081.7869" y2="157.1425" gradientTransform="matrix(0.9712 0.2382 0.2382 -0.9712 -11.9173 155.2071)">
			<stop offset="0" style="stop-color:#6FCA24"/>
			<stop offset="1" style="stop-color:#649305"/>
		</linearGradient><linearGradient id="SVGID_29_" gradientUnits="userSpaceOnUse" x1="1271.8701" y1="179.0587" x2="1271.8701" y2="195.5638" gradientTransform="matrix(0.9712 0.2382 0.2382 -0.9712 -11.9173 155.2071)">
			<stop offset="0" style="stop-color:#6FCA24"/>
			<stop offset="1" style="stop-color:#649305"/>
		</linearGradient>

<linearGradient id="SVGID_30_" gradientUnits="userSpaceOnUse" x1="661.4257" y1="602.61" x2="661.4257" y2="647.1887">
		<stop offset="0" style="stop-color:#A2FF6A"/>
		<stop offset="1" style="stop-color:#689C30"/>
	</linearGradient><linearGradient id="SVGID_31_" gradientUnits="userSpaceOnUse" x1="886.2029" y1="731.1608" x2="886.2029" y2="757.1559" gradientTransform="matrix(-0.7203 0.6937 -0.6937 -0.7203 2005.9381 753.674)">
		<stop offset="0" style="stop-color:#A2FF6A"/>
		<stop offset="1" style="stop-color:#689C30"/>
	</linearGradient><linearGradient id="SVGID_32_" gradientUnits="userSpaceOnUse" x1="730.47" y1="886.7501" x2="730.47" y2="912.7452" gradientTransform="matrix(0.7509 -0.6604 0.6604 0.7509 -291.7185 441.6955)">
		<stop offset="0" style="stop-color:#A2FF6A"/>
		<stop offset="1" style="stop-color:#689C30"/>
	</linearGradient>

</svg>