<?xml version="1.0" encoding="iso-8859-1"?>
<!-- Generator: Adobe Illustrator 19.0.0, SVG Export Plug-In . SVG Version: 6.00 Build 0)  -->
<svg version="1.1" id="Capa_1" xmlns="http://www.w3.org/2000/svg" xmlns:xlink="http://www.w3.org/1999/xlink" x="0px" y="0px"
	 viewBox="0 0 512.001 512.001" style="enable-background:new 0 0 512.001 512.001;" xml:space="preserve">
<circle style="fill:#965A50;" cx="71.599" cy="219.948" r="64.1"/>
<circle style="fill:#D4AF91;" cx="71.599" cy="219.948" r="40.06"/>
<circle style="fill:#965A50;" cx="440.149" cy="219.948" r="64.1"/>
<circle style="fill:#EBC9A0;" cx="440.149" cy="219.948" r="40.06"/>
<path style="fill:#AF6E5A;" d="M436.905,257.862c-8.117-14.005-12.777-29.742-12.777-45.93l0,0
	c0-70.217-43.043-130.328-104.157-155.542V27.654l-40.06,16.024l-8.012-32.048c-21.132,7.044-39.159,21.828-52.737,36.187
	C143.916,64.586,87.621,131.633,87.621,211.932c0,16.188-4.66,31.924-12.777,45.93c-12.341,21.294-19.272,45.098-19.272,70.246
	c0,90.711,89.678,164.248,200.302,164.248s200.302-73.536,200.302-164.248C456.176,302.959,449.245,279.156,436.905,257.862z"/>
<path style="fill:#965A50;" d="M143.705,356.817c0-29.339,6.93-57.11,19.271-81.953c8.118-16.34,12.777-34.698,12.777-53.585
	c0-81.532,42.659-151.311,103.321-180.947l-7.176-28.702c-21.132,7.044-39.159,21.828-52.738,36.187
	C143.915,64.585,87.62,131.633,87.62,211.932c0,16.188-4.659,31.924-12.777,45.93c-12.341,21.294-19.271,45.098-19.271,70.246
	c0,73.217,58.438,135.219,139.143,156.421C163.008,450.628,143.705,405.887,143.705,356.817z"/>
<path style="fill:#FAEBC8;" d="M255.874,460.306c66.374,0,120.181-43.046,120.181-96.145c0-11.016-2.342-21.582-6.631-31.422
	c-6.219-14.269-4.102-30.646,5.889-42.582c12.743-15.224,19.315-35.779,15.846-57.858c-4.764-30.328-29.283-54.804-59.617-59.525
	c-23.18-3.608-44.666,3.85-60.059,17.89c-4.375,3.991-9.993,5.986-15.607,5.986c-5.618,0-11.236-1.995-15.611-5.986
	c-15.393-14.04-36.879-21.498-60.059-17.89c-30.335,4.721-54.853,29.197-59.617,59.525c-3.468,22.079,3.104,42.634,15.846,57.858
	c9.991,11.936,12.108,28.313,5.889,42.582c-4.289,9.84-6.631,20.406-6.631,31.422C135.693,417.261,189.5,460.306,255.874,460.306z"
	/>
<path style="fill:#F5DCB4;" d="M135.693,364.161c0,17.97,6.275,34.729,17.002,49.117c-5.761-17.863-8.99-36.787-8.99-56.461
	c0-29.339,6.93-57.11,19.271-81.953c8.118-16.34,12.777-34.698,12.777-53.585c0-16.792,1.901-33.042,5.305-48.588
	c-0.287,0.041-0.565,0.039-0.853,0.084c-30.335,4.721-54.852,29.197-59.617,59.525c-3.468,22.08,3.104,42.635,15.846,57.859
	c9.992,11.936,12.109,28.312,5.89,42.582C138.036,342.579,135.693,353.145,135.693,364.161z"/>
<path style="fill:#4B3F4E;" d="M175.754,356.15c0,39.825,35.871,72.109,80.121,72.109s80.121-32.284,80.121-72.109H175.754z"/>
<path style="fill:#E6646E;" d="M209.709,415.025c13.056,8.308,28.96,13.233,46.165,13.233s33.109-4.925,46.165-13.233
	c-5.788-20.051-24.316-34.839-46.165-34.839S215.497,394.974,209.709,415.025z"/>
<path style="fill:#AF6E5A;" d="M71.597,259.337c-25.37,57.42-50.629,151.247-64.097,241.03h96.145
	c16.024-112.169,44.733-190.286,44.733-190.286L71.597,259.337z"/>
<path style="fill:#965A50;" d="M45.182,500.367c13.206-75.284,39.791-164.187,61.423-217.895l-35.008-23.135
	c-25.37,57.42-50.629,151.247-64.097,241.03H45.182z"/>
<path style="fill:#F5DCB4;" d="M84.367,148.295c11.417,2.198,19.273,12.862,19.273,24.488v32.035l25.746-25.746
	c22.537-22.537,58.548-26.787,84.287-7.988c32.439,23.692,35.017,69.978,7.734,97.261l-35.922,35.922
	c-23.867,23.867-62.921,23.867-86.787,0l-10.271-10.271C67.391,272.96,55.573,244.43,55.573,214.68v-42.812
	C55.566,157.04,69.007,145.339,84.367,148.295z"/>
<path style="fill:#EBC9A0;" d="M210.276,168.847c-25.435-16.105-59.322-11.343-80.891,10.226l-25.745,25.746v-32.036
	c0-11.627-7.857-22.29-19.273-24.489c-15.36-2.957-28.8,8.744-28.794,23.574v42.813c0,29.749,11.818,58.28,32.854,79.315
	l10.269,10.271C89.878,271.657,135.594,170.131,210.276,168.847z"/>
<path style="fill:#AF6E5A;" d="M440.403,259.337c25.37,57.42,50.629,151.247,64.097,241.03h-96.145
	c-16.024-112.169-44.733-190.287-44.733-190.287L440.403,259.337z"/>
<path style="fill:#F5DCB4;" d="M427.633,148.295c-11.417,2.198-19.273,12.862-19.273,24.488v32.035l-25.746-25.746
	c-22.537-22.537-58.548-26.787-84.287-7.988c-32.439,23.692-35.017,69.978-7.734,97.261l35.922,35.922
	c23.867,23.867,62.921,23.867,86.787,0l10.271-10.271c21.036-21.036,32.854-49.566,32.854-79.316v-42.812
	C456.434,157.04,442.993,145.339,427.633,148.295z"/>
<path d="M220.581,314.812l16.032,8.016c1.077,0.539,2.222,0.793,3.349,0.793c2.751,0,5.4-1.52,6.714-4.147
	c1.853-3.705,0.351-8.21-3.354-10.062l-16.032-8.016c-3.707-1.854-8.211-0.351-10.063,3.354
	C215.375,308.454,216.877,312.959,220.581,314.812z"/>
<path d="M272.038,323.621c1.127,0,2.271-0.255,3.349-0.793l16.032-8.016c3.704-1.852,5.206-6.357,3.354-10.062
	c-1.852-3.705-6.355-5.208-10.063-3.354l-16.032,8.016c-3.704,1.852-5.206,6.357-3.354,10.062
	C266.638,322.102,269.287,323.621,272.038,323.621z"/>
<path d="M168.339,356.2c0,43.917,39.324,79.645,87.661,79.645s87.661-35.729,87.661-79.645c0-4.142-3.357-7.5-7.5-7.5H175.839
	C171.696,348.7,168.339,352.058,168.339,356.2z M256,404.813c-4.143,0-7.5,3.358-7.5,7.5v8.18
	c-10.713-0.982-20.738-4.047-29.565-8.725c6.48-14.503,20.944-24.019,37.065-24.019c16.192,0,30.594,9.496,37.067,24.018
	c-8.828,4.679-18.853,7.744-29.567,8.726v-8.18C263.5,408.171,260.143,404.813,256,404.813z M328.175,363.7
	c-2.029,15.556-10.303,29.435-22.511,39.625c-9.326-18.576-28.366-30.576-49.664-30.576c-21.206,0-40.314,12.028-49.656,30.582
	c-12.212-10.19-20.489-24.071-22.519-39.631H328.175z"/>
<path d="M454.662,290.108C487.668,283.414,512,254.074,512,219.926c0-33.837-23.998-63.316-57.079-70.146
	c-0.782-0.799-1.607-1.563-2.479-2.284c-7.284-6.019-16.855-8.431-26.265-6.62c-2.868,0.552-5.579,1.511-8.091,2.806
	c-17.287-40.991-49.668-74.118-90.457-92.334V27.539c0-2.489-1.234-4.815-3.295-6.21s-4.679-1.678-6.99-0.753l-32.103,12.841
	l-5.932-23.729c-0.507-2.026-1.836-3.75-3.667-4.755c-1.833-1.005-4.001-1.201-5.981-0.541
	c-18.575,6.192-36.821,18.472-54.261,36.515c-27.77,6.577-53.772,19.995-75.329,38.895c-20.015,17.547-35.845,39.519-46.142,63.89
	c-2.516-1.299-5.232-2.261-8.105-2.814c-9.405-1.811-18.98,0.601-26.265,6.62c-0.873,0.721-1.698,1.485-2.479,2.284
	c-33.081,6.83-57.079,36.309-57.079,70.146c0,34.148,24.332,63.488,57.338,70.182C36.564,343.665,12.223,418.456,0.084,499.38
	c-0.614,4.097,2.208,7.916,6.305,8.53c0.377,0.057,0.751,0.084,1.122,0.084c3.649,0,6.85-2.669,7.407-6.388
	c12.448-82.982,37.983-159.522,58.99-212.672c2.866,3.609,5.949,7.08,9.257,10.388l10.275,10.276
	c11.046,11.046,25.244,17.844,40.614,19.621c-6.783,20.23-24.789,79.242-37.785,170.213c-0.586,4.101,2.264,7.899,6.364,8.485
	c0.359,0.051,0.717,0.076,1.07,0.076c3.672,0,6.881-2.7,7.415-6.44c2.271-15.902,4.708-30.804,7.196-44.624
	c38.016,27.828,86.435,43.047,137.686,43.047c51.229,0,99.668-15.222,137.688-43.048c2.5,13.887,4.93,28.775,7.194,44.624
	c0.534,3.741,3.743,6.44,7.415,6.44c0.354,0,0.711-0.025,1.07-0.076c4.101-0.586,6.95-4.385,6.364-8.485
	c-12.996-90.972-31.001-149.984-37.785-170.213c14.701-1.704,28.388-8.02,39.233-18.278c3.01-2.846,3.142-7.593,0.295-10.603
	s-7.595-3.141-10.602-0.295c-20.997,19.859-54.707,19.387-75.144-1.052l-35.939-35.94c-11.669-11.668-17.623-27.881-16.338-44.482
	c1.28-16.522,9.734-31.637,23.195-41.468c22.193-16.208,54.266-13.097,74.602,7.239l25.759,25.759
	c2.146,2.145,5.369,2.786,8.174,1.626c2.803-1.161,4.63-3.896,4.63-6.929v-32.052c0-8.32,5.675-15.687,13.201-17.136
	c5.072-0.977,9.998,0.251,13.875,3.454c3.825,3.16,6.018,7.812,6.016,12.767v42.834c0,22.749-7.579,45.251-21.342,63.361
	c-2.506,3.298-1.864,8.003,1.434,10.51c2.707,2.057,6.36,1.989,8.97,0.076c21.031,53.163,46.645,129.846,59.118,212.996
	c0.558,3.719,3.757,6.388,7.407,6.388c0.37,0,0.745-0.027,1.122-0.084c4.097-0.614,6.919-4.433,6.305-8.53
	C499.778,418.454,475.437,343.663,454.662,290.108z M15,219.926c0-22.519,13.441-42.594,33.289-51.604
	c-0.128,1.156-0.193,2.326-0.192,3.505v42.834c0,21.13,5.441,41.423,15.653,59.284c-0.262,0.647-0.522,1.282-0.786,1.937
	C35.541,271.672,15,247.829,15,219.926z M93.77,288.713c-19.78-19.781-30.674-46.08-30.674-74.052v-42.837
	c-0.002-4.952,2.19-9.604,6.016-12.764c3.009-2.485,6.648-3.781,10.497-3.781c1.112,0,2.242,0.108,3.378,0.327
	c7.526,1.449,13.201,8.815,13.201,17.136v32.052c0,3.034,1.827,5.768,4.63,6.929c2.802,1.161,6.027,0.519,8.174-1.626l25.759-25.759
	c20.336-20.336,52.41-23.449,74.602-7.239c13.461,9.831,21.915,24.946,23.195,41.468c1.285,16.601-4.669,32.813-16.338,44.482
	l-35.939,35.94c-10.132,10.132-23.667,15.712-38.112,15.712c-14.444,0-27.979-5.58-38.112-15.712L93.77,288.713z M256,484.974
	c-50.716,0-98.359-15.799-134.595-44.543c3.761-19.322,7.536-36.129,10.955-50.113c14.293,44.583,64.306,77.591,123.641,77.591
	c59.32,0,109.322-32.993,123.63-77.559c3.536,14.438,7.286,31.177,10.967,50.076C354.358,469.169,306.694,484.974,256,484.974z
	 M285.183,273.655l35.939,35.94c10.697,10.697,24.404,17.426,39.254,19.447c0.628,2.29,1.402,4.545,2.356,6.733
	c3.987,9.149,6.01,18.719,6.01,28.441c0,48.906-50.576,88.693-112.742,88.693s-112.742-39.788-112.742-88.693
	c0-9.722,2.022-19.292,6.01-28.441c0.952-2.183,1.729-4.437,2.357-6.725c14.847-2.013,28.533-8.736,39.253-19.455l35.939-35.94
	c14.771-14.771,22.31-35.271,20.686-56.247c-0.411-5.305-1.412-10.492-2.946-15.486c3.658,1.449,7.549,2.18,11.444,2.18
	c3.893,0,7.784-0.732,11.442-2.18c-1.534,4.994-2.535,10.181-2.946,15.486C262.873,238.384,270.412,258.885,285.183,273.655z
	 M400.811,172.742v13.945l-12.955-12.956c-25.516-25.514-65.95-29.275-94.057-8.746c-3.124,2.282-6.03,4.793-8.71,7.496
	c-0.159,0.066-0.318,0.13-0.475,0.208c-6.548,3.275-12.621,7.448-18.053,12.402c-5.922,5.403-15.202,5.401-21.126-0.001
	c-5.575-5.085-11.817-9.326-18.556-12.637c-2.672-2.692-5.567-5.194-8.68-7.467c-28.107-20.527-68.542-16.768-94.057,8.746
	l-12.955,12.956v-13.945c0-6.741-1.987-13.065-5.421-18.307c9.301-24.249,24.542-46.128,44.192-63.355
	c20.248-17.752,44.779-30.217,70.94-36.047c1.461-0.325,2.791-1.08,3.818-2.167c13.755-14.545,27.882-25.047,42.097-31.307
	l5.958,23.833c0.525,2.101,1.934,3.873,3.862,4.858c1.929,0.986,4.189,1.09,6.199,0.286l29.795-11.918v17.672
	c0,3.037,1.832,5.775,4.64,6.933c40.95,16.895,73.188,50.006,88.976,91.195C402.803,159.663,400.811,165.993,400.811,172.742z
	 M463.903,214.661V171.83c0-1.18-0.064-2.351-0.192-3.508c19.848,9.01,33.289,29.085,33.289,51.604
	c0,27.903-20.541,51.746-47.964,55.956c-0.277-0.688-0.55-1.354-0.825-2.033C458.393,255.89,463.903,235.369,463.903,214.661z"/>
<g>
</g>
<g>
</g>
<g>
</g>
<g>
</g>
<g>
</g>
<g>
</g>
<g>
</g>
<g>
</g>
<g>
</g>
<g>
</g>
<g>
</g>
<g>
</g>
<g>
</g>
<g>
</g>
<g>
</g>
</svg>
