<?xml version="1.0" encoding="UTF-8" standalone="no"?>
<!-- Generator: Adobe Illustrator 19.0.0, SVG Export Plug-In . SVG Version: 6.00 Build 0)  -->

<svg
   xmlns:dc="http://purl.org/dc/elements/1.1/"
   xmlns:cc="http://creativecommons.org/ns#"
   xmlns:rdf="http://www.w3.org/1999/02/22-rdf-syntax-ns#"
   xmlns:svg="http://www.w3.org/2000/svg"
   xmlns="http://www.w3.org/2000/svg"
   xmlns:sodipodi="http://sodipodi.sourceforge.net/DTD/sodipodi-0.dtd"
   xmlns:inkscape="http://www.inkscape.org/namespaces/inkscape"
   version="1.1"
   id="Layer_1"
   x="0px"
   y="0px"
   viewBox="0 0 512.001 512.001"
   style="enable-background:new 0 0 512.001 512.001;"
   xml:space="preserve"
   sodipodi:docname="gorilla2.svg"
   inkscape:version="0.92.4 5da689c313, 2019-01-14"><metadata
   id="metadata79"><rdf:RDF><cc:Work
       rdf:about=""><dc:format>image/svg+xml</dc:format><dc:type
         rdf:resource="http://purl.org/dc/dcmitype/StillImage" /><dc:title></dc:title></cc:Work></rdf:RDF></metadata><defs
   id="defs77" /><sodipodi:namedview
   pagecolor="#ffffff"
   bordercolor="#666666"
   borderopacity="1"
   objecttolerance="10"
   gridtolerance="10"
   guidetolerance="10"
   inkscape:pageopacity="0"
   inkscape:pageshadow="2"
   inkscape:window-width="945"
   inkscape:window-height="1041"
   id="namedview75"
   showgrid="false"
   inkscape:zoom="0.75024142"
   inkscape:cx="321.3884"
   inkscape:cy="263.47532"
   inkscape:window-x="965"
   inkscape:window-y="8"
   inkscape:window-maximized="0"
   inkscape:current-layer="Layer_1" />
<g
   id="g6">
	<g
   id="g4">
		<path
   d="m 489.037,238.936 c 0,-34.187 -24.124,-61.999 -53.778,-61.999 -9.53,0 -18.651,2.831 -26.672,8.121 -10.808,-21.246 -24.12,-40.399 -39.706,-57.061 -4.003,-4.28 -46.445,-43.516 -50.723,-39.514 -4.28,4.003 31.226,49.729 35.228,54.007 16.818,17.98 31.326,40.134 41.955,64.066 11.741,26.448 18.797,54.575 20.972,83.583 0.005,0.075 0.008,0.15 0.015,0.225 0.455,6.289 0.687,12.59 0.687,18.732 0,62.798 -11.715,107.369 -35.814,136.257 -25.501,30.57 -66.455,45.43 -125.202,45.43 -58.747,0 -99.701,-14.861 -125.202,-45.43 -24.099,-28.888 -35.814,-73.459 -35.814,-136.257 0,-6.206 0.236,-12.574 0.699,-18.911 0.002,-0.031 0.005,-0.062 0.007,-0.092 2.183,-29.022 9.24,-57.13 20.978,-83.543 30.109,-67.782 86.101,-113.323 139.331,-113.323 17.099,0 34.672,4.712 52.232,14.009 5.18,2.741 58.78553,40.3583 61.52653,35.1803 2.741,-5.178 -46.42053,-51.1923 -51.59853,-53.9333 -16.836,-8.911 -33.846,-14.239 -50.716,-15.905 4.806,-29.095 30.121,-51.36 60.552,-51.36 h 5.09 c 5.859,0 10.609,-4.75 10.609,-10.609 C 343.693,4.751 338.943,0 333.084,0 h -5.09 C 295.556,0 267.439,18.805 253.933,46.08 243.087,32.301 226.274,23.427 207.418,23.427 h -3.43 c -5.859,0 -10.609,4.75 -10.609,10.609 0,5.859 4.75,10.609 10.609,10.609 h 3.43 c 17.485,0 32.24,11.883 36.633,27.995 -54.073,5.647 -108.291,48.946 -140.636,112.421 -8.032,-5.292 -17.154,-8.124 -26.676,-8.124 -29.653,0 -53.778,27.813 -53.778,61.999 0,33.09 22.601,60.205 50.941,61.912 -0.083,2.767 -0.136,5.523 -0.136,8.247 0,67.972 13.326,116.987 40.738,149.849 29.782,35.701 76.065,53.056 141.495,53.056 65.43,0 111.713,-17.355 141.495,-53.056 27.413,-32.86 40.738,-81.877 40.738,-149.849 0,-2.723 -0.053,-5.479 -0.136,-8.247 28.341,-1.706 50.941,-28.823 50.941,-61.912 z M 75.354,279.674 C 58.042,278.761 44.18,260.841 44.18,238.936 c 0,-22.487 14.607,-40.782 32.56,-40.782 6.298,0 12.394,2.305 17.642,6.572 -9.869,23.932 -16.249,49.07 -19.028,74.948 z m 361.292,0 c -2.777,-25.859 -9.155,-51.001 -19.025,-74.95 5.234,-4.267 11.33,-6.57 17.638,-6.57 17.953,0 32.56,18.295 32.56,40.782 10e-4,21.905 -13.86,39.824 -31.173,40.738 z"
   id="path2"
   inkscape:connector-curvature="0"
   sodipodi:nodetypes="sscccccccscscscccscsccssssscsssssccsscscscscscssccccscc" />
	</g>
</g>
<g
   id="g12">
	<g
   id="g10">
		<path
   d="M346.007,106.817c-0.831-0.661-1.664-1.313-2.502-1.957c-4.643-3.57-11.302-2.701-14.876,1.942    c-3.572,4.644-2.702,11.305,1.941,14.877c0.747,0.575,1.49,1.157,2.232,1.746c1.952,1.552,4.282,2.305,6.595,2.305    c3.122,0,6.216-1.373,8.31-4.007C351.356,117.137,350.593,110.463,346.007,106.817z"
   id="path8" />
	</g>
</g>
<g
   id="g18">
	<g
   id="g16">
		<path
   d="M358.492,344.825c18.844-15.384,30.065-38.514,30.065-63.395c0-45.152-36.734-81.885-81.886-81.885    c-18.636,0-36.292,6.172-50.671,17.557c-14.379-11.385-32.035-17.557-50.671-17.557c-45.153,0-81.886,36.734-81.886,81.885    c0,24.882,11.221,48.012,30.064,63.394c-15.104,13.352-23.258,29.469-23.258,46.469c0,13.319,5.14,26.428,14.859,37.902    c21.691,25.649,64.183,41.583,110.894,41.583c46.709,0,89.197-15.93,110.887-41.575c9.725-11.481,14.864-24.589,14.864-37.908    C381.751,374.293,373.596,358.177,358.492,344.825z M255.999,449.561c-33.198,0-64.42-9.206-84.098-24.157    c17.377-6.882,49.99-17.636,84.098-17.636c33.997,0,66.67,10.764,84.086,17.646C320.411,440.358,289.193,449.561,255.999,449.561z     M355.487,408.792c-15.837-6.887-56.017-22.242-99.487-22.242c-43.47,0-83.651,15.355-99.487,22.242    c-3.347-5.671-5.048-11.532-5.048-17.498c0-13.757,9.255-27.269,26.059-38.046c3.169-2.032,5.023-5.591,4.874-9.352    c-0.15-3.761-2.281-7.161-5.601-8.935c-19.823-10.591-32.137-31.103-32.137-53.531c0-33.452,27.216-60.668,60.669-60.668    c16.329,0,31.645,6.398,43.125,18.018c1.993,2.017,4.71,3.152,7.546,3.152c2.836,0,5.553-1.135,7.546-3.152    c11.481-11.619,26.797-18.018,43.125-18.018c33.452,0,60.669,27.216,60.669,60.668c0,22.429-12.313,42.941-32.137,53.531    c-3.319,1.774-5.452,5.174-5.601,8.935c-0.15,3.761,1.705,7.32,4.874,9.352c16.804,10.776,26.059,24.289,26.059,38.046    C360.534,397.262,358.835,403.121,355.487,408.792z"
   id="path14" />
	</g>
</g>
<g
   id="g24">
	<g
   id="g22">
		<path
   d="M237.951,331.054c-5.859,0-10.609,4.749-10.609,10.609v10.956c0,5.859,4.75,10.609,10.609,10.609    s10.609-4.75,10.609-10.609v-10.956C248.56,335.803,243.81,331.054,237.951,331.054z"
   id="path20" />
	</g>
</g>
<g
   id="g30">
	<g
   id="g28">
		<path
   d="M274.049,331.054c-5.859,0-10.609,4.749-10.609,10.609v10.956c0,5.859,4.75,10.609,10.609,10.609    s10.609-4.75,10.609-10.609v-10.956C284.658,335.803,279.908,331.054,274.049,331.054z"
   id="path26" />
	</g>
</g>
<g
   id="g36">
	<g
   id="g34">
		<path
   d="M314.085,269.825c-16.625,0-30.151,13.53-30.151,30.163c0,5.859,4.749,10.609,10.609,10.609    c5.859,0,10.609-4.75,10.609-10.609c0-4.932,4.008-8.945,8.934-8.945c4.932,0,8.945,4.012,8.945,8.945    c0,5.859,4.75,10.609,10.609,10.609s10.609-4.75,10.609-10.609C344.248,283.356,330.718,269.825,314.085,269.825z"
   id="path32" />
	</g>
</g>
<g
   id="g42">
	<g
   id="g40">
		<path
   d="M206.169,269.825c-16.631,0-30.163,13.53-30.163,30.163c0,5.859,4.75,10.609,10.609,10.609s10.609-4.75,10.609-10.609    c0-4.932,4.012-8.945,8.945-8.945s8.945,4.012,8.945,8.945c0,5.859,4.75,10.609,10.609,10.609s10.609-4.75,10.609-10.609    C236.332,283.356,222.802,269.825,206.169,269.825z"
   id="path38" />
	</g>
</g>
<g
   id="g44">
</g>
<g
   id="g46">
</g>
<g
   id="g48">
</g>
<g
   id="g50">
</g>
<g
   id="g52">
</g>
<g
   id="g54">
</g>
<g
   id="g56">
</g>
<g
   id="g58">
</g>
<g
   id="g60">
</g>
<g
   id="g62">
</g>
<g
   id="g64">
</g>
<g
   id="g66">
</g>
<g
   id="g68">
</g>
<g
   id="g70">
</g>
<g
   id="g72">
</g>
<path
   style="fill:#ff794b;stroke-width:2.16949558"
   d="M 65.301819,275.67023 C 52.513576,269.32745 43.073885,248.7644 45.625425,232.80794 c 2.590287,-16.19876 13.602214,-30.47202 25.53069,-33.09196 6.03517,-1.32554 21.278094,2.36458 21.249272,5.14418 -0.0082,0.80238 -2.469734,8.69166 -5.469812,17.53172 -3.000077,8.84006 -7.13225,25.19264 -9.182606,36.33905 -2.050355,11.14642 -4.226236,20.24398 -4.835291,20.21681 -0.609054,-0.0272 -4.036191,-1.50205 -7.615859,-3.27751 z"
   id="path81"
   inkscape:connector-curvature="0" /><path
   style="fill:#ff794b;stroke-width:2.16949558"
   d="m 434.38572,258.92931 c -2.10424,-11.03731 -6.19863,-27.16637 -9.09863,-35.84236 -2.9,-8.67598 -5.27273,-16.69105 -5.27273,-17.81125 0,-1.1202 3.85453,-3.19158 8.56563,-4.60306 10.70787,-3.20815 19.07582,-0.2069 28.10933,10.08169 16.8125,19.14838 10.93548,53.74232 -11.07565,65.1947 -3.22211,1.67646 -6.2057,3.04811 -6.63021,3.04811 -0.42451,0 -2.49349,-9.03052 -4.59774,-20.06783 z"
   id="path83"
   inkscape:connector-curvature="0" /><path
   style="fill:#ff794b;stroke-width:2.16949558"
   d="m 224.92287,445.99486 c -15.57752,-3.27673 -30.956,-8.73333 -41.30366,-14.65541 l -9.68286,-5.5416 11.85235,-4.14672 c 45.7362,-16.00151 95.08664,-16.01749 140.7234,-0.0456 l 11.71828,4.10116 -8.26964,4.8792 c -18.44426,10.88238 -39.45995,16.03598 -68.31956,16.75375 -14.91529,0.37096 -31.43852,-0.2342 -36.71831,-1.3448 z"
   id="path85"
   inkscape:connector-curvature="0" /><path
   style="fill:#ff794b;stroke-width:2.16949558"
   d="m 154.5338,402.11602 c -2.96555,-11.0659 -1.31715,-20.48456 5.34553,-30.54336 3.69211,-5.57408 7.37963,-10.13468 8.19448,-10.13468 0.81486,0 4.62795,-2.87379 8.47354,-6.38619 8.13232,-7.42774 8.90392,-13.80858 2.31285,-19.12662 -25.14657,-20.28967 -32.15991,-32.23124 -32.15991,-54.75853 0,-24.26608 13.04917,-44.22693 35.61246,-54.47515 18.66201,-8.47625 50.59618,-3.00016 62.85108,10.77774 5.73337,6.4459 14.40896,5.81609 23.91189,-1.73589 25.57819,-20.32699 63.153,-16.75495 83.50752,7.93861 20.18452,24.48732 16.55597,62.59726 -7.87593,82.71925 -14.93654,12.30166 -15.81199,13.31293 -15.78439,18.23319 0.018,3.19386 4.23455,8.57157 12.19727,15.55586 6.69344,5.87098 13.51503,13.89387 15.15909,17.82866 3.72377,8.91223 3.85197,20.53735 0.27733,25.15015 -2.45917,3.1734 -4.76979,2.80452 -24.79712,-3.95873 -54.25489,-18.32192 -100.91902,-17.65735 -158.90525,2.26307 -8.85986,3.04369 -16.31212,5.53399 -16.56056,5.53399 -0.24845,0 -1.0404,-2.19662 -1.75988,-4.88137 z m 91.48701,-41.11194 c 3.37796,-3.37796 3.37796,-23.95769 0,-27.33565 -3.35603,-3.35603 -13.13214,-3.35603 -16.48817,0 -1.43187,1.43187 -2.60339,7.58239 -2.60339,13.66783 0,12.3999 2.58087,16.27121 10.84747,16.27121 3.10238,0 6.81222,-1.17152 8.24409,-2.60339 z m 37.23899,-1.59297 c 3.0695,-5.73542 2.83596,-22.54915 -0.35757,-25.74268 -4.31522,-4.31522 -14.16312,-3.09368 -17.88379,2.21833 -7.66208,10.93915 -1.79813,27.72071 9.6864,27.72071 4.01728,0 7.12496,-1.52437 8.55496,-4.19636 z m -85.56151,-57.4743 c 2.4237,-4.68491 5.63178,-8.92637 7.12906,-9.42546 3.58526,-1.19509 9.08492,3.48629 9.08492,7.73319 0,5.17821 6.61691,11.29504 12.21846,11.29504 3.00323,0 6.49859,-2.22994 8.65568,-5.52207 3.03372,-4.63004 3.21738,-6.85988 1.13697,-13.80367 -8.1574,-27.22698 -45.55822,-31.13108 -57.48349,-6.00043 -4.57032,9.63122 -4.53757,16.33156 0.10489,21.46141 5.9655,6.5918 14.02369,4.17773 19.15352,-5.73801 z m 104.60636,6.8909 c 1.17911,-1.49153 3.08802,-5.64069 4.24204,-9.22036 3.65997,-11.35299 14.08592,-9.31461 16.59785,3.24505 2.12464,10.62319 16.9176,11.89771 20.66036,1.78004 6.50787,-17.59242 -16.32836,-39.89725 -35.98066,-35.14339 -18.67506,4.51746 -31.56791,28.15231 -21.0789,38.64132 4.08698,4.08698 12.5788,4.46757 15.55931,0.69734 z"
   id="path87"
   inkscape:connector-curvature="0" /><path
   style="fill:#2e3436;stroke-width:1.53406513"
   d="m 235.63416,489.50808 c -30.33175,-3.05991 -47.80992,-7.25605 -65.93695,-15.83009 -45.61788,-21.57718 -67.82975,-63.66259 -73.039226,-138.38931 -2.815248,-40.38299 0.73502,-70.70708 12.389226,-105.82076 11.53618,-34.75806 28.48952,-63.14239 52.84859,-88.48234 37.20682,-38.70506 78.70154,-53.78706 119.36783,-43.386376 14.15906,3.621276 23.09852,8.026366 44.46259,21.909766 13.51079,8.77997 18.67476,13.3118 28.84558,25.31446 22.91766,27.04529 38.21699,53.66296 48.48928,84.36123 8.57568,25.62806 11.37326,42.26889 12.35151,73.47029 3.48452,111.1406 -33.06406,169.75987 -114.58066,183.77271 -14.32117,2.46184 -53.14606,4.2962 -65.19777,3.08042 z m 59.7097,-22.2712 c 39.07966,-7.86045 68.74037,-26.77961 80.98825,-51.6586 4.57552,-9.29421 5.03606,-11.50509 5.01448,-24.07297 -0.0281,-16.3132 -3.43645,-25.59995 -14.28327,-38.91693 l -6.71186,-8.24035 6.14485,-6.35177 c 14.78141,-15.27912 22.00008,-33.33121 22.17005,-55.44183 0.21844,-28.41343 -11.95863,-52.47811 -34.60079,-68.37908 -15.28289,-10.73275 -27.20803,-14.38569 -47.09738,-14.42699 -18.66204,-0.0387 -28.35518,2.42074 -42.02182,10.66239 l -9.03941,5.45121 -7.1921,-4.61516 c -31.1928,-20.01636 -74.69443,-14.82258 -101.3304,12.09813 -31.34625,31.68135 -32.86912,78.56165 -3.67011,112.98121 l 8.07608,9.52001 -5.14029,4.98217 c -7.46207,7.23252 -14.53654,21.51213 -16.31404,32.92941 -2.80424,18.01221 3.75966,35.34451 19.21849,50.74734 30.975,30.86278 89.62047,44.02954 145.78927,32.73181 z"
   id="path91"
   inkscape:connector-curvature="0" /></svg>