<svg width="499.99999999999994" height="582" xmlns="http://www.w3.org/2000/svg" preserveAspectRatio="xMidYMid meet">
 <metadata>Created by potrace 1.15, written by Peter Selinger 2001-2017</metadata>

 <g>
  <title>background</title>
  <rect fill="none" id="canvas_background" height="584" width="502" y="-1" x="-1"/>
 </g>
 <g>
  <title>Layer 1</title>
  <path id="svg_3" d="m238.904908,66.64285c-17.4,4.5 -26.1,8.7 -27.1,13.3c-0.3,1.5 -0.8,3.3 -1,4.1c-0.2,0.7 0.3,8.5 1.2,17.4c1.9,18.7 1.1,28.7 -3.2,37.500001c-2.9,5.9 -6.3,8.2 -12.2,8.2c-3.3,0 -4.5,-0.6 -7.5,-3.9c-3.7,-4.1 -7.2,-12.3 -8.8,-20.5c-0.5,-2.7 -0.9,-11.6 -0.9,-19.8l0,-14.9l-6.7,3.7c-17.9,9.9 -29.7,18.3 -32,22.8c-5,9.6 2.1,39.000001 15.8,65.400001c3.8,7.5 6.9,14.5 6.7,15.6c-0.4,2.7 -7,6 -10.4,5.2c-3.3,-0.9 -5.5,-4.8 -10.8,-19.3c-4.6,-12.5 -7,-23.3 -8.1,-35.800001c-1.2,-14.7 -1.6,-16.5 -3.3,-16.5c-4.1,0.1 -10.7,4.5 -21.2,14.1c-13.8,12.7 -17,18.2 -17,29.4c0,4 0.9,10.2 2,14.3c3,10.7 16.2,41.000001 23.7,54.200001c3.5,6.3 6.7,12.9 7,14.6c1,6 -4.9,8.3 -11.3,4.3c-9.3,-5.7 -26,-28.6 -35.900001,-49.100001l-6.2,-13l-4,4.1c-7.2,7.5 -16.3,25.4 -18.3,36.100001c-1.3,6.6 0.2,13.7 4.1,19c7,9.6 38.600001,40.100001 55.900001,54.000001c3.6,2.9 12.5,9.3 19.8,14.2c7.3,5 15,10.6 17,12.5l3.7,3.5l-2.4,1.9c-2.9,2.4 -5.9,2 -14.7,-2.1c-6.7,-3 -41.400001,-23.5 -47.900001,-28.2c-6.9,-5 -20.4,-18.9 -28,-29l-7.4,-9.7l-1.5,4.7c-2.8,8.5 -6.6,26.5 -7.2,34.700001c-1.2,15.8 3.2,22 20.6,29.4c18.4,7.8 69.300001,32.1 72.700001,34.700001c4.1,3.1 4.3,6.5 0.7,10.1c-2.3,2.3 -3.1,2.5 -8.3,2c-7.7,-0.7 -31.6,-8 -41.900001,-12.8c-4.6,-2.1 -13.8,-7.1 -20.5,-11.1c-6.7,-4 -12.6,-7.5 -13.1,-7.7c-1.5,-0.6 0.2,24.5 2.3,34.400001c3.3,15.7 9.1,25.1 19.3,31.3c7.7,4.6 12.9,5 25.3,1.8c17.6,-4.5 40.200001,-6 47.000001,-3.2c4.2,1.8 6.7,5.6 6.9,10.4c0.1,3.6 -0.1,3.8 -6.5,6.9c-13.6,6.7 -29.5,8.7 -45.800001,5.9c-5.2,-0.9 -9.6,-1.5 -9.8,-1.2c-0.9,0.9 18.9,19.3 24.2,22.5c10.2,6.2 19.5,5.4 37.500001,-3.1c19.4,-9.1 42.000001,-25.8 58.300001,-43.100001l7.7,-8.2l-3.4,8.1c-10,23.7 -14.6,43.400001 -14.6,62.800001c0,11.9 2.2,33.4 3.6,35.800001c0.4,0.6 6.8,-1.9 10.3,-3.9c0.1,-0.1 -0.6,-2.8 -1.7,-6c-4.3,-12.2 -5.3,-30.7 -2.7,-45.900001c2,-11 8.2,-30 13.9,-41.900001l4.3,-9l0.8,4c2.1,11.8 7.9,33.5 11,42.200001c7,18.6 13.1,27.5 22.7,32.2c9.3,4.7 19.9,4.2 32.5,-1.5l5.8,-2.6l-7.2,-2.3c-12,-3.7 -19.9,-9.9 -24.7,-19.2c-2.3,-4.5 -2,-6.4 1.4,-11.1c2.3,-3.2 3.7,-4.2 5.8,-4.2c4.5,0 11.4,5.1 19.1,14.3c4,4.7 8.7,9.2 10.6,10.2c4.9,2.3 13.4,3.5 24.6,3.5c8.2,0 10.2,-0.3 14.7,-2.6c6.6,-3.3 12.9,-10.3 18,-20.1c3.8,-7.3 8.9,-21.9 8,-22.8c-0.2,-0.2 -2.8,0.2 -5.8,1c-19.6,5.1 -40.300001,3.4 -56.100001,-4.5c-5.7,-2.9 -10.9,-7.9 -10.9,-10.5c0,-6.1 27.7,-3.7 72.500001,6.1c14.4,3.2 17.1,3.5 27.5,3.2c13.5,-0.5 17.7,-2.2 23.4,-9.1c6.3,-7.7 14.2,-27.3 16.1,-40.100001l0.7,-4.4l-8.3,2.8c-12.8,4.4 -23.1,6.2 -38.500001,6.7c-17.1,0.7 -22.8,0 -26,-3.2c-3.2,-3.2 -3.2,-7.9 0,-10c7.2,-4.8 23.9,-8.6 47.600001,-11c19.9,-2 29.5,-4 37.300001,-7.9c8.5,-4.2 10.7,-8.5 10.7,-20.6c0,-4.8 -0.5,-11.3 -1,-14.6c-1.7,-9.6 -5.3,-24.4 -5.9,-24.4c-0.3,0 -6,4.5 -12.6,10c-12.7,10.6 -16.9,12.7 -23.1,11.6c-4,-0.8 -9.4,-5.4 -9.4,-8.1c0,-5.7 9.6,-13.5 21.3,-17.4c8.6,-2.9 14.8,-6.7 21,-12.9c8.1,-7.9 10.2,-12.8 10.1,-23.2c-0.1,-7.2 -0.8,-10.5 -4.4,-21.3c-2.3,-7 -4.5,-12.7 -4.9,-12.7c-0.3,0 -2.3,3.3 -4.3,7.3c-4.9,9.3 -10.7,16 -18.2,20.9c-7.7,5 -11.9,5.1 -16.4,0.5c-1.9,-2 -3.2,-4.3 -3.2,-5.9c0,-4.5 7.8,-10.4 18.5,-13.8c6,-1.9 7.9,-3.5 10.9,-9c5.8,-10.6 4.5,-17.6 -6.1,-33.700001c-3.4,-5.1 -6.9,-11.3 -7.9,-13.8l-1.7,-4.6l-2,3.3c-16.5,27.2 -27.8,38.700001 -38.300001,38.800001c-3.3,0 -6.4,-2.6 -6.4,-5.3c0,-3.1 7.4,-9.9 18.5,-17.3c18.7,-12.3 30.5,-24.7 30.5,-32c0,-4.6 -3.4,-12.7 -8.6,-20.5c-6,-9.1 -7.1,-9.9 -8.4,-6.3c-3.4,9.1 -7.1,14.3 -17.5,24.7c-28.8,28.8 -48.200001,40.200001 -59.800001,35.400001c-4.7,-2 -4.7,-4 0.1,-8.5c3.8,-3.7 22.7,-16.3 39.600001,-26.5c7.3,-4.4 11,-7.4 15.1,-12.4c6.9,-8.4 12.5,-19.6 12.5,-25c0,-5.7 -2.8,-8.7 -13.5,-14.7c-4.8,-2.6 -10.5,-6.4 -12.7,-8.4c-4,-3.6 -7.8,-9.8 -7.8,-12.7c0,-1.3 -0.5,-1.4 -2.2,-0.8c-4,1.4 -13,0.9 -23.5,-1.5c-5.9,-1.3 -13.6,-2.2 -18.3,-2.2c-7.4,0 -8.3,0.2 -10.4,2.5c-4,4.4 -5.1,10.5 -5,28.5c0.1,9.1 0.9,22 1.8,28.7c2.3,17.1 2.1,24.3 -0.5,27.7c-2.4,3 -5.9,3.4 -8.2,0.8c-3,-3.3 -6.8,-13 -9.2,-23.9c-5.3,-23 -2.5,-46.700001 8.2,-71.100001c0.7,-1.5 -20.3,-1.7 -25.9,-0.2c-3.4,1 -3.9,1.6 -5.3,6.3c-0.9,2.9 -2.1,10.7 -2.7,17.5c-1.3,13.8 -0.3,27.4 3.2,41.700001c2.6,10.3 2.5,14.6 -0.1,17.9c-5.9,7.5 -12.3,-2.5 -17.8,-28.4c-4.7,-22.2 -5.2,-36.000001 -1.6,-50.900001c0.9,-3.5 1.4,-6.5 1.3,-6.6c-0.2,-0.2 -4.3,0.7 -9.3,2zm-23.7,96.200001c5.4,6 15.2,29.4 15.2,36.500001c0,8.8 -8.7,13.4 -17.6,9.2c-6.7,-3.2 -13,-12.9 -16,-24.6c-2.7,-10.5 0.1,-19 7.6,-22.9c5,-2.7 6.9,-2.4 10.8,1.8zm55.600001,2.5c4,4.1 11.5,21 12.3,27.6c0.5,4.2 0.2,5.3 -1.6,7.1c-1.1,1.1 -3.2,2.1 -4.5,2.1c-11.3,0 -24.6,-28.3 -17.5,-37.400001c2.9,-3.7 7.2,-3.5 11.3,0.6zm-102.900002,42.800001c4.1,2.5 7.3,6.5 21.8,26.8c6.3,8.9 12.3,18.3 13.3,20.8c1.6,4.2 1.6,4.9 0.3,7.3c-1.8,3.3 -6.3,5.5 -9.5,4.7c-3.5,-0.9 -8.4,-5.6 -16.4,-15.5c-11.5,-14.6 -19,-29.7 -19,-38.600001c0,-7.2 3.5,-9.2 9.5,-5.5zm203.700003,0.7c5.1,4.6 -0.8,10.7 -25.2,26.4c-25,16 -28.2,17.2 -33.600001,12.5c-2.1,-1.8 -2.8,-3.2 -2.8,-6.1c0,-3.3 0.7,-4.4 5.2,-8.6c6.5,-6 19,-14.8 26.2,-18.4c13.5,-6.9 26.3,-9.4 30.2,-5.8zm-129.400002,7.9c2.8,2 13.9,20.6 15.3,25.8c0.9,3.3 0.8,4.3 -0.8,6.4c-4.4,5.9 -12.5,4.9 -20.5,-2.6c-8,-7.4 -12.3,-18.2 -9.9,-24.4c2.1,-5.7 11.1,-8.6 15.9,-5.2zm164.500002,33.2c5.4,4.7 -4.1,15.2 -17.5,19.3c-7.1,2.2 -10.6,2 -13.2,-0.7c-2.5,-2.5 -1.9,-4.2 3.3,-9.4c5.2,-5.2 12.7,-9.5 18.8,-10.8c4.2,-1 6,-0.6 8.6,1.6zm-269.700004,16.1c15.3,11.3 30.9,33.1 29,40.600001c-1.4,5.7 -7.1,2 -23.3,-15.3c-6.6,-7 -12.7,-13.8 -13.6,-15.2c-3.1,-4.5 -1.7,-13 2.2,-13c1,0 3.6,1.3 5.7,2.9zm232.300003,2.7c4.4,5.5 1.8,9.2 -11.7,16.8c-16.1,9.1 -34.900001,13.9 -41.000001,10.7c-2.2,-1.2 -2.9,-4.6 -1.4,-6.7c1.9,-2.8 9.3,-7.1 23.3,-13.6c24.4,-11.2 27.1,-11.9 30.8,-7.2zm28.5,43.000001c4.7,4.6 0.5,8.7 -18.1,17.5c-26.7,12.8 -54.400001,17.5 -56.800001,9.8c-1.4,-4.4 4.9,-8 24,-14c3.9,-1.2 11.3,-4 16.5,-6.2c19.7,-8.4 30.9,-10.7 34.400001,-7.1zm-201.000003,11.8c15.4,11.1 24.6,26.8 14.2,24.2c-2.7,-0.7 -19,-12.9 -25.3,-18.9c-3.3,-3.1 -4.3,-4.9 -4.3,-7.2c0,-6.8 4,-6.2 15.4,1.9zm106.500002,7.7c2,0.7 3.3,2 3.7,3.6c1.5,5.7 -9,10.9 -20.2,10c-7.5,-0.6 -11.4,-2.7 -11.4,-6.2c0,-5.7 18.6,-10.6 27.9,-7.4zm46.600001,42.100001c3.3,1.5 4.4,5.6 2.1,7.4c-5.1,3.7 -31.9,4.9 -38.400001,1.7c-4.6,-2.3 -5.3,-4.9 -1.6,-6.3c3.1,-1.2 22.5,-3.7 30.1,-3.9c2.9,0 6.4,0.4 7.8,1.1zm-165.900002,12.4c5.2,2.6 6.3,4.7 4,7.3c-4.2,4.6 -22.4,1.4 -24.6,-4.3c-0.6,-1.6 -0.3,-2.6 1.3,-4c1.8,-1.5 3.4,-1.7 8.8,-1.4c3.7,0.3 8.4,1.4 10.5,2.4zm80.300001,10c4.7,1.9 6.3,5.1 3.5,7.1c-5.6,4.1 -21.6,-2 -19.7,-7.5c0.7,-1.8 11.4,-1.5 16.2,0.4z"/>
 </g>
</svg>