<?xml version="1.0" encoding="iso-8859-1"?>
<!-- Generator: Adobe Illustrator 16.0.0, SVG Export Plug-In . SVG Version: 6.00 Build 0)  -->
<!DOCTYPE svg PUBLIC "-//W3C//DTD SVG 1.1//EN" "http://www.w3.org/Graphics/SVG/1.1/DTD/svg11.dtd">
<svg version="1.1" id="Capa_1" xmlns="http://www.w3.org/2000/svg" xmlns:xlink="http://www.w3.org/1999/xlink" x="0px" y="0px"
	 width="642.679px" height="642.68px" viewBox="0 0 642.679 642.68" style="enable-background:new 0 0 642.679 642.68;"
	 xml:space="preserve">
<g>
	<g>
		<path d="M398.105,210.763c-21.534,0-47.358,4.277-76.818,12.713c-29.459-8.436-55.29-12.713-76.818-12.713
			c-31.782,0-55.315,9.114-69.939,27.088c-20.725,25.476-14.157,58.515-13.864,59.909l0.865,4.159l2.87,3.131
			c1.868,2.036,46.032,50.129,67.772,71.912c0.206,0.205,0.455,0.461,0.436,1.787c-0.205,12.545-21.279,38.088-35.455,51.398
			l-7.159,6.705l5.099,15.633h-21.59V467.9c0,31.758,15.938,61.33,44.868,83.275c27.667,20.98,64.211,32.541,102.916,32.541
			c38.699,0,75.25-11.555,102.917-32.541c28.937-21.945,44.868-51.523,44.868-83.275v-15.414h-21.597l5.099-15.627l-7.141-6.705
			c-14.183-13.316-35.256-38.859-35.462-51.404c-0.019-1.326,0.23-1.582,0.437-1.787c21.739-21.783,65.898-69.876,67.772-71.912
			l2.876-3.131l0.865-4.159c0.286-1.395,6.849-34.434-13.877-59.909C453.408,219.877,429.881,210.763,398.105,210.763z
			 M433.947,490.582c-5.137,13.348-14.773,25.705-28.383,36.027c-22.338,16.939-52.271,26.271-84.283,26.271
			c-32.012,0-61.945-9.332-84.283-26.271c-13.609-10.322-23.247-22.68-28.383-36.027c-0.921-2.391-1.712-4.812-2.341-7.266h230.006
			C435.665,485.77,434.868,488.191,433.947,490.582z M452.15,287.787c-10.845,11.772-45.658,49.438-63.576,67.387
			c-6.338,6.35-9.6,14.68-9.438,24.094c0.236,14.076,8,30.418,23.726,49.973c5.242,6.518,10.453,12.221,14.431,16.361l-2.247,6.879
			h-34.808l0.299-16.498l-30.829-0.561l-0.312,17.059h-56.143l-0.311-17.059l-30.83,0.561l0.299,16.498h-34.888l-2.248-6.879
			c3.978-4.146,9.189-9.844,14.431-16.361c15.726-19.555,23.489-35.904,23.726-49.973c0.156-9.414-3.106-17.75-9.444-24.094
			c-17.923-17.961-52.774-55.67-63.595-67.412c-0.517-6.475-0.374-20.097,8.05-30.456c8.479-10.422,23.962-15.713,46.02-15.713
			c19.623,0,43.997,4.277,72.435,12.719l4.383,1.301l4.39-1.301c28.438-8.442,52.812-12.719,72.436-12.719
			c21.927,0,37.359,5.229,45.87,15.539C452.487,267.448,452.655,281.213,452.15,287.787z"/>
		<path d="M357.807,359.693c-22.026-3.318-24.498,22.48-24.498,22.48C349.938,384.752,379.833,363.006,357.807,359.693z"/>
		<path d="M284.768,359.693c-22.026,3.318,7.869,25.064,24.498,22.48C309.266,382.174,306.794,356.375,284.768,359.693z"/>
		<path d="M294.94,305.574c3.281-9.463,1.893-20.097-3.81-29.161c-5.105-8.118-13.236-14.437-22.892-17.78
			c-4.906-1.7-9.955-2.559-15.016-2.559c-16.442,0-30.182,8.996-35.007,22.917c-3.281,9.469-1.893,20.096,3.81,29.161
			c5.105,8.119,13.236,14.437,22.892,17.781c4.906,1.699,9.955,2.559,15.017,2.559C276.375,328.49,290.115,319.5,294.94,305.574z
			 M265.811,295.482c-0.318,0.915-2.534,2.179-5.871,2.179c-1.619,0-3.274-0.286-4.924-0.859c-5.74-1.992-8.143-6.338-7.664-7.713
			c0.317-0.916,2.534-2.179,5.871-2.179c1.619,0,3.275,0.292,4.924,0.859C263.887,289.754,266.284,294.1,265.811,295.482z"/>
		<path d="M389.389,256.074c-5.062,0-10.116,0.859-15.016,2.559c-9.656,3.349-17.787,9.662-22.892,17.78
			c-5.703,9.064-7.092,19.698-3.811,29.161c4.825,13.92,18.565,22.917,35.007,22.917h0.006c5.062,0,10.117-0.859,15.017-2.559
			c9.656-3.35,17.787-9.662,22.892-17.781c5.703-9.064,7.091-19.698,3.811-29.161C419.572,265.063,405.832,256.074,389.389,256.074z
			 M387.596,296.802c-1.649,0.573-3.306,0.859-4.918,0.859l0,0c-3.337,0-5.553-1.264-5.871-2.179
			c-0.192-0.554,0.112-1.6,0.778-2.658c1.363-2.173,3.879-4.016,6.886-5.062c1.649-0.573,3.306-0.859,4.925-0.859
			c3.337,0,5.553,1.264,5.87,2.179C395.74,290.464,393.343,294.81,387.596,296.802z"/>
		<path d="M547.888,270.592C495.033,161.519,445.458,88.977,400.546,54.973l-2.229-1.687l-2.683-0.797
			c-0.604-0.181-13.229-3.904-31.347-6.911c-9.151-16.859-22.866-29.821-33.444-38.12L321.325,0l-9.513,7.465
			c-10.577,8.299-24.292,21.26-33.444,38.12c-18.117,3.007-30.742,6.73-31.346,6.91l-2.683,0.797l-2.229,1.681
			c-44.912,34.004-94.487,106.546-147.342,215.619C55.863,350.859,29.342,422.504,29.08,423.221l-13.752,37.297l35.306-18.271
			c1.65-0.854,4.625-1.93,8.23-3.07c-2.528,13.262-3.854,22.756-3.935,23.365l-4.782,33.75l28.364-18.658
			c3.038-1.893,12.725-6.719,21.734-6.719c6.312,0,10.87,2.229,14.78,7.229c4.625,5.92,10.391,18.621,11.598,45.49
			c2.104,46.961,28.719,82.086,76.961,101.572c37.634,15.203,80.112,17.475,102.082,17.475c7.801,0,13.367-0.279,15.67-0.416
			c2.303,0.143,7.875,0.416,15.67,0.416c21.97,0,64.441-2.271,102.075-17.469c48.243-19.486,74.857-54.611,76.968-101.578
			c1.208-26.869,6.973-39.57,11.599-45.49c3.909-5,8.467-7.234,14.779-7.234c9.009,0,18.696,4.818,21.734,6.717l28.232,18.572
			l-4.644-33.668c-0.088-0.611-1.407-10.111-3.935-23.365c3.604,1.139,6.574,2.217,8.229,3.068l35.306,18.273L613.6,423.207
			C613.307,422.504,586.787,350.859,547.888,270.592z M566.845,402.719l-24.36-5.598l5.933,24.281
			c1.662,6.811,3.106,13.51,4.309,19.58c-3.294-0.561-6.755-0.896-10.316-0.896c-15.813,0-29.329,6.598-39.078,19.088
			c-10.901,13.957-16.822,34.596-18.098,63.084c-1.569,34.988-20.445,59.318-57.712,74.371
			c-32.797,13.248-70.799,15.229-90.527,15.229c-8.915,0-14.456-0.404-14.5-0.412l-1.17-0.086l-1.158,0.086
			c-0.056,0.008-5.591,0.412-14.512,0.412c-19.729,0-57.73-1.98-90.527-15.229c-37.261-15.053-56.137-39.377-57.712-74.365
			c-1.276-28.494-7.197-49.133-18.098-63.09c-9.75-12.49-23.266-19.088-39.079-19.088c-3.561,0-7.022,0.336-10.316,0.896
			c1.202-6.064,2.646-12.764,4.308-19.58l5.933-24.281l-24.361,5.598c-1.133,0.262-3.368,0.785-6.25,1.5
			c11.212-27.979,29.914-72.641,53.073-120.416c49.021-101.111,95.919-171.013,135.819-202.483
			c5.149-1.37,17.326-4.364,32.374-6.443l8.709-1.202l3.399-8.105c4.208-10.042,11.331-18.733,18.397-25.562
			c7.065,6.835,14.188,15.526,18.396,25.562l3.399,8.105l8.71,1.202c15.054,2.08,27.237,5.08,32.379,6.443
			c39.895,31.464,86.798,101.366,135.819,202.483c23.165,47.781,41.861,92.438,53.073,120.416
			C570.213,403.496,567.978,402.975,566.845,402.719z"/>
		<rect x="307.286" y="309.396" width="28.078" height="28.079"/>
	</g>
</g>
<g>
</g>
<g>
</g>
<g>
</g>
<g>
</g>
<g>
</g>
<g>
</g>
<g>
</g>
<g>
</g>
<g>
</g>
<g>
</g>
<g>
</g>
<g>
</g>
<g>
</g>
<g>
</g>
<g>
</g>
</svg>
