<?xml version="1.0" encoding="UTF-8" standalone="no"?>
<!-- Generator: Adobe Illustrator 16.0.0, SVG Export Plug-In . SVG Version: 6.00 Build 0)  -->

<svg
   xmlns:dc="http://purl.org/dc/elements/1.1/"
   xmlns:cc="http://creativecommons.org/ns#"
   xmlns:rdf="http://www.w3.org/1999/02/22-rdf-syntax-ns#"
   xmlns:svg="http://www.w3.org/2000/svg"
   xmlns="http://www.w3.org/2000/svg"
   xmlns:sodipodi="http://sodipodi.sourceforge.net/DTD/sodipodi-0.dtd"
   xmlns:inkscape="http://www.inkscape.org/namespaces/inkscape"
   version="1.1"
   id="Capa_1"
   x="0px"
   y="0px"
   width="642.679px"
   height="642.68px"
   viewBox="0 0 642.679 642.68"
   style="enable-background:new 0 0 642.679 642.68;"
   xml:space="preserve"
   sodipodi:docname="baboon.svg"
   inkscape:version="0.92.4 5da689c313, 2019-01-14"><metadata
   id="metadata55"><rdf:RDF><cc:Work
       rdf:about=""><dc:format>image/svg+xml</dc:format><dc:type
         rdf:resource="http://purl.org/dc/dcmitype/StillImage" /><dc:title></dc:title></cc:Work></rdf:RDF></metadata><defs
   id="defs53" /><sodipodi:namedview
   pagecolor="#ffffff"
   bordercolor="#666666"
   borderopacity="1"
   objecttolerance="10"
   gridtolerance="10"
   guidetolerance="10"
   inkscape:pageopacity="0"
   inkscape:pageshadow="2"
   inkscape:window-width="945"
   inkscape:window-height="1041"
   id="namedview51"
   showgrid="false"
   inkscape:zoom="0.3672123"
   inkscape:cx="265.83578"
   inkscape:cy="686.1725"
   inkscape:window-x="965"
   inkscape:window-y="8"
   inkscape:window-maximized="0"
   inkscape:current-layer="Capa_1" />
<g
   id="g18">
	<g
   id="g16">
		<path
   d="M398.105,210.763c-21.534,0-47.358,4.277-76.818,12.713c-29.459-8.436-55.29-12.713-76.818-12.713    c-31.782,0-55.315,9.114-69.939,27.088c-20.725,25.476-14.157,58.515-13.864,59.909l0.865,4.159l2.87,3.131    c1.868,2.036,46.032,50.129,67.772,71.912c0.206,0.205,0.455,0.461,0.436,1.787c-0.205,12.545-21.279,38.088-35.455,51.398    l-7.159,6.705l5.099,15.633h-21.59V467.9c0,31.758,15.938,61.33,44.868,83.275c27.667,20.98,64.211,32.541,102.916,32.541    c38.699,0,75.25-11.555,102.917-32.541c28.937-21.945,44.868-51.523,44.868-83.275v-15.414h-21.597l5.099-15.627l-7.141-6.705    c-14.183-13.316-35.256-38.859-35.462-51.404c-0.019-1.326,0.23-1.582,0.437-1.787c21.739-21.783,65.898-69.876,67.772-71.912    l2.876-3.131l0.865-4.159c0.286-1.395,6.849-34.434-13.877-59.909C453.408,219.877,429.881,210.763,398.105,210.763z     M433.947,490.582c-5.137,13.348-14.773,25.705-28.383,36.027c-22.338,16.939-52.271,26.271-84.283,26.271    c-32.012,0-61.945-9.332-84.283-26.271c-13.609-10.322-23.247-22.68-28.383-36.027c-0.921-2.391-1.712-4.812-2.341-7.266h230.006    C435.665,485.77,434.868,488.191,433.947,490.582z M452.15,287.787c-10.845,11.772-45.658,49.438-63.576,67.387    c-6.338,6.35-9.6,14.68-9.438,24.094c0.236,14.076,8,30.418,23.726,49.973c5.242,6.518,10.453,12.221,14.431,16.361l-2.247,6.879    h-34.808l0.299-16.498l-30.829-0.561l-0.312,17.059h-56.143l-0.311-17.059l-30.83,0.561l0.299,16.498h-34.888l-2.248-6.879    c3.978-4.146,9.189-9.844,14.431-16.361c15.726-19.555,23.489-35.904,23.726-49.973c0.156-9.414-3.106-17.75-9.444-24.094    c-17.923-17.961-52.774-55.67-63.595-67.412c-0.517-6.475-0.374-20.097,8.05-30.456c8.479-10.422,23.962-15.713,46.02-15.713    c19.623,0,43.997,4.277,72.435,12.719l4.383,1.301l4.39-1.301c28.438-8.442,52.812-12.719,72.436-12.719    c21.927,0,37.359,5.229,45.87,15.539C452.487,267.448,452.655,281.213,452.15,287.787z"
   id="path2" />
		<path
   d="M357.807,359.693c-22.026-3.318-24.498,22.48-24.498,22.48C349.938,384.752,379.833,363.006,357.807,359.693z"
   id="path4" />
		<path
   d="M284.768,359.693c-22.026,3.318,7.869,25.064,24.498,22.48C309.266,382.174,306.794,356.375,284.768,359.693z"
   id="path6" />
		<path
   d="M294.94,305.574c3.281-9.463,1.893-20.097-3.81-29.161c-5.105-8.118-13.236-14.437-22.892-17.78    c-4.906-1.7-9.955-2.559-15.016-2.559c-16.442,0-30.182,8.996-35.007,22.917c-3.281,9.469-1.893,20.096,3.81,29.161    c5.105,8.119,13.236,14.437,22.892,17.781c4.906,1.699,9.955,2.559,15.017,2.559C276.375,328.49,290.115,319.5,294.94,305.574z     M265.811,295.482c-0.318,0.915-2.534,2.179-5.871,2.179c-1.619,0-3.274-0.286-4.924-0.859c-5.74-1.992-8.143-6.338-7.664-7.713    c0.317-0.916,2.534-2.179,5.871-2.179c1.619,0,3.275,0.292,4.924,0.859C263.887,289.754,266.284,294.1,265.811,295.482z"
   id="path8" />
		<path
   d="M389.389,256.074c-5.062,0-10.116,0.859-15.016,2.559c-9.656,3.349-17.787,9.662-22.892,17.78    c-5.703,9.064-7.092,19.698-3.811,29.161c4.825,13.92,18.565,22.917,35.007,22.917h0.006c5.062,0,10.117-0.859,15.017-2.559    c9.656-3.35,17.787-9.662,22.892-17.781c5.703-9.064,7.091-19.698,3.811-29.161C419.572,265.063,405.832,256.074,389.389,256.074z     M387.596,296.802c-1.649,0.573-3.306,0.859-4.918,0.859l0,0c-3.337,0-5.553-1.264-5.871-2.179    c-0.192-0.554,0.112-1.6,0.778-2.658c1.363-2.173,3.879-4.016,6.886-5.062c1.649-0.573,3.306-0.859,4.925-0.859    c3.337,0,5.553,1.264,5.87,2.179C395.74,290.464,393.343,294.81,387.596,296.802z"
   id="path10" />
		<path
   d="M547.888,270.592C495.033,161.519,445.458,88.977,400.546,54.973l-2.229-1.687l-2.683-0.797    c-0.604-0.181-13.229-3.904-31.347-6.911c-9.151-16.859-22.866-29.821-33.444-38.12L321.325,0l-9.513,7.465    c-10.577,8.299-24.292,21.26-33.444,38.12c-18.117,3.007-30.742,6.73-31.346,6.91l-2.683,0.797l-2.229,1.681    c-44.912,34.004-94.487,106.546-147.342,215.619C55.863,350.859,29.342,422.504,29.08,423.221l-13.752,37.297l35.306-18.271    c1.65-0.854,4.625-1.93,8.23-3.07c-2.528,13.262-3.854,22.756-3.935,23.365l-4.782,33.75l28.364-18.658    c3.038-1.893,12.725-6.719,21.734-6.719c6.312,0,10.87,2.229,14.78,7.229c4.625,5.92,10.391,18.621,11.598,45.49    c2.104,46.961,28.719,82.086,76.961,101.572c37.634,15.203,80.112,17.475,102.082,17.475c7.801,0,13.367-0.279,15.67-0.416    c2.303,0.143,7.875,0.416,15.67,0.416c21.97,0,64.441-2.271,102.075-17.469c48.243-19.486,74.857-54.611,76.968-101.578    c1.208-26.869,6.973-39.57,11.599-45.49c3.909-5,8.467-7.234,14.779-7.234c9.009,0,18.696,4.818,21.734,6.717l28.232,18.572    l-4.644-33.668c-0.088-0.611-1.407-10.111-3.935-23.365c3.604,1.139,6.574,2.217,8.229,3.068l35.306,18.273L613.6,423.207    C613.307,422.504,586.787,350.859,547.888,270.592z M566.845,402.719l-24.36-5.598l5.933,24.281    c1.662,6.811,3.106,13.51,4.309,19.58c-3.294-0.561-6.755-0.896-10.316-0.896c-15.813,0-29.329,6.598-39.078,19.088    c-10.901,13.957-16.822,34.596-18.098,63.084c-1.569,34.988-20.445,59.318-57.712,74.371    c-32.797,13.248-70.799,15.229-90.527,15.229c-8.915,0-14.456-0.404-14.5-0.412l-1.17-0.086l-1.158,0.086    c-0.056,0.008-5.591,0.412-14.512,0.412c-19.729,0-57.73-1.98-90.527-15.229c-37.261-15.053-56.137-39.377-57.712-74.365    c-1.276-28.494-7.197-49.133-18.098-63.09c-9.75-12.49-23.266-19.088-39.079-19.088c-3.561,0-7.022,0.336-10.316,0.896    c1.202-6.064,2.646-12.764,4.308-19.58l5.933-24.281l-24.361,5.598c-1.133,0.262-3.368,0.785-6.25,1.5    c11.212-27.979,29.914-72.641,53.073-120.416c49.021-101.111,95.919-171.013,135.819-202.483    c5.149-1.37,17.326-4.364,32.374-6.443l8.709-1.202l3.399-8.105c4.208-10.042,11.331-18.733,18.397-25.562    c7.065,6.835,14.188,15.526,18.396,25.562l3.399,8.105l8.71,1.202c15.054,2.08,27.237,5.08,32.379,6.443    c39.895,31.464,86.798,101.366,135.819,202.483c23.165,47.781,41.861,92.438,53.073,120.416    C570.213,403.496,567.978,402.975,566.845,402.719z"
   id="path12" />
		<rect
   x="307.286"
   y="309.396"
   width="28.078"
   height="28.079"
   id="rect14" />
	</g>
</g>
<g
   id="g20">
</g>
<g
   id="g22">
</g>
<g
   id="g24">
</g>
<g
   id="g26">
</g>
<g
   id="g28">
</g>
<g
   id="g30">
</g>
<g
   id="g32">
</g>
<g
   id="g34">
</g>
<g
   id="g36">
</g>
<g
   id="g38">
</g>
<g
   id="g40">
</g>
<g
   id="g42">
</g>
<g
   id="g44">
</g>
<g
   id="g46">
</g>
<g
   id="g48">
</g>
<path
   style="fill:#666666;stroke-width:2.72322035"
   d="m 261.65723,607.33592 c -25.33607,-4.14586 -38.62367,-8.14823 -56.07486,-16.89037 -31.50074,-15.78022 -41.70717,-31.78001 -47.29402,-74.13891 -4.13196,-31.32806 -8.09087,-44.12232 -17.92705,-57.93597 -7.54884,-10.60136 -24.13092,-18.84291 -37.9121,-18.84291 -12.417325,0 -12.04734,2.67278 -4.075811,-29.44392 l 3.590591,-14.46621 -8.63616,1.77423 c -4.749886,0.97581 -11.431685,2.41991 -14.848442,3.20907 l -6.212286,1.43486 5.252798,-13.25184 c 42.9807,-108.43255 104.5298,-220.69631 151.59305,-276.50132 19.80339,-23.481771 31.1964,-30.957482 52.71713,-34.591194 9.57322,-1.616414 17.62692,-3.275955 17.8971,-3.68787 0.27017,-0.411917 3.70231,-6.361156 7.62697,-13.220531 11.52228,-20.13826 13.68861,-20.830082 23.49039,-7.501729 4.65753,6.333257 8.46823,13.1421 8.46823,15.130762 0,4.611338 8.3443,7.739433 27.23221,10.208767 14.23579,1.861139 16.06463,3.058199 36.92076,24.166555 45.70242,46.25513 105.34124,150.32694 156.27042,272.69731 l 11.07191,26.60308 -7.86276,-1.57255 c -4.3245,-0.86489 -11.20485,-2.41136 -15.28968,-3.43659 -6.41008,-1.60883 -7.21038,-1.16078 -5.84507,3.27241 0.87007,2.82504 3.31514,12.65548 5.43356,21.84543 l 3.85162,16.70894 -14.46717,1.19974 c -30.00743,2.48845 -45.34281,24.24489 -51.81585,73.51156 -2.17144,16.52696 -6.03948,34.45631 -8.5956,39.84298 -10.98299,23.14492 -40.19541,41.78035 -79.71672,50.8536 -27.09215,6.21976 -104.67662,7.95889 -134.84316,3.02262 z m 103.63478,-27.60325 c 26.64203,-6.77229 55.44003,-22.41765 72.23105,-39.24163 20.94285,-20.98396 30.37668,-41.2292 31.96045,-68.58781 l 1.24361,-21.48259 h -10.17637 c -9.57975,0 -10.07298,-0.41202 -8.4126,-7.02749 1.49575,-5.95955 -0.78734,-9.75466 -15.02341,-24.97305 -9.23297,-9.87006 -18.98406,-22.85244 -21.66913,-28.84971 l -4.88194,-10.90416 36.71519,-38.33055 36.71517,-38.33055 -1.02617,-22.03659 c -0.8394,-18.02619 -2.4015,-24.38347 -8.58359,-34.93237 -8.85945,-15.11752 -25.8844,-26.9007 -45.75495,-31.66757 -17.50126,-4.19849 -68.34594,-1.84924 -90.08367,4.16226 -14.95799,4.13658 -17.11009,4.06187 -43.06416,-1.49503 -38.30889,-8.20213 -79.46888,-6.76478 -99.13779,3.46199 -25.56094,13.2903 -36.60631,32.39238 -36.70367,63.47603 l -0.0598,19.0938 35.40187,37.543 c 19.47102,20.64869 35.40186,39.75156 35.40186,42.4509 0,6.17168 -13.2669,25.01474 -29.27438,41.57853 -10.17609,10.52977 -11.97686,13.91155 -10.51316,19.74335 1.656,6.59806 1.15021,7.03721 -8.10528,7.03721 h -9.8715 l 1.04008,21.10496 c 2.3194,47.0646 33.75519,84.16243 86.75196,102.3772 27.04379,9.29487 26.92856,9.27633 59.94721,9.63974 17.71148,0.19498 34.91764,-1.26398 44.93313,-3.80987 z"
   id="path3760"
   inkscape:connector-curvature="0" /><path
   style="fill:#666666;stroke-width:2.72322035"
   d="m 256.25454,605.40654 c -43.83115,-8.61621 -74.04128,-25.76771 -85.72483,-48.66937 -2.78793,-5.46479 -6.54723,-17.83529 -8.354,-27.49003 -1.80677,-9.65472 -3.92481,-19.39222 -4.70677,-21.63887 -0.78196,-2.24666 -1.15184,-6.8421 -0.82195,-10.21208 0.32988,-3.36999 -0.78568,-6.12725 -2.47904,-6.12725 -1.69335,0 -2.30664,-1.24941 -1.36287,-2.77646 2.85949,-4.62675 -4.17327,-21.60624 -13.21394,-31.90301 -9.55736,-10.88523 -22.037,-17.06171 -34.47333,-17.06171 -10.901657,0 -12.098518,-4.10011 -6.97199,-23.88403 2.33573,-9.01386 4.24678,-17.24602 4.24678,-18.2937 0,-1.04768 -6.165441,-1.05691 -13.700974,-0.0218 l -13.700969,1.88436 4.595516,-11.84092 C 113.09579,301.03142 173.35583,188.20043 216.89987,130.2666 c 29.12986,-38.756267 39.16,-45.838162 76.53121,-54.035742 4.77024,-1.046378 9.5694,-5.59103 14.13995,-13.390092 11.06043,-18.87319 13.74003,-19.996046 21.96985,-9.206196 3.87676,5.082698 7.04866,10.629159 7.04866,12.325469 0,4.970934 11.30387,10.958462 24.50898,12.982128 17.30604,2.652128 23.80016,6.554358 41.0522,24.667683 33.75987,35.44534 67.88323,88.27004 107.43156,166.30955 18.44576,36.3985 58.48099,125.06761 58.48099,129.52239 0,0.66291 -5.51273,-0.0561 -12.25049,-1.59801 -6.73776,-1.54183 -13.02508,-2.02872 -13.97181,-1.08196 -0.94675,0.94672 0.30753,9.79839 2.78727,19.67031 2.47977,9.87194 3.79296,19.10695 2.91823,20.52229 -0.87472,1.41534 -5.94667,2.57334 -11.27097,2.57334 -19.51217,0 -42.96937,21.26914 -45.63347,41.37685 -0.45758,3.45373 -1.56528,8.11768 -2.46154,10.36433 -0.89624,2.24666 -3.58801,15.7266 -5.98164,29.95543 -4.90839,29.1774 -12.28314,44.30246 -27.11837,55.61785 -12.32184,9.39832 -39.47945,21.71733 -57.21848,25.95493 -17.44729,4.16792 -123.71752,6.12616 -141.60746,2.60939 z m 109.60962,-24.77112 c 6.36553,-1.57849 11.57369,-4.0223 11.57369,-5.43064 0,-1.40837 1.20739,-1.81443 2.6831,-0.9024 4.44966,2.75002 38.06831,-15.4802 52.68459,-28.56903 14.43087,-12.9228 29.87134,-34.59647 27.44432,-38.52344 -0.79025,-1.27869 -0.1863,-2.32486 1.34214,-2.32486 3.66592,0 8.60908,-18.76147 7.99113,-30.32984 -0.26906,-5.03627 0.44486,-12.4409 1.58643,-16.45474 1.9281,-6.77934 1.42918,-7.3598 -7.02217,-8.16966 -7.43693,-0.71264 -9.24512,-2.13587 -9.90498,-7.79622 -0.444,-3.80845 -7.90287,-15.13051 -16.57535,-25.16013 -8.67244,-10.02962 -18.08011,-22.52882 -20.90589,-27.77598 l -5.13779,-9.54031 14.88349,-15.67913 c 8.18592,-8.62354 25.15534,-26.27263 37.70982,-39.22018 12.55451,-12.94755 22.03426,-24.82266 21.06613,-26.38913 -0.96814,-1.56646 -1.86478,-10.27383 -1.99253,-19.3497 -0.12775,-9.07588 -1.28754,-16.50159 -2.57731,-16.50159 -1.28977,0 -1.62802,-1.86853 -0.75166,-4.15229 3.65489,-9.52449 -29.73231,-44.53282 -39.05782,-40.95428 -1.95513,0.75026 -3.55481,0.046 -3.55481,-1.565 0,-1.61101 -1.83817,-2.22373 -4.08483,-1.36161 -2.24665,0.86212 -4.08483,0.45882 -4.08483,-0.89624 0,-2.65019 -62.17512,-3.41685 -66.37934,-0.8185 -6.05856,3.74441 -67.05845,6.11654 -67.05845,2.60774 0,-1.382 -3.09287,-1.92148 -6.87305,-1.19885 -3.78017,0.72262 -7.48592,0.32221 -8.235,-0.88982 -1.902,-3.0775 -63.47925,-2.61695 -65.39892,0.48914 -0.86129,1.39359 -2.65281,1.86211 -3.98116,1.04114 -4.0457,-2.50038 -22.53634,6.60569 -32.16188,15.83874 -10.4316,10.00624 -17.76134,22.63502 -15.37675,26.49336 0.89849,1.45379 0.48415,2.64325 -0.92075,2.64325 -1.4049,0 -2.73695,10.04663 -2.96011,22.32584 l -0.40574,22.32584 18.6674,19.20326 c 32.03766,32.95734 49.56545,53.96802 49.56545,59.41446 0,6.10159 -6.54536,15.77618 -24.74134,36.56974 -7.18798,8.2141 -13.44622,18.19498 -13.9072,22.1797 -0.69457,6.00378 -2.38448,7.39341 -9.86422,8.11142 -8.38129,0.80454 -8.90428,1.42092 -7.32123,8.62852 0.93766,4.26914 1.7741,12.78086 1.85876,18.91492 0.0847,6.13405 1.25466,11.83312 2.60001,12.6646 1.34535,0.83146 1.76169,2.61914 0.92519,3.97264 -3.04649,4.92933 13.32502,33.44501 27.05527,47.12451 13.7945,13.74355 35.71872,27.6165 46.54213,29.45043 2.99554,0.50755 6.05917,1.7177 6.80805,2.68915 0.74889,0.97148 7.48886,3.60895 14.97771,5.86105 16.16228,4.86046 75.71672,5.757 93.2703,1.40412 z"
   id="path3762"
   inkscape:connector-curvature="0" /><path
   style="fill:#666666;stroke-width:2.72322035"
   d="m 227.66073,447.99393 c 0,-1.33468 4.98679,-8.38102 11.08175,-15.65851 13.45151,-16.06135 23.58163,-35.09903 24.47752,-46.00095 1.6965,-20.64458 0.84831,-22.09163 -35.49221,-60.55071 -32.12968,-34.00274 -35.3409,-38.31245 -35.40187,-47.51205 -0.0898,-13.55631 12.57212,-28.14947 28.09471,-32.37968 15.02167,-4.09371 54.7532,-1.37429 80.64827,5.51995 l 20.30537,5.40606 21.90454,-5.86851 c 27.28362,-7.30964 74.57248,-8.42034 87.16017,-2.04719 10.63538,5.38469 20.55899,20.48919 20.39249,31.03894 -0.11086,7.02435 -5.84882,14.41277 -34.05429,43.84961 -39.49379,41.218 -42.86598,47.83925 -35.76839,70.23071 2.50157,7.89194 11.16723,22.92238 19.52589,33.8673 8.26554,10.82299 15.02825,20.32023 15.02825,21.10496 0,0.78473 -7.35269,1.42678 -16.33932,1.42678 h -16.33932 v -8.16966 -8.16966 h -17.70093 -17.70094 v 8.16966 8.16966 h -25.93867 -25.93867 l -1.63394,-8.16966 c -1.59298,-7.96494 -2.03485,-8.16966 -17.63285,-8.16966 -15.96109,0 -15.99892,0.0193 -15.99892,8.16966 v 8.16966 h -16.33932 c -8.98663,0 -16.33932,-1.09202 -16.33932,-2.42671 z m 81.69661,-71.22402 c 0,-7.08852 -11.71088,-18.93876 -18.71604,-18.93876 -15.96871,0 -18.70699,10.04287 -5.11214,18.74924 11.87646,7.60588 23.82818,7.70094 23.82818,0.18951 z m 50.64725,-2.8509 c 8.52073,-8.00481 8.27809,-12.82474 -0.75978,-15.0931 -9.92681,-2.49147 -20.02609,3.66871 -24.66414,15.04419 l -3.76366,9.2309 11.3236,-1.51882 c 6.29938,-0.84492 14.22553,-4.24503 17.86398,-7.66317 z m -23.41505,-50.12812 v -14.97771 h -14.97771 -14.97771 v 14.97771 14.97772 h 14.97771 14.97771 z m -54.4644,-1.04294 c 18.62104,-13.25119 20.61034,-36.08633 4.62065,-53.04035 -22.06196,-23.39249 -61.95856,-17.27345 -69.67876,10.68681 -9.21568,33.37643 36.1612,62.91728 65.05811,42.35354 z m 122.80723,0.90729 c 30.32212,-15.68017 28.49538,-57.47307 -2.92354,-66.88641 -26.63667,-7.98054 -57.21198,12.58649 -57.23945,38.50312 -0.029,27.34512 32.49693,42.68997 60.16299,28.38329 z"
   id="path3764"
   inkscape:connector-curvature="0" /><path
   style="fill:#666666;stroke-width:2.72322035"
   d="m 319.73962,552.04274 c 1.96582,-0.78666 4.3146,-0.68991 5.2195,0.21499 0.90491,0.90491 -0.7035,1.54853 -3.57422,1.43029 -3.1724,-0.13067 -3.81769,-0.77596 -1.64528,-1.64528 z"
   id="path3766"
   inkscape:connector-curvature="0" /><path
   style="fill:#e9afaf;stroke-width:2.72322035"
   d="m 284.19505,546.93746 c -28.63653,-6.9408 -54.8672,-24.04754 -67.55818,-44.05914 -4.42128,-6.97163 -8.03868,-13.66121 -8.03868,-14.86575 0,-1.20454 50.88104,-2.19007 113.06899,-2.19007 h 113.06899 l -5.22245,10.21208 c -12.15315,23.7645 -43.69456,45.391 -76.03809,52.13582 -19.15947,3.99546 -49.97143,3.44712 -69.28058,-1.23294 z"
   id="path3768"
   inkscape:connector-curvature="0" /><path
   style="fill:#e9afaf;stroke-width:2.72322035"
   d="m 236.5112,448.49877 c -3.36999,-0.64909 -6.12725,-1.80777 -6.12725,-2.57486 0,-0.76709 4.17151,-6.50274 9.27002,-12.74589 11.7951,-14.44317 23.96355,-37.29418 22.24477,-41.77325 -0.72682,-1.89408 -0.14956,-4.16807 1.28279,-5.05331 3.81291,-2.35652 3.18175,-11.5032 -1.46986,-21.3007 -2.24078,-4.71967 -17.5046,-23.16837 -33.91959,-40.99711 -16.41499,-17.82874 -31.0236,-35.79557 -32.46358,-39.9263 -3.47547,-9.96974 3.22185,-23.3893 15.99291,-32.04532 9.1277,-6.1866 10.91495,-6.38912 42.20991,-4.7828 46.30643,2.37684 48.79574,2.65363 50.94675,5.66479 2.85854,4.00164 25.16142,3.00981 49.37115,-2.19558 25.97687,-5.58533 61.29545,-5.97501 73.65084,-0.8126 11.38053,4.75509 20.74151,17.67367 20.74151,28.62422 0,6.52277 -4.18449,13.15814 -18.62581,29.53503 -10.24421,11.61724 -20.87325,22.96042 -23.62011,25.20708 -2.74686,2.24665 -10.29608,11.26597 -16.77604,20.04292 -9.13948,12.37919 -11.78176,18.33385 -11.78176,26.5514 0,5.82632 1.29777,10.5933 2.88393,10.5933 1.58617,0 2.14881,1.18946 1.25032,2.64325 -2.13813,3.45957 4.63006,16.53087 19.26297,37.20228 l 11.82032,16.69816 -8.4179,1.68358 c -17.60661,3.52132 -21.3532,2.38328 -21.3532,-6.48608 v -8.16966 h -17.70093 -17.70094 v 8.16966 8.16966 h -25.87059 c -23.09694,0 -25.87059,-0.52553 -25.87059,-4.9018 0,-8.23399 -5.87315,-11.43752 -20.9688,-11.43752 -14.22126,0 -14.43307,0.1199 -14.43307,8.16966 0,7.47764 -0.74968,8.13825 -8.85046,7.79881 -4.86776,-0.20397 -11.60773,-0.90193 -14.97771,-1.55102 z m 109.63537,-67.32336 c 7.23676,-0.8804 17.58818,-6.52507 18.01558,-9.82397 1.4564,-11.2413 0.83817,-12.17409 -8.59511,-12.96836 -11.11118,-0.93554 -20.02726,6.58999 -23.26806,19.63918 -1.74994,7.04619 -1.39068,7.70563 3.20216,5.87775 2.84528,-1.13238 7.63572,-2.35845 10.64543,-2.7246 z m -36.78923,-5.16863 c 0,-9.77053 -11.23549,-18.73596 -22.16859,-17.68959 -19.51242,1.86747 -7.51878,24.02294 13.00457,24.02294 7.77631,0 9.16402,-0.95906 9.16402,-6.33335 z m 27.2322,-52.3582 v -15.12003 l -14.2969,0.82312 -14.29691,0.82312 -0.82312,14.29691 -0.82312,14.29691 h 15.12002 15.12003 z m -57.52494,2.06517 c 5.00993,-2.68686 8.97352,-5.75048 8.80797,-6.80805 -0.16554,-1.05757 2.1499,-4.37375 5.14545,-7.3693 11.43961,-11.43961 4.42623,-36.111 -14.18398,-49.89577 -8.30437,-6.15114 -37.55721,-10.03881 -37.55721,-4.99132 0,1.63624 -1.6753,2.3321 -3.72289,1.54637 -4.84642,-1.85975 -21.52216,14.81599 -19.66241,19.66241 0.78573,2.04759 0.24162,3.72289 -1.20915,3.72289 -4.62792,0 -2.83936,12.37822 3.52851,24.42005 3.39145,6.41332 7.0678,11.50786 8.16966,11.3212 1.10187,-0.18665 4.54905,2.20626 7.6604,5.31761 3.11134,3.11135 7.40042,4.98798 9.53127,4.1703 2.13085,-0.81769 3.87427,-0.29971 3.87427,1.15105 0,4.44423 19.96565,2.92922 29.61811,-2.24744 z m 129.94405,-3.44131 c 11.81093,-7.29955 16.7265,-16.84801 16.74229,-32.5218 0.0153,-15.16065 -5.906,-25.87193 -17.28797,-31.27303 -9.66276,-4.58528 -31.02512,-5.61196 -31.02512,-1.49108 0,1.45076 -1.85995,1.92402 -4.13323,1.05168 -2.61315,-1.00275 -8.62226,2.90297 -16.33932,10.62004 -11.34844,11.34844 -12.2061,13.20713 -12.2061,26.45283 0,12.65495 1.06648,15.31322 9.54503,23.79177 5.76587,5.76587 11.15688,8.9265 13.6161,7.98281 2.23909,-0.85922 4.07108,-0.20454 4.07108,1.45485 0,4.84705 26.34347,0.52869 37.01724,-6.06807 z"
   id="path3770"
   inkscape:connector-curvature="0" /><path
   style="fill:#e9afaf;stroke-width:2.72322035"
   d=""
   id="path3772"
   inkscape:connector-curvature="0" /><path
   style="fill:#e9afaf;stroke-width:0.34040254"
   d="m 255.71934,296.86354 c -3.4187,-1.08403 -6.49944,-3.37691 -7.7005,-5.73119 -0.37013,-0.7255 -0.58317,-1.60196 -0.47344,-1.94769 0.62306,-1.96309 6.96842,-2.60661 10.89716,-1.10514 2.73616,1.04569 5.09268,2.82114 6.3274,4.76719 1.31996,2.08038 1.18969,2.77642 -0.69779,3.72822 -1.2164,0.6134 -2.06366,0.76137 -4.25503,0.74313 -1.5049,-0.0125 -3.34892,-0.21706 -4.0978,-0.45452 z"
   id="path3774"
   inkscape:connector-curvature="0" /><path
   style="fill:#0000ff;stroke-width:0.34040254"
   d="m 378.51955,296.62419 c -1.74767,-0.86509 -1.90902,-1.91113 -0.59373,-3.84932 1.6565,-2.44098 4.9024,-4.51893 8.29064,-5.30746 3.37357,-0.78512 8.21309,0.0702 8.78174,1.55212 0.10417,0.27146 0.0998,0.85065 -0.01,1.28708 -0.26812,1.06827 -2.75061,3.84384 -4.32935,4.84045 -3.49941,2.20908 -9.24775,2.90853 -12.13954,1.47713 z"
   id="path3776"
   inkscape:connector-curvature="0" /><path
   style="fill:#aa4400;stroke-width:0.34040254"
   d="m 257.14713,296.98696 c -2.58485,-0.40178 -5.63863,-2.05778 -7.53675,-4.08702 -3.53945,-3.78396 -1.95529,-5.63258 4.57715,-5.34128 3.99598,0.1782 6.45802,1.22129 9.08967,3.85102 1.75759,1.75632 2.40323,3.0616 2.01491,4.07355 -0.49618,1.29302 -4.61199,2.05288 -8.14498,1.50373 z"
   id="path3778"
   inkscape:connector-curvature="0" /><path
   style="fill:#aa4400;stroke-width:0.48140189"
   d="m 378.83182,296.52359 c -1.59492,-0.68302 -1.77857,-1.69927 -0.63999,-3.54152 2.69278,-4.35702 10.14302,-6.84146 14.74713,-4.91773 1.23145,0.51453 1.66945,0.99343 1.66945,1.82537 0,1.31655 -3.2388,4.64154 -5.77683,5.93056 -1.93573,0.98312 -8.30096,1.43081 -9.99976,0.70332 z"
   id="path3780"
   inkscape:connector-curvature="0" /><path
   style="fill:#aa4400;stroke-width:1.92560756"
   d="m 366.56179,324.23248 c -8.17637,-3.56268 -17.50756,-14.85994 -19.04563,-23.05852 -4.12877,-22.00826 16.27766,-43.57989 41.22592,-43.57989 18.6946,0 33.27503,11.14926 35.92347,27.46972 2.2703,13.99018 -8.40576,31.45351 -23.3905,38.26093 -9.08095,4.12538 -26.29563,4.57555 -34.71326,0.90776 z m 26.12456,-29.74001 c 5.39275,-4.36679 3.5459,-8.01429 -4.05791,-8.01429 -5.97542,0 -14.31087,6.54073 -12.3594,9.69828 1.91095,3.09198 11.76784,2.08092 16.41731,-1.68399 z"
   id="path3782"
   inkscape:connector-curvature="0" /><path
   style="fill:#241c1c;stroke-width:1.92560756"
   d="m 242.39591,323.84593 c -13.64261,-5.90928 -25.0329,-21.4251 -25.0329,-34.09976 0,-10.38771 7.6147,-22.62082 17.25349,-27.71793 29.3818,-15.53747 68.11437,11.01732 59.73302,40.95257 -2.50125,8.9336 -11.33837,18.69182 -19.82504,21.89142 -7.74039,2.91824 -24.23862,2.39123 -32.12857,-1.0263 z m 24.02668,-27.66947 c 1.95147,-3.15755 -6.38398,-9.69828 -12.35939,-9.69828 -7.60381,0 -9.45067,3.6475 -4.05792,8.01429 4.64947,3.76491 14.50636,4.77597 16.41731,1.68399 z"
   id="path3784"
   inkscape:connector-curvature="0" /><path
   style="fill:#241c1c;stroke-width:0.48140189"
   d="m 379.76491,296.4047 c -2.02378,-0.4777 -2.19957,-0.67458 -1.84911,-2.07095 0.80051,-3.18947 5.37945,-6.09504 10.21726,-6.48338 3.15476,-0.25323 5.69966,0.38977 6.14599,1.55287 0.67921,1.77001 -4.63466,6.32255 -7.88892,6.75865 -4.35815,0.58403 -5.06921,0.61009 -6.62522,0.24281 z"
   id="path3786"
   inkscape:connector-curvature="0" /><path
   style="fill:#241c1c;stroke-width:1.92560756"
   d="m 253.72248,294.76282 c -5.46164,-2.63161 -4.42762,-6.4693 1.5558,-5.77427 6.40158,0.74361 10.51834,4.43487 7.25488,6.50503 -3.04807,1.93353 -3.32971,1.91017 -8.81068,-0.73076 z"
   id="path3788"
   inkscape:connector-curvature="0" /><path
   style="fill:#aa4400;stroke-width:1.92560756"
   d="m 266.40479,326.94048 c -0.32613,-0.32325 -5.35884,-0.80676 -11.1838,-1.07446 -6.43922,-0.29593 -12.59447,-1.87056 -15.70212,-4.01691 -2.8112,-1.9416 -5.6274,-3.53018 -6.25822,-3.53018 -1.73208,0 -9.06992,-7.69308 -7.40518,-7.76367 0.79431,-0.0337 -0.23783,-1.33347 -2.29365,-2.88841 -2.05582,-1.55495 -3.10848,-2.82717 -2.33926,-2.82717 0.76923,0 0.36828,-1.92518 -0.89101,-4.27817 -7.01165,-13.10139 2.68734,-34.89316 17.6396,-39.6328 18.42899,-5.8417 34.96428,-1.61208 47.97789,12.27243 4.39787,4.69218 7.40906,8.53125 6.69153,8.53125 -0.71753,0 -0.45065,1.08315 0.59308,2.40701 1.04372,1.32385 1.85191,6.61216 1.79598,11.75179 -0.0892,8.19591 -1.09304,10.44496 -8.16507,18.29328 -6.82021,7.56884 -18.40567,14.79201 -20.45977,12.75601 z m 0.36984,-31.65498 c 0,-2.15769 -6.29072,-7.18712 -10.59084,-8.46737 -5.80119,-1.72717 -10.14671,1.67513 -7.52019,5.88789 3.22941,5.17973 18.11103,7.29926 18.11103,2.57948 z"
   id="path3792"
   inkscape:connector-curvature="0" /></svg>