<?xml version="1.0" standalone="no"?>
<!DOCTYPE svg PUBLIC "-//W3C//DTD SVG 20010904//EN"
 "http://www.w3.org/TR/2001/REC-SVG-20010904/DTD/svg10.dtd">
<svg version="1.0" xmlns="http://www.w3.org/2000/svg"
 width="1280.000000pt" height="640.000000pt" viewBox="0 0 1280.000000 640.000000"
 preserveAspectRatio="xMidYMid meet">
<metadata>
Created by potrace 1.15, written by Peter Selinger 2001-2017
</metadata>
<g transform="translate(0.000000,640.000000) scale(0.100000,-0.100000)"
fill="#ffffff" stroke="none">
<path d="M5907 5542 c-66 -227 -86 -304 -147 -566 l-32 -139 -29 46 -29 47 21
87 c17 70 21 111 18 198 -2 61 -3 190 -3 287 0 98 0 177 -2 175 -1 -1 -16 -69
-34 -152 -36 -167 -48 -336 -33 -467 5 -43 8 -78 6 -78 -1 0 -10 11 -19 25
-13 20 -19 62 -24 173 -8 160 -7 157 -98 327 -24 44 -34 79 -39 130 -9 89 -21
56 -22 -60 -1 -103 13 -189 49 -295 15 -47 27 -86 26 -87 -1 -1 -37 30 -81 69
-74 64 -416 309 -423 303 -6 -5 199 -265 262 -332 60 -65 158 -132 258 -178
53 -24 108 -73 108 -96 0 -6 -19 3 -43 20 -79 54 -162 90 -268 116 -107 26
-269 55 -304 55 -23 -1 316 -149 420 -184 39 -13 104 -32 146 -41 l76 -18 36
-73 c20 -41 34 -74 31 -74 -3 0 -75 38 -160 85 -85 47 -184 97 -220 111 -67
25 -503 139 -509 132 -3 -3 252 -121 480 -221 50 -22 168 -68 264 -102 172
-62 199 -78 201 -121 0 -7 -55 13 -122 43 -175 78 -222 91 -412 119 -188 28
-274 55 -475 150 -63 30 -117 54 -120 54 -3 0 26 -23 64 -51 90 -65 196 -119
321 -162 54 -19 144 -58 199 -86 141 -73 337 -128 519 -147 l65 -7 21 -49 c12
-28 19 -52 17 -55 -3 -2 -106 29 -229 71 -253 85 -364 110 -558 126 -74 6
-202 18 -284 26 -163 15 -171 16 -165 10 2 -2 103 -30 224 -61 121 -31 267
-69 325 -85 164 -44 360 -86 540 -115 91 -15 170 -32 176 -39 13 -13 78 -175
73 -180 -2 -2 -107 43 -234 100 -126 57 -277 119 -335 138 -91 30 -767 173
-775 164 -5 -5 535 -202 800 -292 132 -45 315 -102 407 -126 151 -40 169 -47
177 -70 5 -14 21 -55 35 -92 l25 -67 -57 26 c-31 15 -133 64 -225 110 -285
141 -348 163 -667 233 -124 27 -276 61 -339 75 -62 14 -115 25 -117 23 -2 -2
40 -21 94 -42 53 -21 201 -81 327 -133 360 -148 502 -200 765 -282 l245 -77
34 -92 c18 -51 32 -95 29 -97 -2 -3 -155 58 -339 135 -323 134 -339 139 -479
164 -153 26 -216 48 -525 186 -200 89 -225 100 -225 96 0 -2 33 -23 73 -46 39
-24 104 -64 142 -90 95 -64 200 -120 324 -175 58 -25 118 -56 135 -69 62 -47
169 -107 259 -146 109 -46 226 -76 472 -119 99 -18 186 -35 194 -39 7 -4 26
-42 42 -85 28 -78 28 -78 6 -71 -12 3 -177 64 -367 134 -348 128 -388 140
-660 185 -52 9 -191 36 -309 61 -118 24 -216 43 -218 40 -2 -2 16 -8 41 -15
80 -20 359 -113 457 -152 53 -21 143 -68 200 -105 208 -137 330 -174 886 -269
29 -5 33 -11 57 -82 14 -42 25 -78 23 -79 -2 -2 -45 10 -97 26 -152 48 -338
97 -430 114 -47 8 -196 20 -331 26 -201 8 -259 14 -315 31 -98 30 -235 99
-344 173 -52 36 -97 63 -99 60 -16 -16 196 -190 307 -252 110 -61 186 -81 362
-98 198 -19 280 -40 385 -100 73 -42 155 -55 381 -61 l212 -6 37 -114 c20 -63
35 -118 33 -123 -3 -7 -71 17 -535 189 -255 94 -365 114 -793 145 -179 12
-327 21 -329 20 -5 -4 -3 -5 176 -48 184 -44 357 -100 598 -193 352 -137 388
-146 723 -184 103 -11 190 -24 193 -27 8 -10 51 -163 47 -168 -2 -2 -177 62
-388 141 -430 163 -428 162 -670 205 -96 17 -290 55 -429 85 -140 30 -260 55
-265 55 -6 -1 48 -19 119 -41 329 -100 534 -182 654 -262 236 -158 362 -202
821 -286 l204 -37 27 -92 c15 -51 25 -92 23 -92 -2 0 -65 28 -141 61 -208 93
-275 115 -464 153 -324 66 -339 67 -784 71 -259 3 -397 1 -375 -5 19 -5 87
-12 150 -15 209 -11 382 -58 646 -175 222 -99 429 -144 902 -200 113 -14 112
-13 127 -93 l7 -35 -89 19 c-48 11 -169 40 -268 64 -269 66 -334 75 -615 85
-140 5 -329 18 -420 30 -161 20 -447 64 -499 77 -14 3 -24 3 -21 0 9 -9 357
-113 425 -127 81 -16 238 -61 376 -109 317 -109 475 -134 924 -146 121 -4 221
-8 223 -10 3 -2 52 -175 52 -182 0 -1 -32 11 -71 27 -39 17 -113 43 -165 60
l-94 30 -288 0 c-304 0 -486 -12 -832 -55 -287 -36 -299 -43 -82 -44 172 -1
243 -8 477 -46 96 -16 678 -45 894 -45 185 0 184 0 203 -71 12 -46 13 -59 3
-59 -7 0 -86 18 -176 41 -161 40 -166 41 -309 37 -166 -5 -195 -13 -333 -97
-81 -49 -287 -199 -352 -256 l-30 -27 35 20 c19 11 105 61 190 111 212 125
240 135 370 135 80 0 126 -6 195 -25 80 -21 110 -24 268 -24 l178 0 10 -40 c6
-22 14 -56 20 -75 5 -19 9 -38 9 -41 0 -3 -35 0 -77 7 -121 20 -322 17 -425
-6 -113 -25 -136 -38 -200 -112 -70 -81 -87 -99 -123 -126 l-30 -23 42 21
c123 59 248 90 370 90 52 0 152 13 269 35 103 20 190 32 194 28 8 -9 98 -376
125 -508 9 -44 18 -81 20 -83 6 -6 75 105 75 121 0 12 -168 596 -186 646 -4
12 25 13 189 8 145 -5 225 -3 315 8 243 30 256 34 520 164 133 66 242 123 242
127 0 3 -8 3 -17 -1 -86 -33 -482 -149 -533 -156 -36 -5 -150 -9 -255 -9 -171
0 -204 -3 -335 -30 -80 -16 -146 -30 -147 -30 -4 0 -33 103 -33 117 0 7 134
80 298 162 163 82 332 172 374 200 44 29 161 129 271 233 106 101 262 246 347
322 233 209 238 217 55 72 -117 -92 -245 -163 -469 -260 -193 -83 -286 -146
-678 -462 l-227 -183 -21 72 c-12 40 -25 85 -31 101 -5 16 -9 30 -9 32 0 3
266 168 410 254 215 128 367 247 450 350 78 98 350 468 350 477 0 4 -100 -92
-222 -214 l-223 -221 -225 -109 c-256 -124 -320 -170 -472 -334 -50 -54 -94
-97 -97 -94 -8 8 -70 217 -71 236 0 17 150 90 385 189 121 51 272 128 340 173
28 18 124 98 215 177 91 80 239 206 329 280 224 184 246 205 111 109 -128 -92
-263 -159 -483 -243 -211 -80 -322 -147 -708 -432 -116 -85 -214 -152 -218
-149 -9 5 -36 94 -30 98 14 10 283 175 379 232 163 97 306 194 368 250 29 26
94 95 144 154 136 157 306 347 456 508 73 79 131 143 128 143 -4 0 -57 -48
-119 -108 -140 -134 -263 -216 -532 -355 -158 -82 -274 -177 -627 -518 l-227
-219 -25 83 c-14 46 -27 93 -28 105 -2 16 32 44 177 142 215 146 219 150 456
361 103 92 215 187 250 211 78 55 316 198 496 298 73 41 131 75 130 77 -11 11
-980 -468 -1077 -532 -100 -66 -315 -301 -417 -457 -14 -21 -28 -38 -32 -38
-6 0 -71 216 -71 237 0 6 64 58 143 114 505 364 588 451 824 857 162 278 295
532 279 532 -2 0 -57 -75 -122 -167 -90 -126 -158 -207 -279 -333 -88 -91
-217 -230 -286 -310 -114 -131 -571 -590 -588 -590 -7 0 -65 170 -59 174 21
16 497 400 568 459 118 99 247 239 308 335 26 40 118 182 206 315 87 133 170
260 184 282 l25 40 -24 -20 c-13 -10 -100 -94 -194 -185 -93 -91 -276 -268
-406 -393 -246 -236 -351 -349 -559 -602 -67 -82 -126 -151 -131 -153 -4 -2
-20 35 -35 81 l-27 84 205 244 c363 433 385 467 526 784 49 110 122 272 162
360 113 250 114 248 -10 70 -46 -66 -177 -251 -291 -411 -242 -339 -331 -476
-476 -732 -58 -103 -114 -200 -123 -215 l-17 -29 -45 123 -45 122 188 237
c273 345 271 342 458 779 67 156 124 288 127 293 3 4 3 8 0 8 -8 0 -485 -713
-553 -825 -33 -55 -100 -173 -148 -263 -48 -90 -91 -160 -96 -155 -9 9 -69
159 -69 172 0 5 84 134 186 288 103 153 195 298 206 323 11 25 42 115 70 200
28 85 81 241 119 347 38 105 69 195 69 200 0 4 -26 -48 -58 -117 -84 -181
-159 -312 -291 -511 -129 -193 -203 -331 -276 -514 -27 -66 -51 -123 -55 -127
-5 -7 -80 156 -80 174 0 4 58 116 130 250 110 207 134 260 161 358 17 63 58
209 90 324 33 115 57 211 55 213 -2 2 -13 -25 -26 -59 -45 -127 -105 -258
-224 -493 -113 -221 -132 -268 -213 -515 -4 -13 -63 99 -63 121 0 4 67 130
149 279 97 176 151 285 155 313 4 23 37 145 75 270 37 125 65 224 61 220 -22
-25 -265 -559 -346 -761 -52 -130 -99 -248 -105 -262 -11 -24 -12 -23 -45 42
l-33 66 105 229 c74 159 112 254 125 313 10 47 37 155 58 240 22 85 39 155 38
157 -7 6 -213 -536 -267 -702 -34 -104 -66 -193 -69 -198 -4 -4 -18 15 -31 42
l-23 50 56 123 c95 212 118 287 127 423 5 66 18 185 30 263 12 79 20 146 17
148 -2 2 -33 -98 -70 -224z"/>
<path d="M10575 5315 c-174 -45 -261 -87 -271 -133 -3 -15 -8 -33 -10 -41 -2
-7 3 -85 12 -174 19 -187 11 -287 -32 -375 -29 -59 -63 -82 -122 -82 -33 0
-45 6 -75 39 -37 41 -72 123 -88 205 -5 27 -9 116 -9 198 l0 149 -67 -37
c-179 -99 -297 -183 -320 -228 -50 -96 21 -390 158 -654 38 -75 69 -145 67
-156 -4 -27 -70 -60 -104 -52 -33 9 -55 48 -108 193 -46 125 -70 233 -81 358
-12 147 -16 165 -33 165 -41 -1 -107 -45 -212 -141 -138 -127 -170 -182 -170
-294 0 -40 9 -102 20 -143 30 -107 162 -410 237 -542 35 -63 67 -129 70 -146
10 -60 -49 -83 -113 -43 -93 57 -260 286 -359 491 l-62 130 -40 -41 c-72 -75
-163 -254 -183 -361 -13 -66 2 -137 41 -190 70 -96 386 -401 559 -540 36 -29
125 -93 198 -142 73 -50 150 -106 170 -125 l37 -35 -24 -19 c-29 -24 -59 -20
-147 21 -67 30 -414 235 -479 282 -69 50 -204 189 -280 290 l-74 97 -15 -47
c-28 -85 -66 -265 -72 -347 -12 -158 32 -220 206 -294 184 -78 693 -321 727
-347 41 -31 43 -65 7 -101 -23 -23 -31 -25 -83 -20 -77 7 -316 80 -419 128
-46 21 -138 71 -205 111 -67 40 -126 75 -131 77 -15 6 2 -245 23 -344 33 -157
91 -251 193 -313 77 -46 129 -50 253 -18 176 45 402 60 470 32 42 -18 67 -56
69 -104 1 -36 -1 -38 -65 -69 -136 -67 -295 -87 -458 -59 -52 9 -96 15 -98 12
-9 -9 189 -193 242 -225 102 -62 195 -54 375 31 194 91 420 258 583 431 l77
82 -34 -81 c-100 -237 -146 -434 -146 -628 0 -119 22 -334 36 -358 4 -6 68 19
103 39 1 1 -6 28 -17 60 -43 122 -53 307 -27 459 20 110 82 300 139 419 l43
90 8 -40 c21 -118 79 -335 110 -422 70 -186 131 -275 227 -322 93 -47 199 -42
325 15 l58 26 -72 23 c-120 37 -199 99 -247 192 -23 45 -20 64 14 111 23 32
37 42 58 42 45 0 114 -51 191 -143 40 -47 87 -92 106 -102 49 -23 134 -35 246
-35 82 0 102 3 147 26 66 33 129 103 180 201 38 73 89 219 80 228 -2 2 -28 -2
-58 -10 -196 -51 -403 -34 -561 45 -57 29 -109 79 -109 105 0 61 277 37 725
-61 144 -32 171 -35 275 -32 135 5 177 22 234 91 63 77 142 273 161 401 l7 44
-83 -28 c-128 -44 -231 -62 -385 -67 -171 -7 -228 0 -260 32 -32 32 -32 79 0
100 72 48 239 86 476 110 199 20 295 40 373 79 85 42 107 85 107 206 0 48 -5
113 -10 146 -17 96 -53 244 -59 244 -3 0 -60 -45 -126 -100 -127 -106 -169
-127 -231 -116 -40 8 -94 54 -94 81 0 57 96 135 213 174 86 29 148 67 210 129
81 79 102 128 101 232 -1 72 -8 105 -44 213 -23 70 -45 127 -49 127 -3 0 -23
-33 -43 -73 -49 -93 -107 -160 -182 -209 -77 -50 -119 -51 -164 -5 -19 20 -32
43 -32 59 0 45 78 104 185 138 60 19 79 35 109 90 58 106 45 176 -61 337 -34
51 -69 113 -79 138 l-17 46 -20 -33 c-165 -272 -278 -387 -383 -388 -33 0 -64
26 -64 53 0 31 74 99 185 173 187 123 305 247 305 320 0 46 -34 127 -86 205
-60 91 -71 99 -84 63 -34 -91 -71 -143 -175 -247 -288 -288 -482 -402 -598
-354 -47 20 -47 40 1 85 38 37 227 163 396 265 73 44 110 74 151 124 69 84
125 196 125 250 0 57 -28 87 -135 147 -48 26 -105 64 -127 84 -40 36 -78 98
-78 127 0 13 -5 14 -22 8 -40 -14 -130 -9 -235 15 -59 13 -136 22 -183 22 -74
0 -83 -2 -104 -25 -40 -44 -51 -105 -50 -285 1 -91 9 -220 18 -287 23 -171 21
-243 -5 -277 -24 -30 -59 -34 -82 -8 -30 33 -68 130 -92 239 -53 230 -25 467
82 711 7 15 -203 17 -259 2 -34 -10 -39 -16 -53 -63 -9 -29 -21 -107 -27 -175
-13 -138 -3 -274 32 -417 26 -103 25 -146 -1 -179 -59 -75 -123 25 -178 284
-47 222 -52 360 -16 509 9 35 14 65 13 66 -2 2 -43 -7 -93 -20z m-237 -962
c54 -60 152 -294 152 -365 0 -88 -87 -134 -176 -92 -67 32 -130 129 -160 246
-27 105 1 190 76 229 50 27 69 24 108 -18z m556 -25 c40 -41 115 -210 123
-276 5 -42 2 -53 -16 -71 -11 -11 -32 -21 -45 -21 -113 0 -246 283 -175 374
29 37 72 35 113 -6z m-1029 -428 c41 -25 73 -65 218 -268 63 -89 123 -183 133
-208 16 -42 16 -49 3 -73 -18 -33 -63 -55 -95 -47 -35 9 -84 56 -164 155 -115
146 -190 297 -190 386 0 72 35 92 95 55z m2037 -7 c51 -46 -8 -107 -252 -264
-250 -160 -282 -172 -336 -125 -21 18 -28 32 -28 61 0 33 7 44 52 86 65 60
190 148 262 184 135 69 263 94 302 58z m-1294 -79 c28 -20 139 -206 153 -258
9 -33 8 -43 -8 -64 -44 -59 -125 -49 -205 26 -80 74 -123 182 -99 244 21 57
111 86 159 52z m1645 -332 c54 -47 -41 -152 -175 -193 -71 -22 -106 -20 -132
7 -25 25 -19 42 33 94 52 52 127 95 188 108 42 10 60 6 86 -16z m-2697 -161
c153 -113 309 -331 290 -406 -14 -57 -71 -20 -233 153 -66 70 -127 138 -136
152 -31 45 -17 130 22 130 10 0 36 -13 57 -29z m2323 -27 c44 -55 18 -92 -117
-168 -161 -91 -349 -139 -410 -107 -22 12 -29 46 -14 67 19 28 93 71 233 136
244 112 271 119 308 72z m285 -430 c47 -46 5 -87 -181 -175 -267 -128 -544
-175 -568 -98 -14 44 49 80 240 140 39 12 113 40 165 62 197 84 309 107 344
71z m-2010 -118 c154 -111 246 -268 142 -242 -27 7 -190 129 -253 189 -33 31
-43 49 -43 72 0 68 40 62 154 -19z m1065 -77 c20 -7 33 -20 37 -36 15 -57 -90
-109 -202 -100 -75 6 -114 27 -114 62 0 57 186 106 279 74z m466 -421 c33 -15
44 -56 21 -74 -51 -37 -319 -49 -384 -17 -46 23 -53 49 -16 63 31 12 225 37
301 39 29 0 64 -4 78 -11z m-1659 -124 c52 -26 63 -47 40 -73 -42 -46 -224
-14 -246 43 -6 16 -3 26 13 40 18 15 34 17 88 14 37 -3 84 -14 105 -24z m803
-100 c47 -19 63 -51 35 -71 -56 -41 -216 20 -197 75 7 18 114 15 162 -4z"/>
<path d="M2588 5310 c-63 -11 -152 -37 -218 -62 -111 -43 -292 -140 -334 -178
-60 -56 -104 -144 -127 -253 -18 -90 -26 -267 -13 -315 6 -21 11 -17 49 40
113 169 250 266 505 361 154 57 177 53 30 -5 -172 -68 -249 -111 -332 -188
-132 -120 -218 -250 -218 -327 0 -55 12 -60 104 -44 155 26 225 62 431 222 50
38 120 85 156 104 67 35 67 35 195 34 71 -1 156 -5 189 -9 51 -6 41 -7 -66 -9
-231 -2 -294 -27 -508 -196 -71 -57 -157 -122 -190 -145 -74 -50 -201 -110
-235 -110 -14 0 -26 -4 -26 -8 0 -14 79 -192 122 -275 31 -58 47 -79 66 -84
28 -7 126 5 302 38 101 18 136 20 290 14 286 -11 337 -22 110 -24 -107 0 -251
-8 -320 -16 -111 -13 -275 -48 -337 -72 -21 -8 -17 -18 121 -333 l142 -325
245 0 c223 0 252 -2 337 -23 51 -13 91 -26 89 -28 -2 -3 -48 1 -102 7 -175 21
-480 -2 -517 -39 -8 -8 397 -843 414 -853 6 -4 29 -10 52 -13 79 -12 231 -65
291 -101 70 -42 149 -102 208 -157 l42 -40 -65 46 c-100 71 -211 137 -255 153
-22 8 -82 17 -134 20 -79 5 -93 4 -89 -8 16 -40 313 -718 325 -744 9 -16 11
-25 5 -20 -5 6 -146 258 -312 560 -167 303 -311 563 -320 579 l-18 29 -57 -89
c-182 -282 -277 -457 -293 -541 -32 -165 -32 -164 -27 -56 2 56 11 129 20 163
30 116 129 316 261 526 35 56 64 108 64 114 0 14 -380 740 -387 740 -7 0 -164
-167 -243 -260 -85 -98 -217 -275 -280 -375 -25 -38 -113 -205 -197 -370 -84
-165 -152 -297 -153 -294 -1 25 184 478 238 583 117 225 294 480 493 710 l98
114 -81 168 c-44 93 -97 206 -119 252 l-38 83 -49 -25 c-78 -39 -246 -156
-373 -258 -324 -259 -571 -512 -708 -723 -53 -81 -25 -19 41 91 181 304 337
465 763 784 224 168 265 206 265 247 0 26 -76 199 -101 229 -7 9 -42 -2 -127
-38 -64 -27 -234 -97 -376 -154 -143 -58 -282 -117 -310 -131 -108 -55 -408
-251 -513 -335 -7 -6 -13 -8 -13 -5 0 9 225 193 345 282 202 150 358 231 743
386 114 46 177 76 169 81 -30 16 -188 57 -286 73 -125 21 -262 16 -390 -15
-46 -11 -86 -18 -88 -16 -7 7 205 73 278 87 84 16 251 5 374 -25 113 -28 112
-25 -33 61 -186 110 -362 183 -488 203 -80 13 -228 -2 -289 -29 -57 -25 -145
-108 -245 -231 -110 -136 -393 -517 -430 -579 -77 -132 -118 -280 -127 -461
-15 -323 83 -683 303 -1120 81 -161 251 -450 265 -450 4 0 10 12 13 28 20 82
93 289 131 367 47 98 98 165 263 350 59 66 157 180 217 254 177 217 296 311
390 311 55 0 79 -19 79 -62 0 -96 -130 -271 -466 -626 -242 -254 -361 -478
-389 -727 -30 -272 108 -470 461 -663 69 -37 291 -132 310 -132 5 0 -5 39 -21
87 -40 117 -63 253 -54 326 11 101 69 246 245 612 99 205 258 407 344 435 37
12 41 11 58 -10 10 -12 18 -28 18 -35 0 -42 -49 -187 -123 -360 -97 -229 -112
-272 -131 -375 -33 -179 -28 -355 15 -512 27 -99 59 -150 116 -186 112 -71
269 -89 607 -68 272 17 320 14 591 -41 215 -43 305 -48 335 -18 11 12 53 113
93 225 76 214 106 276 250 526 101 175 157 306 164 384 4 44 0 68 -21 119 -14
36 -34 73 -43 84 -25 27 -141 84 -323 157 -188 75 -277 121 -332 169 -43 38
-53 76 -28 106 20 24 113 18 272 -16 167 -36 249 -71 418 -183 89 -58 116 -72
123 -61 28 51 103 334 122 465 18 115 11 161 -31 221 -80 115 -363 268 -694
375 -331 106 -383 129 -415 178 -54 83 111 129 380 106 187 -16 358 -61 660
-174 l67 -26 -7 48 c-17 122 -69 351 -96 430 -75 217 -219 464 -397 681 -115
141 -336 361 -442 439 -94 71 -253 152 -345 177 -69 19 -295 28 -367 15z"/>
</g>
</svg>
