<svg height="512pt" viewBox="0 -39 512.00024 512" width="512pt" xmlns="http://www.w3.org/2000/svg"><path d="m40.78125 11.21875c-4.980469 1.195312-9.367188 4.183594-12.214844 8.445312-46.796875 69.964844-1.128906 160.613282-1.128906 160.613282l135.585938-139.539063c-48.929688-41.679687-102.601563-34.214843-122.242188-29.519531zm0 0" fill="#77889a"/><path d="m136.058594 72.390625c-22.21875-18.929687-45.859375-23.378906-63.167969-23.378906-5.355469 0-10.101563.425781-14.015625.980469-24.957031 48.015624 5.445312 111.074218 5.78125 111.753906l-.085938-.171875zm0 0" fill="#ffbfc5"/><path d="m471.21875 11.21875c4.980469 1.195312 9.367188 4.183594 12.214844 8.445312 46.796875 69.964844 1.128906 160.613282 1.128906 160.613282l-135.585938-139.539063c48.929688-41.679687 102.601563-34.214843 122.242188-29.519531zm0 0" fill="#77889a"/><path d="m375.9375 72.390625c22.222656-18.929687 45.863281-23.378906 63.167969-23.378906 5.355469 0 10.105469.425781 14.019531.980469 24.957031 48.015624-5.445312 111.074218-5.78125 111.753906l.085938-.171875zm0 0" fill="#ffbfc5"/><path d="m490.398438 224.945312c0-110.796874-104.945313-200.617187-234.398438-200.617187s-234.394531 89.820313-234.394531 200.617187c0 110.792969 104.941406 200.613282 234.394531 200.613282s234.398438-89.820313 234.398438-200.613282zm0 0" fill="#a5b0bc"/><path d="m51.605469 224.945312c0-106.484374 96.933593-193.574218 219.394531-200.195312-4.960938-.269531-9.960938-.421875-15-.421875-129.453125 0-234.394531 89.820313-234.394531 200.617187 0 110.792969 104.941406 200.613282 234.394531 200.613282 5.039062 0 10.039062-.152344 15-.421875-122.460938-6.621094-219.394531-93.710938-219.394531-200.191407zm0 0" fill="#77889a"/><path d="m395.726562 115.457031c-20.621093-17.894531-63.894531-18.566406-85.578124-2.214843 0 0-22.355469 16.859374-22.367188 16.867187-18.570312 14.003906-45.015625 13.984375-63.5625 0 0 0-22.351562-16.855469-22.367188-16.867187-21.859374-16.484376-64.917968-15.710938-85.578124 2.214843-32.886719 28.535157-53.09375 67.101563-53.09375 109.488281 0 87.691407 86.5 159.035157 192.820312 159.035157s192.816406-71.34375 192.816406-159.035157c0-42.386718-20.207031-80.953124-53.089844-109.488281zm0 0" fill="#e8e8e8"/><g fill="#77889a"><path d="m368.304688 148.5625c-6.832032-3.132812-14.6875-3.132812-21.519532 0-24.804687 11.367188-41.214844 31.0625-41.214844 53.464844s16.40625 42.097656 41.214844 53.460937c6.832032 3.132813 14.6875 3.132813 21.519532 0 24.804687-11.363281 41.210937-31.058593 41.210937-53.460937s-16.40625-42.097656-41.210937-53.464844zm0 0"/><path d="m143.695312 148.5625c6.832032-3.132812 14.6875-3.132812 21.519532 0 24.804687 11.367188 41.214844 31.0625 41.214844 53.464844s-16.40625 42.097656-41.214844 53.460937c-6.832032 3.132813-14.6875 3.132813-21.519532 0-24.804687-11.363281-41.210937-31.058593-41.210937-53.460937s16.40625-42.097656 41.210937-53.464844zm0 0"/><path d="m281.570312 232.929688c9.644532 6.296874 16.902344 16.113281 19.8125 27.921874l7.183594 29.0625c5.332032 21.566407-10.988281 42.410157-33.199218 42.410157h-38.730469c-22.214844 0-38.535157-20.84375-33.203125-42.410157l7.183594-29.0625c2.910156-11.808593 10.167968-21.621093 19.8125-27.921874zm0 0"/></g><path d="m281.570312 232.929688c-3.273437 11.019531-13.480468 19.054687-25.570312 19.054687s-22.296875-8.035156-25.570312-19.054687c7.398437-4.84375 16.222656-7.617188 25.570312-7.617188 9.34375 0 18.167969 2.773438 25.570312 7.617188zm0 0" fill="#ff8997"/><path d="m111.359375 109.785156c-35.90625 31.152344-55.679687 72.050782-55.679687 115.152344 0 91.828125 89.863281 166.535156 200.320312 166.535156 50.1875 0 98.21875-15.539062 135.253906-43.757812 37.199219-28.339844 60.039063-66.855469 64.316406-108.449219.425782-4.121094-2.570312-7.804687-6.691406-8.230469-4.125-.421875-7.804687 2.574219-8.230468 6.695313-3.851563 37.425781-24.621094 72.25-58.484376 98.050781-34.4375 26.242188-79.246093 40.691406-126.164062 40.691406-102.183594 0-185.316406-67.976562-185.316406-151.535156 0-38.6875 17.9375-75.558594 50.507812-103.824219 17.773438-15.417969 56.910156-16.390625 76.144532-1.890625.003906.003906.007812.007813.015624.011719.507813.382813 22.351563 16.855469 22.351563 16.855469 21.371094 16.117187 51.222656 16.113281 72.542969.039062.035156-.027344.039062-.027344 22.417968-16.90625 19.234376-14.5 58.375-13.53125 76.144532 1.890625 27.847656 24.164063 45.4375 55.53125 49.539062 88.328125.511719 4.109375 4.257813 7.023438 8.371094 6.511719 4.109375-.515625 7.027344-4.261719 6.511719-8.375-4.558594-36.472656-23.945313-71.203125-54.589844-97.792969-23.082031-20.03125-70.144531-21.289062-95.007813-2.539062 0 0-22.148437 16.703125-22.367187 16.867187-15.800781 11.910157-38.730469 11.914063-54.527344 0-19.132812-14.425781-21.921875-16.53125-22.371093-16.867187-24.863282-18.75-71.925782-17.492188-95.007813 2.539062zm0 0"/><path d="m357.542969 265.273438c4.78125 0 9.5625-.992188 13.886719-2.972657 28.542968-13.082031 45.585937-35.617187 45.585937-60.28125 0-24.667969-17.042969-47.203125-45.585937-60.285156-4.386719-2.007813-9.058594-3.03125-13.886719-3.03125-4.824219 0-9.496094 1.023437-13.882813 3.03125-28.546875 13.082031-45.589844 35.617187-45.589844 60.285156 0 24.664063 17.042969 47.199219 45.589844 60.28125 4.320313 1.980469 9.101563 2.972657 13.882813 2.972657zm-44.46875-63.253907c0-18.640625 13.769531-36.078125 36.835937-46.648437 2.410156-1.105469 4.980469-1.664063 7.632813-1.664063 2.65625 0 5.222656.558594 7.636719 1.664063 23.066406 10.570312 36.835937 28.007812 36.835937 46.648437 0 18.636719-13.769531 36.074219-36.835937 46.644531-4.828126 2.210938-10.445313 2.210938-15.273438 0-23.0625-10.570312-36.832031-28.007812-36.832031-46.644531zm0 0"/><path d="m357.542969 216.277344c4.144531 0 7.503906-3.355469 7.503906-7.5v-15.597656c0-4.140626-3.359375-7.5-7.503906-7.5-4.140625 0-7.5 3.359374-7.5 7.5v15.597656c0 4.144531 3.359375 7.5 7.5 7.5zm0 0"/><path d="m168.339844 141.734375c-4.386719-2.007813-9.058594-3.03125-13.882813-3.03125-4.828125 0-9.5 1.023437-13.886719 3.03125-28.546874 13.082031-45.585937 35.617187-45.585937 60.285156 0 24.664063 17.042969 47.199219 45.585937 60.28125 4.390626 2.011719 9.0625 3.03125 13.886719 3.03125s9.496094-1.019531 13.882813-3.03125c28.546875-13.082031 45.589844-35.617187 45.589844-60.28125 0-24.667969-17.042969-47.203125-45.589844-60.285156zm-6.25 106.929687c-4.824219 2.210938-10.441406 2.210938-15.269532 0-23.066406-10.570312-36.835937-28.007812-36.835937-46.644531 0-18.640625 13.769531-36.078125 36.835937-46.644531 2.414063-1.105469 4.980469-1.667969 7.636719-1.667969 2.652344 0 5.222657.5625 7.632813 1.667969 23.066406 10.566406 36.835937 28.003906 36.835937 46.644531 0 18.636719-13.769531 36.074219-36.835937 46.644531zm0 0"/><path d="m154.457031 185.679688c-4.144531 0-7.5 3.359374-7.5 7.5v15.597656c0 4.144531 3.355469 7.5 7.5 7.5 4.140625 0 7.5-3.355469 7.5-7.5v-15.597656c0-4.140626-3.359375-7.5-7.5-7.5zm0 0"/><path d="m243.515625 289.917969c4.480469 0 8.785156-1.199219 12.484375-3.398438 3.699219 2.199219 8.003906 3.398438 12.484375 3.398438 7.03125 0 13.640625-2.945313 18.132813-8.085938 2.726562-3.121093 2.40625-7.859375-.710938-10.585937-3.121094-2.726563-7.859375-2.40625-10.585938.710937-1.644531 1.882813-4.132812 2.960938-6.835937 2.960938-2.699219 0-5.195313-1.078125-6.835937-2.960938-1.410157-1.613281-3.503907-2.558593-5.648438-2.554687-2.136719.003906-4.238281.941406-5.648438 2.554687-1.644531 1.882813-4.132812 2.960938-6.835937 2.960938s-5.195313-1.078125-6.835937-2.960938c-2.726563-3.117187-7.464844-3.4375-10.585938-.710937-3.117188 2.726562-3.4375 7.464844-.710938 10.585937 4.492188 5.140625 11.101563 8.085938 18.132813 8.085938zm0 0"/><path d="m472.960938 3.917969c-43.316407-10.363281-90.382813.101562-125.414063 28.265625-28.675781-10.074219-59.644531-15.363282-91.546875-15.363282s-62.871094 5.285157-91.550781 15.363282c-34.855469-28.023438-81.886719-38.679688-125.410157-28.265625-6.886718 1.648437-12.820312 5.753906-16.707031 11.566406-20.230469 30.25-26.890625 68.984375-19.261719 112.023437 4.65625 26.285157 13.195313 46.488282 16.410157 53.492188-3.542969 14.28125-5.378907 28.984375-5.378907 43.9375 0 42.496094 14.792969 83.371094 42.777344 118.207031 2.59375 3.230469 7.3125 3.746094 10.542969 1.152344s3.746094-7.316406 1.152344-10.546875c-25.820313-32.144531-39.46875-69.769531-39.46875-108.8125 0-30.886719 8.992187-61.550781 24.925781-87.949219 37.65625-62.386719 114.054688-105.164062 201.96875-105.164062s164.3125 42.777343 201.964844 105.160156c.042968.070313.085937.140625.128906.214844 15.898438 26.414062 24.800781 56.867187 24.800781 87.738281 0 106.484375-101.785156 193.113281-226.894531 193.113281-63.769531 0-124.980469-23.066406-167.929688-63.289062-3.023437-2.832031-7.773437-2.675781-10.601562.347656-2.832031 3.023437-2.675781 7.769531.347656 10.601563 22.460938 21.03125 49.148438 37.597656 79.328125 49.230468 31.164063 12.019532 64.425781 18.109375 98.855469 18.109375 64.394531 0 124.992188-21.507812 170.621094-60.558593 45.960937-39.339844 71.277344-91.742188 71.277344-147.554688 0-14.953125-1.835938-29.65625-5.378907-43.9375 3.214844-7.003906 11.753907-27.207031 16.414063-53.492188 7.628906-43.039062.964844-81.773437-19.265625-112.023437-3.886719-5.8125-9.820313-9.917969-16.707031-11.566406zm-409.121094 53.027343c2.988281-.292968 6.023437-.441406 9.050781-.441406 11.222656 0 21.957031 1.964844 32.046875 5.851563-6.777344 4.675781-13.3125 9.683593-19.558594 15.027343-10.496094 8.984376-19.902344 18.65625-28.1875 28.886719-2.214844-22.460937 1.824219-38.597656 6.648438-49.324219zm-29.039063-33.121093c1.78125-2.660157 4.527344-4.550781 7.726563-5.316407 6.714844-1.605468 17.5-3.519531 30.75-3.519531 19.46875 0 47.339844 4.324219 74.746094 23.59375-9.644532 4.148438-18.976563 8.871094-27.949219 14.132813-14.566407-7.433594-30.410157-11.210938-47.179688-11.210938-5.0625 0-10.132812.355469-15.070312 1.054688-2.398438.339844-4.484375 1.816406-5.601563 3.96875-10.832031 20.835937-13.421875 47.40625-7.585937 76.988281-7.242188 11.136719-13.253907 22.804687-17.96875 34.878906-10.101563-29.15625-23.464844-87.328125 8.132812-134.570312zm420.007813 82.445312c-8.285156-10.230469-17.691406-19.902343-28.1875-28.886719-6.246094-5.347656-12.78125-10.351562-19.5625-15.03125 10.09375-3.882812 20.824218-5.847656 32.046875-5.847656 3.03125 0 6.0625.148438 9.054687.4375 4.828125 10.730469 8.863282 26.867188 6.648438 49.328125zm39.421875 18.210938c-2.320313 13.257812-5.757813 24.972656-8.882813 33.949219-4.71875-12.089844-10.734375-23.769532-17.984375-34.914063 5.835938-29.585937 3.246094-56.152344-7.585937-76.992187-1.117188-2.148438-3.203125-3.625-5.601563-3.964844-4.9375-.703125-10.007812-1.058594-15.066406-1.058594-16.769531 0-32.617187 3.777344-47.183594 11.214844-8.96875-5.261719-18.300781-9.988282-27.949219-14.132813 30.320313-21.320312 69.457032-28.695312 105.496094-20.074219 3.203125.765626 5.945313 2.652344 7.726563 5.316407 18.226562 27.253906 23.957031 61.117187 17.03125 100.65625zm0 0"/><path d="m236.636719 339.816406h38.730469c26.671874 0 46.886718-25.804687 40.480468-51.710937l-7.179687-29.058594c-3.296875-13.367187-11.460938-24.875-23.003907-32.410156-8.835937-5.78125-19.09375-8.832031-29.664062-8.832031s-20.832031 3.054687-29.679688 8.84375c-11.527343 7.53125-19.691406 19.039062-22.980468 32.394531 0 0-7.179688 29.039062-7.183594 29.0625-6.40625 25.910156 13.859375 51.710937 40.480469 51.710937zm35.175781-103.6875c-.027344.035156-.046875.074219-.074219.109375-3.546875 5.066407-9.542969 8.238281-15.738281 8.238281-5.570312 0-13.195312-2.992187-15.777344-8.347656 4.691406-2.417968 10.550782-3.324218 15.777344-3.324218 5.484375 0 10.855469 1.136718 15.8125 3.324218zm-61.09375 55.574219 7.183594-29.066406c1.6875-6.839844 5.136718-13.007813 9.964844-17.957031.023437.03125.046874.0625.070312.097656 6.296875 8.976562 17.015625 14.699218 28.0625 14.699218 11.042969 0 21.835938-5.753906 28.136719-14.796874 4.828125 4.953124 8.277343 11.121093 9.964843 17.960937 0 0 7.175782 29.039063 7.183594 29.066406 4.105469 16.601563-8.867187 33.105469-25.917968 33.105469 0 0-38.699219 0-38.730469 0-17.082031 0-30.019531-16.519531-25.917969-33.109375zm0 0"/></svg>