<?xml version="1.0" encoding="iso-8859-1"?>
<!-- Generator: Adobe Illustrator 19.0.0, SVG Export Plug-In . SVG Version: 6.00 Build 0)  -->
<svg version="1.1" id="Layer_1" xmlns="http://www.w3.org/2000/svg" xmlns:xlink="http://www.w3.org/1999/xlink" x="0px" y="0px"
	 viewBox="0 0 480 480" style="enable-background:new 0 0 480 480;" xml:space="preserve">
<g>
	<g>
		<g>
			<path d="M399.293,75.229c-12.254,0-24.008,2.656-34.937,7.892c-27.259-40.902-73.796-67.907-126.528-67.907
				c-52.079,0-98.116,26.35-125.5,66.416c-9.978-4.244-20.596-6.4-31.622-6.4C36.205,75.229,0,111.448,0,155.966
				c0,19.489,7.044,38.311,19.833,52.999c10.196,11.709,23.483,20.173,38.18,24.488c-3.789,14.825-5.725,30.163-5.725,45.763
				c0,102.324,83.233,185.57,185.54,185.57c102.324,0,185.57-83.246,185.57-185.57c0-15.224-1.85-30.195-5.459-44.686
				c16.3-3.874,31.102-12.791,42.226-25.566C472.956,194.277,480,175.455,480,155.966C480,111.448,443.795,75.229,399.293,75.229z
				 M20,155.966c0-33.49,27.233-60.737,60.707-60.737c7.409,0,14.559,1.304,21.336,3.84c-10.317,20.496-16.138,43.628-16.138,68.097
				c0,1.927,0.096,3.759,0.212,5.534c-9.201,13.063-16.589,27.043-22.09,41.671C38.448,207.022,20,183.183,20,155.966z
				 M237.829,444.786c-91.279,0-165.54-74.274-165.54-165.57c0-35.273,11.104-69.053,32.114-97.689
				c1.388-1.893,2.067-4.213,1.917-6.556c-0.042-0.651-0.087-1.303-0.133-1.956c-0.145-2.056-0.281-3.997-0.281-5.849
				c0-72.759,59.181-131.953,131.923-131.953c72.759,0,131.953,59.194,131.953,131.953c0,1.857-0.137,3.803-0.281,5.863
				c-0.045,0.648-0.09,1.295-0.132,1.942c-0.15,2.343,0.528,4.663,1.917,6.556c21.009,28.638,32.113,62.418,32.113,97.689
				C403.398,370.512,329.124,444.786,237.829,444.786z M412.024,215.353c-5.537-14.984-13.048-29.298-22.454-42.653
				c0.116-1.775,0.211-3.607,0.211-5.534c0-23.884-5.546-46.495-15.407-66.623c7.821-3.512,16.191-5.314,24.919-5.314
				c33.474,0,60.707,27.247,60.707,60.737C460,184.563,439.631,209.424,412.024,215.353z"/>
			<path d="M413.848,126.38c-4.523,0-8.815,0.976-12.758,2.9c-4.963,2.423-7.022,8.41-4.6,13.373
				c2.422,4.963,8.407,7.024,13.373,4.6c1.186-0.579,2.527-0.873,3.984-0.873c5.112,0,9.271,4.179,9.271,9.316
				c0,4.567-3.395,8.516-7.896,9.185c-5.463,0.812-9.233,5.899-8.422,11.362c0.738,4.964,5.006,8.531,9.879,8.531
				c0.489,0,0.984-0.036,1.482-0.11c14.227-2.115,24.957-14.568,24.957-28.968C443.119,139.531,429.988,126.38,413.848,126.38z"/>
			<path d="M78.909,129.281c-3.942-1.925-8.234-2.9-12.757-2.9c-16.14,0-29.271,13.151-29.271,29.316
				c0,14.4,10.729,26.854,24.956,28.968c0.498,0.074,0.993,0.11,1.482,0.11c4.873,0,9.142-3.567,9.879-8.532
				c0.812-5.463-2.959-10.549-8.422-11.361c-4.501-0.669-7.896-4.618-7.896-9.185c0-5.137,4.159-9.316,9.271-9.316
				c1.456,0,2.796,0.294,3.983,0.873c4.961,2.422,10.95,0.363,13.373-4.6C85.932,137.691,83.873,131.703,78.909,129.281z"/>
			<path d="M192.098,220.112c11.17,0,20.257-9.081,20.257-20.242c0-11.195-9.087-20.302-20.257-20.302
				c-11.178,0-20.272,9.107-20.272,20.302C171.826,211.031,180.92,220.112,192.098,220.112z"/>
			<path d="M281.732,220.112c11.178,0,20.272-9.081,20.272-20.242c0-11.195-9.094-20.302-20.272-20.302
				c-11.17,0-20.258,9.107-20.258,20.302C261.475,211.031,270.562,220.112,281.732,220.112z"/>
			<path d="M333.325,299.121c-4.48-3.232-10.73-2.216-13.959,2.264c-23.134,32.088-48.606,48.621-75.709,49.14
				c-0.447,0.009-0.888,0.013-1.333,0.013c-48.105,0-87.52-49.609-88.108-50.358c-3.391-4.358-9.671-5.144-14.028-1.756
				c-4.361,3.388-5.15,9.67-1.761,14.032c1.858,2.393,45.8,58.082,103.88,58.082c0.54,0,1.084-0.004,1.626-0.014
				c33.777-0.606,64.614-19.933,91.656-57.442C338.819,308.601,337.806,302.351,333.325,299.121z"/>
			<path d="M205.484,263.889c-0.008,0.163-0.012,0.326-0.012,0.488c0,3.124,1.332,10.406,13.646,10.699
				c0.433,0.017,0.853,0.025,1.256,0.025c10.833,0,12.654-6.715,12.94-9.556l0.005,0.001c0.023-0.237,0.036-0.475,0.041-0.712
				c0.002-0.087,0.003-0.164,0.003-0.231h-0.001c-0.005-2.423-0.9-4.828-2.498-6.658c-2.694-3.087-6.346-3.847-10.999-4.038
				c-0.068-0.002-0.136-0.005-0.204-0.006C207.298,253.633,205.634,260.82,205.484,263.889z"/>
			<path d="M253.272,276.038c0.269,0.005,0.532,0.008,0.791,0.008c12.43,0,13.396-8.025,13.396-10.485h-0.001
				c-0.005-2.41-0.888-4.797-2.473-6.625c-2.696-3.11-6.367-3.876-11.051-4.07c-0.069-0.003-0.139-0.005-0.208-0.007
				c-0.258-0.005-0.511-0.008-0.759-0.008c-11.642,0-13.24,6.99-13.387,9.996c-0.008,0.163-0.012,0.326-0.012,0.489
				C239.568,268.469,240.903,275.783,253.272,276.038z"/>
			<path d="M354.533,184.716c0-52.255-35.404-98.357-86.115-112.168c-0.477-0.136-0.959-0.229-1.445-0.293
				c-0.093-0.012-0.184-0.024-0.275-0.034c-0.432-0.044-0.863-0.067-1.295-0.056c-0.053,0.001-0.104,0.008-0.157,0.011
				c-0.383,0.016-0.765,0.058-1.144,0.118c-0.101,0.016-0.201,0.031-0.301,0.05c-0.419,0.079-0.834,0.18-1.241,0.313
				c-0.036,0.012-0.071,0.028-0.108,0.04c-0.38,0.129-0.751,0.284-1.115,0.459c-0.076,0.037-0.153,0.073-0.229,0.112
				c-0.392,0.2-0.774,0.421-1.141,0.675c-0.011,0.008-0.022,0.018-0.033,0.025c-0.342,0.24-0.667,0.509-0.981,0.795
				c-0.077,0.069-0.152,0.139-0.228,0.211c-0.316,0.307-0.622,0.628-0.903,0.984l-24.545,31.05l-22.188-28.809
				c-0.19-0.247-0.393-0.479-0.602-0.705c-0.069-0.074-0.141-0.145-0.212-0.216c-0.143-0.145-0.289-0.286-0.44-0.421
				c-0.088-0.079-0.177-0.157-0.267-0.232c-0.148-0.123-0.298-0.239-0.452-0.353c-0.09-0.067-0.178-0.136-0.27-0.2
				c-0.23-0.159-0.466-0.309-0.708-0.448c-0.093-0.053-0.189-0.099-0.283-0.148c-0.167-0.088-0.334-0.175-0.504-0.254
				c-0.111-0.051-0.224-0.098-0.337-0.145c-0.165-0.069-0.331-0.133-0.499-0.193c-0.108-0.039-0.216-0.077-0.326-0.111
				c-0.2-0.063-0.402-0.119-0.606-0.169c-0.078-0.02-0.154-0.042-0.232-0.06c-0.285-0.064-0.573-0.116-0.864-0.154
				c-0.058-0.008-0.116-0.011-0.173-0.017c-0.235-0.027-0.47-0.047-0.708-0.058c-0.095-0.004-0.19-0.004-0.286-0.006
				c-0.201-0.003-0.402,0-0.604,0.009c-0.105,0.005-0.21,0.01-0.314,0.018c-0.199,0.015-0.397,0.039-0.596,0.066
				c-0.1,0.014-0.201,0.024-0.301,0.04c-0.279,0.047-0.558,0.104-0.835,0.176c-0.102,0.026-0.203,0.062-0.304,0.092
				c-0.153,0.044-0.308,0.085-0.46,0.138c-0.043,0.015-0.084,0.032-0.127,0.046c-0.052,0.019-0.103,0.038-0.155,0.057
				c-46.945,16.325-78.467,60.396-78.467,109.766c0,1.203,0.052,2.371,0.121,3.479c-16.608,23.887-25.367,51.721-25.367,80.735
				c0,37.905,14.993,76.689,41.134,106.406c27.552,31.322,63.346,48.572,100.787,48.572c37.454,0,73.256-17.249,100.813-48.571
				c26.144-29.716,41.138-68.5,41.138-106.407c0-29.013-8.76-56.846-25.367-80.735C354.481,187.087,354.533,185.919,354.533,184.716
				z M359.779,268.929c0,70.643-58.126,134.978-121.951,134.978c-63.809,0-121.92-64.335-121.92-134.978
				c0-25.971,8.184-50.85,23.668-71.948c1.404-1.913,2.082-4.263,1.913-6.63l-0.107-1.421c-0.117-1.503-0.227-2.923-0.227-4.214
				c0-38.578,23.289-73.261,58.639-88.403l25.456,33.052c1.41,1.83,3.393,3.097,5.597,3.624c0.734,0.176,1.493,0.269,2.263,0.274
				c0.021,0,0.042,0,0.063,0c0.275,0,0.546-0.024,0.818-0.046c0.094-0.008,0.19-0.006,0.283-0.017
				c0.296-0.033,0.587-0.088,0.877-0.146c0.082-0.017,0.166-0.024,0.248-0.042c0.205-0.047,0.402-0.113,0.603-0.172
				c0.164-0.048,0.331-0.087,0.491-0.143c0.066-0.023,0.128-0.055,0.194-0.08c1.686-0.631,3.187-1.703,4.331-3.151l28.255-35.742
				c38.735,13.333,65.262,49.867,65.262,90.993c0,1.286-0.109,2.701-0.226,4.198l-0.108,1.44c-0.169,2.366,0.509,4.715,1.912,6.627
				C351.596,218.08,359.779,242.96,359.779,268.929z"/>
		</g>
	</g>
</g>
<g>
</g>
<g>
</g>
<g>
</g>
<g>
</g>
<g>
</g>
<g>
</g>
<g>
</g>
<g>
</g>
<g>
</g>
<g>
</g>
<g>
</g>
<g>
</g>
<g>
</g>
<g>
</g>
<g>
</g>
</svg>
