<?xml version="1.0" encoding="UTF-8" standalone="no"?>
<!-- Generator: Adobe Illustrator 19.0.0, SVG Export Plug-In . SVG Version: 6.00 Build 0)  -->

<svg
   xmlns:dc="http://purl.org/dc/elements/1.1/"
   xmlns:cc="http://creativecommons.org/ns#"
   xmlns:rdf="http://www.w3.org/1999/02/22-rdf-syntax-ns#"
   xmlns:svg="http://www.w3.org/2000/svg"
   xmlns="http://www.w3.org/2000/svg"
   xmlns:sodipodi="http://sodipodi.sourceforge.net/DTD/sodipodi-0.dtd"
   xmlns:inkscape="http://www.inkscape.org/namespaces/inkscape"
   version="1.1"
   id="Layer_1"
   x="0px"
   y="0px"
   viewBox="0 0 480 480"
   style="enable-background:new 0 0 480 480;"
   xml:space="preserve"
   sodipodi:docname="monk3.svg"
   inkscape:version="0.92.4 5da689c313, 2019-01-14"><metadata
   id="metadata61"><rdf:RDF><cc:Work
       rdf:about=""><dc:format>image/svg+xml</dc:format><dc:type
         rdf:resource="http://purl.org/dc/dcmitype/StillImage" /><dc:title></dc:title></cc:Work></rdf:RDF></metadata><defs
   id="defs59" /><sodipodi:namedview
   pagecolor="#ffffff"
   bordercolor="#666666"
   borderopacity="1"
   objecttolerance="10"
   gridtolerance="10"
   guidetolerance="10"
   inkscape:pageopacity="0"
   inkscape:pageshadow="2"
   inkscape:window-width="945"
   inkscape:window-height="1041"
   id="namedview57"
   showgrid="false"
   inkscape:zoom="0.34766083"
   inkscape:cx="-339.2872"
   inkscape:cy="340.02176"
   inkscape:window-x="965"
   inkscape:window-y="8"
   inkscape:window-maximized="0"
   inkscape:current-layer="Layer_1" />
<g
   id="g24">
	<g
   id="g22">
		<g
   id="g20">
			<path
   d="M399.293,75.229c-12.254,0-24.008,2.656-34.937,7.892c-27.259-40.902-73.796-67.907-126.528-67.907     c-52.079,0-98.116,26.35-125.5,66.416c-9.978-4.244-20.596-6.4-31.622-6.4C36.205,75.229,0,111.448,0,155.966     c0,19.489,7.044,38.311,19.833,52.999c10.196,11.709,23.483,20.173,38.18,24.488c-3.789,14.825-5.725,30.163-5.725,45.763     c0,102.324,83.233,185.57,185.54,185.57c102.324,0,185.57-83.246,185.57-185.57c0-15.224-1.85-30.195-5.459-44.686     c16.3-3.874,31.102-12.791,42.226-25.566C472.956,194.277,480,175.455,480,155.966C480,111.448,443.795,75.229,399.293,75.229z      M20,155.966c0-33.49,27.233-60.737,60.707-60.737c7.409,0,14.559,1.304,21.336,3.84c-10.317,20.496-16.138,43.628-16.138,68.097     c0,1.927,0.096,3.759,0.212,5.534c-9.201,13.063-16.589,27.043-22.09,41.671C38.448,207.022,20,183.183,20,155.966z      M237.829,444.786c-91.279,0-165.54-74.274-165.54-165.57c0-35.273,11.104-69.053,32.114-97.689     c1.388-1.893,2.067-4.213,1.917-6.556c-0.042-0.651-0.087-1.303-0.133-1.956c-0.145-2.056-0.281-3.997-0.281-5.849     c0-72.759,59.181-131.953,131.923-131.953c72.759,0,131.953,59.194,131.953,131.953c0,1.857-0.137,3.803-0.281,5.863     c-0.045,0.648-0.09,1.295-0.132,1.942c-0.15,2.343,0.528,4.663,1.917,6.556c21.009,28.638,32.113,62.418,32.113,97.689     C403.398,370.512,329.124,444.786,237.829,444.786z M412.024,215.353c-5.537-14.984-13.048-29.298-22.454-42.653     c0.116-1.775,0.211-3.607,0.211-5.534c0-23.884-5.546-46.495-15.407-66.623c7.821-3.512,16.191-5.314,24.919-5.314     c33.474,0,60.707,27.247,60.707,60.737C460,184.563,439.631,209.424,412.024,215.353z"
   id="path2" />
			<path
   d="M413.848,126.38c-4.523,0-8.815,0.976-12.758,2.9c-4.963,2.423-7.022,8.41-4.6,13.373     c2.422,4.963,8.407,7.024,13.373,4.6c1.186-0.579,2.527-0.873,3.984-0.873c5.112,0,9.271,4.179,9.271,9.316     c0,4.567-3.395,8.516-7.896,9.185c-5.463,0.812-9.233,5.899-8.422,11.362c0.738,4.964,5.006,8.531,9.879,8.531     c0.489,0,0.984-0.036,1.482-0.11c14.227-2.115,24.957-14.568,24.957-28.968C443.119,139.531,429.988,126.38,413.848,126.38z"
   id="path4" />
			<path
   d="M78.909,129.281c-3.942-1.925-8.234-2.9-12.757-2.9c-16.14,0-29.271,13.151-29.271,29.316     c0,14.4,10.729,26.854,24.956,28.968c0.498,0.074,0.993,0.11,1.482,0.11c4.873,0,9.142-3.567,9.879-8.532     c0.812-5.463-2.959-10.549-8.422-11.361c-4.501-0.669-7.896-4.618-7.896-9.185c0-5.137,4.159-9.316,9.271-9.316     c1.456,0,2.796,0.294,3.983,0.873c4.961,2.422,10.95,0.363,13.373-4.6C85.932,137.691,83.873,131.703,78.909,129.281z"
   id="path6" />
			<path
   d="M192.098,220.112c11.17,0,20.257-9.081,20.257-20.242c0-11.195-9.087-20.302-20.257-20.302     c-11.178,0-20.272,9.107-20.272,20.302C171.826,211.031,180.92,220.112,192.098,220.112z"
   id="path8" />
			<path
   d="M281.732,220.112c11.178,0,20.272-9.081,20.272-20.242c0-11.195-9.094-20.302-20.272-20.302     c-11.17,0-20.258,9.107-20.258,20.302C261.475,211.031,270.562,220.112,281.732,220.112z"
   id="path10" />
			<path
   d="M333.325,299.121c-4.48-3.232-10.73-2.216-13.959,2.264c-23.134,32.088-48.606,48.621-75.709,49.14     c-0.447,0.009-0.888,0.013-1.333,0.013c-48.105,0-87.52-49.609-88.108-50.358c-3.391-4.358-9.671-5.144-14.028-1.756     c-4.361,3.388-5.15,9.67-1.761,14.032c1.858,2.393,45.8,58.082,103.88,58.082c0.54,0,1.084-0.004,1.626-0.014     c33.777-0.606,64.614-19.933,91.656-57.442C338.819,308.601,337.806,302.351,333.325,299.121z"
   id="path12" />
			<path
   d="M205.484,263.889c-0.008,0.163-0.012,0.326-0.012,0.488c0,3.124,1.332,10.406,13.646,10.699     c0.433,0.017,0.853,0.025,1.256,0.025c10.833,0,12.654-6.715,12.94-9.556l0.005,0.001c0.023-0.237,0.036-0.475,0.041-0.712     c0.002-0.087,0.003-0.164,0.003-0.231h-0.001c-0.005-2.423-0.9-4.828-2.498-6.658c-2.694-3.087-6.346-3.847-10.999-4.038     c-0.068-0.002-0.136-0.005-0.204-0.006C207.298,253.633,205.634,260.82,205.484,263.889z"
   id="path14" />
			<path
   d="M253.272,276.038c0.269,0.005,0.532,0.008,0.791,0.008c12.43,0,13.396-8.025,13.396-10.485h-0.001     c-0.005-2.41-0.888-4.797-2.473-6.625c-2.696-3.11-6.367-3.876-11.051-4.07c-0.069-0.003-0.139-0.005-0.208-0.007     c-0.258-0.005-0.511-0.008-0.759-0.008c-11.642,0-13.24,6.99-13.387,9.996c-0.008,0.163-0.012,0.326-0.012,0.489     C239.568,268.469,240.903,275.783,253.272,276.038z"
   id="path16" />
			<path
   d="M354.533,184.716c0-52.255-35.404-98.357-86.115-112.168c-0.477-0.136-0.959-0.229-1.445-0.293     c-0.093-0.012-0.184-0.024-0.275-0.034c-0.432-0.044-0.863-0.067-1.295-0.056c-0.053,0.001-0.104,0.008-0.157,0.011     c-0.383,0.016-0.765,0.058-1.144,0.118c-0.101,0.016-0.201,0.031-0.301,0.05c-0.419,0.079-0.834,0.18-1.241,0.313     c-0.036,0.012-0.071,0.028-0.108,0.04c-0.38,0.129-0.751,0.284-1.115,0.459c-0.076,0.037-0.153,0.073-0.229,0.112     c-0.392,0.2-0.774,0.421-1.141,0.675c-0.011,0.008-0.022,0.018-0.033,0.025c-0.342,0.24-0.667,0.509-0.981,0.795     c-0.077,0.069-0.152,0.139-0.228,0.211c-0.316,0.307-0.622,0.628-0.903,0.984l-24.545,31.05l-22.188-28.809     c-0.19-0.247-0.393-0.479-0.602-0.705c-0.069-0.074-0.141-0.145-0.212-0.216c-0.143-0.145-0.289-0.286-0.44-0.421     c-0.088-0.079-0.177-0.157-0.267-0.232c-0.148-0.123-0.298-0.239-0.452-0.353c-0.09-0.067-0.178-0.136-0.27-0.2     c-0.23-0.159-0.466-0.309-0.708-0.448c-0.093-0.053-0.189-0.099-0.283-0.148c-0.167-0.088-0.334-0.175-0.504-0.254     c-0.111-0.051-0.224-0.098-0.337-0.145c-0.165-0.069-0.331-0.133-0.499-0.193c-0.108-0.039-0.216-0.077-0.326-0.111     c-0.2-0.063-0.402-0.119-0.606-0.169c-0.078-0.02-0.154-0.042-0.232-0.06c-0.285-0.064-0.573-0.116-0.864-0.154     c-0.058-0.008-0.116-0.011-0.173-0.017c-0.235-0.027-0.47-0.047-0.708-0.058c-0.095-0.004-0.19-0.004-0.286-0.006     c-0.201-0.003-0.402,0-0.604,0.009c-0.105,0.005-0.21,0.01-0.314,0.018c-0.199,0.015-0.397,0.039-0.596,0.066     c-0.1,0.014-0.201,0.024-0.301,0.04c-0.279,0.047-0.558,0.104-0.835,0.176c-0.102,0.026-0.203,0.062-0.304,0.092     c-0.153,0.044-0.308,0.085-0.46,0.138c-0.043,0.015-0.084,0.032-0.127,0.046c-0.052,0.019-0.103,0.038-0.155,0.057     c-46.945,16.325-78.467,60.396-78.467,109.766c0,1.203,0.052,2.371,0.121,3.479c-16.608,23.887-25.367,51.721-25.367,80.735     c0,37.905,14.993,76.689,41.134,106.406c27.552,31.322,63.346,48.572,100.787,48.572c37.454,0,73.256-17.249,100.813-48.571     c26.144-29.716,41.138-68.5,41.138-106.407c0-29.013-8.76-56.846-25.367-80.735C354.481,187.087,354.533,185.919,354.533,184.716     z M359.779,268.929c0,70.643-58.126,134.978-121.951,134.978c-63.809,0-121.92-64.335-121.92-134.978     c0-25.971,8.184-50.85,23.668-71.948c1.404-1.913,2.082-4.263,1.913-6.63l-0.107-1.421c-0.117-1.503-0.227-2.923-0.227-4.214     c0-38.578,23.289-73.261,58.639-88.403l25.456,33.052c1.41,1.83,3.393,3.097,5.597,3.624c0.734,0.176,1.493,0.269,2.263,0.274     c0.021,0,0.042,0,0.063,0c0.275,0,0.546-0.024,0.818-0.046c0.094-0.008,0.19-0.006,0.283-0.017     c0.296-0.033,0.587-0.088,0.877-0.146c0.082-0.017,0.166-0.024,0.248-0.042c0.205-0.047,0.402-0.113,0.603-0.172     c0.164-0.048,0.331-0.087,0.491-0.143c0.066-0.023,0.128-0.055,0.194-0.08c1.686-0.631,3.187-1.703,4.331-3.151l28.255-35.742     c38.735,13.333,65.262,49.867,65.262,90.993c0,1.286-0.109,2.701-0.226,4.198l-0.108,1.44c-0.169,2.366,0.509,4.715,1.912,6.627     C351.596,218.08,359.779,242.96,359.779,268.929z"
   id="path18" />
		</g>
	</g>
</g>
<g
   id="g26">
</g>
<g
   id="g28">
</g>
<g
   id="g30">
</g>
<g
   id="g32">
</g>
<g
   id="g34">
</g>
<g
   id="g36">
</g>
<g
   id="g38">
</g>
<g
   id="g40">
</g>
<g
   id="g42">
</g>
<g
   id="g44">
</g>
<g
   id="g46">
</g>
<g
   id="g48">
</g>
<g
   id="g50">
</g>
<g
   id="g52">
</g>
<g
   id="g54">
</g>
<path
   style="fill:#f57900;stroke-width:0.71909165"
   d="m 221.48074,402.14951 c -43.26011,-7.68235 -82.54403,-44.01862 -98.08821,-90.72823 -11.37,-34.16639 -8.98778,-68.3926 6.86289,-98.60143 2.15617,-4.10931 5.56318,-9.82449 7.57114,-12.7004 l 3.65083,-5.22892 0.19165,-10.67007 c 0.28068,-15.62737 2.97595,-27.32045 9.46392,-41.05807 6.58281,-13.93843 19.77688,-29.04476 32.95502,-37.73131 8.76099,-5.774933 15.22031,-9.021226 16.0622,-8.072471 0.33536,0.377932 6.37078,8.196161 13.41203,17.373841 13.83925,18.03829 15.34587,19.40357 20.63016,18.6948 1.542,-0.20682 3.57745,-0.88306 4.52322,-1.50276 0.94578,-0.61969 8.22845,-9.36643 16.18373,-19.43719 l 14.46415,-18.310477 2.68562,0.947542 c 1.47708,0.521148 5.4132,2.318948 8.74693,3.995111 26.56252,13.355374 45.24222,37.554144 51.47843,66.688164 0.65757,3.07201 1.41282,10.92472 1.67833,17.45048 l 0.48276,11.86501 4.84352,7.31669 c 8.46567,12.78836 14.46555,27.1503 17.89724,42.84065 1.41237,6.45764 1.61038,9.4174 1.59948,23.9091 -0.0114,15.15565 -0.17274,17.29227 -1.92885,25.54311 -6.1866,29.06674 -20.59794,55.03212 -41.75576,75.23269 -18.41683,17.58361 -39.68574,28.66485 -61.94895,32.27583 -8.09023,1.3122 -24.01573,1.26607 -31.66148,-0.0917 z m 37.98779,-32.99475 c 9.2711,-1.92926 14.77151,-3.84897 23.8541,-8.3254 14.87218,-7.32988 28.50425,-18.41807 41.87333,-34.05935 9.54874,-11.17166 12.41808,-15.66446 12.41808,-19.44418 0,-7.60615 -8.59404,-12.87895 -14.81162,-9.08754 -1.22513,0.74707 -5.31207,5.19524 -9.08207,9.88482 -7.62175,9.48084 -18.42524,20.24572 -26.08318,25.98998 -6.6575,4.99382 -20.78609,11.94061 -28.40411,13.96582 -8.82571,2.34626 -25.67644,2.32366 -34.5164,-0.0463 -18.41163,-4.93604 -33.70563,-13.6042 -52.07961,-29.51705 -3.92501,-3.39927 -9.87161,-9.2546 -13.21468,-13.01185 -3.34306,-3.75726 -6.92711,-7.39552 -7.96454,-8.08504 -4.00711,-2.66328 -11.0759,-0.91788 -13.73993,3.39261 -1.63758,2.64966 -1.89964,7.74748 -0.52517,10.21601 1.81718,3.26364 11.93346,14.28767 18.85067,20.5422 25.2169,22.80102 48.9236,34.99104 75.14508,38.6397 6.51294,0.90626 21.55264,0.3455 28.28005,-1.05442 z m 4.29352,-95.48977 c 5.9761,-4.5615 5.04183,-13.95723 -1.7364,-17.46239 -2.98333,-1.54274 -10.42053,-2.09199 -14.25463,-1.05272 -4.08373,1.10693 -7.67942,4.65682 -8.35283,8.24646 -0.81628,4.3511 1.4062,8.85063 5.43313,10.9997 2.86138,1.52704 3.99141,1.70017 9.76552,1.49611 5.84285,-0.20649 6.80482,-0.44075 9.14521,-2.22716 z m -37.56633,0.91831 c 1.40673,-0.39079 3.4894,-1.68302 4.62815,-2.87162 1.6881,-1.762 2.11947,-2.92483 2.33583,-6.29661 0.49584,-7.72736 -4.16637,-11.65439 -13.83623,-11.65439 -8.78698,0 -14.01334,3.83473 -14.0196,10.28657 -0.007,7.1473 4.92898,11.08906 14.0196,11.19588 2.373,0.0279 5.46551,-0.26904 6.87225,-0.65983 z m -26.17125,-55.73247 c 7.33827,-3.06612 12.49258,-10.78726 12.43607,-18.62914 -0.0743,-10.30214 -5.80255,-17.69767 -15.66498,-20.22431 -7.42786,-1.90293 -14.83936,0.51136 -20.1738,6.57162 -6.87514,7.81057 -6.71722,19.341 0.36865,26.91637 3.19202,3.41253 6.53174,5.45372 10.69303,6.53543 2.86325,0.7443 9.19655,0.14388 12.34103,-1.16997 z m 90.80481,-0.69457 c 12.17979,-6.17197 15.20744,-21.80261 6.17014,-31.85426 -9.74202,-10.83546 -26.93416,-8.66877 -33.36738,4.20524 -3.60311,7.21045 -3.07792,14.5981 1.51833,21.35801 5.46547,8.03829 16.76699,10.80702 25.67891,6.29101 z"
   id="path63"
   inkscape:connector-curvature="0" /><path
   style="fill:#f57900;stroke-width:0.71909165"
   d="M 57.0374,211.37095 C 42.004242,204.95687 28.918248,190.82388 23.681971,175.34677 16.068992,152.84474 22.088763,128.74852 39.441068,112.26553 55.209266,97.287282 76.800364,92.0584 97.976941,98.089448 l 3.775409,1.075231 -2.068149,4.114631 c -4.803776,9.55721 -9.453086,24.50657 -12.014413,38.63104 -0.645479,3.5595 -1.343979,11.97051 -1.552221,18.69112 -0.347337,11.20958 -0.511756,12.398 -1.989743,14.38184 -5.356147,7.18931 -16.567862,28.30006 -19.002452,35.78006 -1.062223,3.26357 -1.743057,3.31471 -8.087972,0.60758 z m 12.540149,-28.42393 c 2.565478,-1.68097 4.449855,-6.74638 3.79945,-10.21333 -0.66482,-3.54379 -4.291037,-7.09599 -8.342123,-8.17182 -7.257404,-1.92734 -10.03575,-9.07799 -5.679154,-14.61651 2.375254,-3.01964 5.743709,-3.70955 11.071039,-2.26751 5.592997,1.51395 8.604803,0.76313 11.873806,-2.96006 1.826938,-2.08077 2.193219,-3.10572 2.193219,-6.1372 0,-4.88021 -1.659572,-7.46688 -6.223159,-9.69964 -13.606717,-6.65714 -31.370917,-0.45739 -38.359905,13.38772 -5.790409,11.47074 -3.640806,25.21627 5.348397,34.20006 7.665121,7.6605 18.222038,10.4728 24.31843,6.47829 z"
   id="path65"
   inkscape:connector-curvature="0" /><path
   style="fill:#f57900;stroke-width:0.71909165"
   d=""
   id="path67"
   inkscape:connector-curvature="0" /><path
   style="fill:#f57900;stroke-width:0.71909165"
   d="m 411.21612,212.20156 c -5.54842,-13.47828 -10.18798,-22.52648 -16.9027,-32.96408 l -4.20569,-6.53747 v -6.50977 c 0,-18.9404 -4.59007,-40.90521 -12.27141,-58.72225 -3.16378,-7.33845 -3.3303,-6.90927 3.51458,-9.058622 23.66905,-7.432312 49.891,0.683878 65.12896,20.158652 8.57171,10.95501 12.76998,22.89124 12.88916,36.64552 0.0798,9.21409 -0.80591,14.25953 -3.93973,22.44182 -3.89947,10.18134 -12.89968,21.7691 -21.48333,27.65972 -5.72272,3.92729 -18.32555,9.58307 -21.35405,9.58307 -0.14615,0 -0.76525,-1.21347 -1.37579,-2.69659 z m 9.81255,-27.89972 c 6.29721,-1.2556 14.70218,-7.49062 18.24355,-13.53349 7.98521,-13.62576 3.68785,-31.46786 -9.63894,-40.01964 -4.76666,-3.05876 -9.37082,-4.36288 -15.54991,-4.40449 -6.82025,-0.0459 -12.81246,1.74231 -15.77907,4.70892 -5.80427,5.80427 -2.83658,15.58618 5.24828,17.29905 1.44634,0.30642 3.74487,0.0313 6.1978,-0.74196 4.79171,-1.51045 7.11385,-1.0195 10.31395,2.1806 2.00127,2.00127 2.39827,2.92497 2.37705,5.53058 -0.014,1.72042 -0.44033,3.87562 -0.94735,4.78932 -1.01902,1.83635 -4.59503,4.43887 -6.10941,4.44627 -2.09335,0.0102 -6.09928,2.51808 -7.3818,4.62128 -2.43183,3.98792 -1.49331,10.35832 1.98609,13.48095 1.50697,1.35246 5.81908,2.72991 7.44431,2.378 0.59325,-0.12846 2.2112,-0.45938 3.59545,-0.73539 z"
   id="path69"
   inkscape:connector-curvature="0" /><path
   style="fill:#a40000;stroke-width:0.71909165"
   d="M 218.08284,443.19875 C 193.73746,440.25154 167.42334,430.60618 147.4143,417.29543 114.63707,395.4908 89.971881,362.31642 79.38262,325.79362 72.058255,300.53158 70.811817,271.8417 75.939351,246.53818 c 4.111347,-20.28881 12.723065,-40.8232 24.720279,-58.94479 2.9738,-4.49188 5.44082,-8.51836 5.48228,-8.94775 0.0414,-0.42939 0.16905,-6.28176 0.28356,-13.00527 0.32462,-19.06125 3.77616,-35.10957 11.06345,-51.44074 17.61266,-39.4708 52.93917,-67.700237 95.40208,-76.235851 9.88944,-1.987911 30.78718,-2.716213 41.01144,-1.42928 25.85125,3.253913 51.43048,14.852443 71.1275,32.251739 17.855,15.772151 31.28881,36.589332 38.41577,59.529512 4.00616,12.89497 5.13474,20.18841 5.58881,36.1177 l 0.41656,14.61309 5.7209,8.75739 c 10.73504,16.43287 19.49294,36.47085 23.47064,53.70061 3.1738,13.74759 3.99564,21.41718 4.00682,37.39277 0.0147,21.02483 -2.35225,35.78667 -8.69603,54.23364 -2.92475,8.50482 -10.44207,24.39351 -15.16711,32.05735 -27.27276,44.23549 -72.47169,72.75488 -124.22734,78.38434 -8.7652,0.9534 -27.06133,0.76586 -36.47612,-0.37389 z m 35.54042,-20.11108 c 23.81822,-3.12475 47.00802,-13.42459 66.92532,-29.72516 7.36004,-6.02354 20.11907,-19.41952 26.15332,-27.4589 33.05677,-44.04135 42.2811,-100.90256 23.96758,-147.74253 -3.30719,-8.4587 -8.19525,-18.1627 -12.50368,-24.82285 l -3.05521,-4.72287 -0.45594,-8.99587 C 353.14101,149.75424 341.59294,123.80413 320.41672,102.68216 306.52238,88.823396 291.70224,79.65009 274.14561,74.041442 261.30274,69.938655 262.75412,68.990832 242.474,94.724558 l -9.20859,11.684912 -7.69006,-9.981993 c -4.22954,-5.490096 -9.30802,-12.117507 -11.28552,-14.727581 -3.9237,-5.17883 -7.58671,-7.743707 -11.05909,-7.743707 -5.18813,0 -22.59951,8.461318 -34.03354,16.539107 -28.54792,20.168214 -48.01305,56.666114 -48.02685,90.052264 -0.003,6.84116 -0.0623,7.08968 -2.66536,11.14592 -22.718117,35.4 -28.70266,78.02439 -16.78815,119.57206 12.36109,43.10492 42.23986,80.2844 79.71818,99.19686 22.69359,11.45173 47.74159,15.83247 72.18824,12.62527 z"
   id="path71"
   inkscape:connector-curvature="0" /><path
   style="fill:#729fcf;stroke-width:0.71909165"
   d="m 276.35161,218.96552 c -3.55331,-0.99823 -4.47703,-1.56015 -8.39774,-5.1085 -7.56245,-6.84421 -7.84424,-20.02174 -0.59035,-27.60697 6.04505,-6.32118 15.20739,-7.98803 22.98689,-4.18188 7.2739,3.55879 10.91694,9.47627 10.91472,17.72906 -10e-4,4.44867 -0.33841,6.03794 -1.92548,9.07474 -4.363,8.34844 -14.05378,12.60345 -22.98804,10.09355 z"
   id="path73"
   inkscape:connector-curvature="0" /><path
   style="fill:#729fcf;stroke-width:0.71909165"
   d="m 187.56262,219.28092 c -3.54626,-0.9053 -8.54429,-4.11729 -10.9521,-7.03838 -4.89348,-5.93664 -5.72194,-13.85981 -2.18855,-20.93075 3.71534,-7.43505 9.74545,-11.19736 17.93556,-11.19038 17.7838,0.0152 26.23426,22.35549 12.97708,34.3073 -1.68774,1.52155 -4.14158,3.21477 -5.45298,3.76271 -3.05747,1.27749 -9.38908,1.83747 -12.31901,1.0895 z"
   id="path75"
   inkscape:connector-curvature="0" /><ellipse
   style="fill:#729fcf"
   id="path77"
   cx="196.27118"
   cy="201.35593"
   rx="9.1525421"
   ry="5.0847459" /><ellipse
   style="fill:#729fcf"
   id="path79"
   cx="196.52542"
   cy="202.24576"
   rx="3.0508475"
   ry="0.63559324" /><ellipse
   style="fill:#2e3436"
   id="path81"
   cx="190.42374"
   cy="200.46609"
   rx="4.5762711"
   ry="5.2118645" /><ellipse
   style="fill:#2e3436"
   id="path83"
   cx="281.44067"
   cy="201.1017"
   rx="5.0847459"
   ry="5.5932202" /></svg>