<svg width="582" height="556" xmlns="http://www.w3.org/2000/svg" preserveAspectRatio="xMidYMid meet">
 <metadata>Created by potrace 1.15, written by Peter Selinger 2001-2017</metadata>

 <g>
  <title>background</title>
  <rect fill="none" id="canvas_background" height="558" width="584" y="-1" x="-1"/>
 </g>
 <g>
  <title>Layer 1</title>
  <path id="svg_4" d="m325.514077,52.857319c-6.3,1.1 -15.2,3.7 -21.8,6.2c-11.1,4.3 -29.2,14 -33.4,17.8c-6,5.6 -10.4,14.4 -12.7,25.3c-1.8,9 -2.6,26.7 -1.3,31.5c0.6,2.1 1.1,1.7 4.9,-4c11.3,-16.9 25,-26.6 50.500001,-36.100001c15.4,-5.7 17.7,-5.3 3,0.5c-17.2,6.8 -24.9,11.1 -33.2,18.8c-13.2,12 -21.8,25 -21.8,32.7c0,5.5 1.2,6 10.4,4.4c15.5,-2.6 22.5,-6.2 43.100001,-22.2c5,-3.8 12,-8.5 15.6,-10.4c6.7,-3.5 6.7,-3.5 19.5,-3.4c7.1,0.1 15.6,0.5 18.9,0.9c5.1,0.6 4.1,0.7 -6.6,0.9c-23.1,0.2 -29.4,2.7 -50.800001,19.6c-7.1,5.7 -15.7,12.2 -19,14.5c-7.4,5 -20.1,11 -23.5,11c-1.4,0 -2.6,0.4 -2.6,0.8c0,1.4 7.9,19.2 12.2,27.5c3.1,5.8 4.7,7.9 6.6,8.4c2.8,0.7 12.6,-0.5 30.2,-3.8c10.1,-1.8 13.6,-2 29,-1.4c28.6,1.1 33.700001,2.2 11,2.4c-10.7,0 -25.1,0.8 -32,1.6c-11.1,1.3 -27.5,4.8 -33.700001,7.2c-2.1,0.8 -1.7,1.8 12.1,33.3l14.2,32.5l24.5,0c22.3,0 25.2,0.2 33.700001,2.3c5.1,1.3 9.1,2.6 8.9,2.8c-0.2,0.3 -4.8,-0.1 -10.2,-0.7c-17.5,-2.1 -48.000001,0.2 -51.700001,3.9c-0.8,0.8 39.700001,84.300001 41.400001,85.300001c0.6,0.4 2.9,1 5.2,1.3c7.9,1.2 23.1,6.5 29.1,10.1c7,4.2 14.9,10.2 20.8,15.7l4.2,4l-6.5,-4.6c-10,-7.1 -21.1,-13.7 -25.5,-15.3c-2.2,-0.8 -8.2,-1.7 -13.4,-2c-7.9,-0.5 -9.3,-0.4 -8.9,0.8c1.6,4 31.3,71.800001 32.5,74.400001c0.9,1.6 1.1,2.5 0.5,2c-0.5,-0.6 -14.6,-25.8 -31.2,-56.000001c-16.7,-30.3 -31.1,-56.300001 -32,-57.900001l-1.8,-2.9l-5.7,8.9c-18.2,28.2 -27.7,45.700001 -29.3,54.100001c-3.2,16.5 -3.2,16.4 -2.7,5.6c0.2,-5.6 1.1,-12.9 2,-16.3c3,-11.6 12.9,-31.6 26.1,-52.600001c3.5,-5.6 6.4,-10.8 6.4,-11.4c0,-1.4 -38.000001,-74.000001 -38.700001,-74.000001c-0.7,0 -16.4,16.7 -24.3,26c-8.5,9.8 -21.7,27.5 -28,37.500001c-2.5,3.8 -11.3,20.5 -19.7,37.000001c-8.4,16.5 -15.2,29.7 -15.3,29.4c-0.1,-2.5 18.4,-47.800001 23.8,-58.300001c11.7,-22.5 29.4,-48.000001 49.300001,-71.000001l9.8,-11.4l-8.1,-16.8c-4.4,-9.3 -9.7,-20.6 -11.9,-25.2l-3.8,-8.3l-4.9,2.5c-7.8,3.9 -24.6,15.6 -37.300001,25.8c-32.4,25.9 -57.100001,51.200001 -70.800001,72.300001c-5.3,8.1 -2.5,1.9 4.1,-9.1c18.1,-30.4 33.700001,-46.500001 76.300001,-78.400001c22.4,-16.8 26.5,-20.6 26.5,-24.7c0,-2.6 -7.6,-19.9 -10.1,-22.9c-0.7,-0.9 -4.2,0.2 -12.7,3.8c-6.4,2.7 -23.4,9.7 -37.600001,15.4c-14.3,5.8 -28.2,11.7 -31,13.1c-10.8,5.5 -40.800001,25.1 -51.300001,33.5c-0.7,0.6 -1.3,0.8 -1.3,0.5c0,-0.9 22.5,-19.3 34.500001,-28.2c20.2,-15 35.800001,-23.1 74.300001,-38.600001c11.4,-4.6 17.7,-7.6 16.9,-8.1c-3,-1.6 -18.8,-5.7 -28.6,-7.3c-12.5,-2.1 -26.2,-1.6 -39.000001,1.5c-4.6,1.1 -8.6,1.8 -8.8,1.6c-0.7,-0.7 20.5,-7.3 27.8,-8.7c8.4,-1.6 25.1,-0.5 37.400001,2.5c11.3,2.8 11.2,2.5 -3.3,-6.1c-18.6,-11 -36.200001,-18.3 -48.800001,-20.3c-8,-1.3 -22.8,0.2 -28.9,2.9c-5.7,2.5 -14.5,10.8 -24.5,23.1c-11,13.6 -39.300001,51.700001 -43.000001,57.900001c-7.7,13.2 -11.8,28 -12.7,46.100001c-1.5,32.3 8.3,68.300001 30.3,112.000002c8.1,16.1 25.1,45.000001 26.5,45.000001c0.4,0 1,-1.2 1.3,-2.8c2,-8.2 9.3,-28.9 13.1,-36.700001c4.7,-9.8 9.8,-16.5 26.3,-35.000001c5.9,-6.6 15.7,-18 21.7,-25.4c17.7,-21.7 29.6,-31.1 39.000001,-31.1c5.5,0 7.9,1.9 7.9,6.2c0,9.6 -13,27.1 -46.600001,62.600001c-24.2,25.4 -36.100001,47.800001 -38.900001,72.700001c-3,27.2 10.8,47.000001 46.100001,66.300001c6.9,3.7 29.1,13.2 31,13.2c0.5,0 -0.5,-3.9 -2.1,-8.7c-4,-11.7 -6.3,-25.3 -5.4,-32.6c1.1,-10.1 6.9,-24.6 24.5,-61.200001c9.9,-20.5 25.8,-40.700001 34.400001,-43.500001c3.7,-1.2 4.1,-1.1 5.8,1c1,1.2 1.8,2.8 1.8,3.5c0,4.2 -4.9,18.7 -12.3,36.000001c-9.7,22.9 -11.2,27.2 -13.1,37.500001c-3.3,17.9 -2.8,35.500001 1.5,51.200001c2.7,9.9 5.9,15 11.6,18.6c11.2,7.1 26.9,8.9 60.700001,6.8c27.2,-1.7 32,-1.4 59.100001,4.1c21.5,4.3 30.5,4.8 33.5,1.8c1.1,-1.2 5.3,-11.3 9.3,-22.5c7.6,-21.4 10.6,-27.6 25,-52.600001c10.1,-17.5 15.7,-30.6 16.4,-38.400001c0.4,-4.4 0,-6.8 -2.1,-11.9c-1.4,-3.6 -3.4,-7.3 -4.3,-8.4c-2.5,-2.7 -14.1,-8.4 -32.3,-15.7c-18.8,-7.5 -27.7,-12.1 -33.2,-16.9c-4.3,-3.8 -5.3,-7.6 -2.8,-10.6c2,-2.4 11.3,-1.8 27.2,1.6c16.7,3.6 24.9,7.1 41.800001,18.3c8.9,5.8 11.6,7.2 12.3,6.1c2.8,-5.1 10.3,-33.4 12.2,-46.500001c1.8,-11.5 1.1,-16.1 -3.1,-22.1c-8,-11.5 -36.300001,-26.8 -69.400001,-37.500001c-33.1,-10.6 -38.300001,-12.9 -41.500001,-17.8c-5.4,-8.3 11.1,-12.9 38.000001,-10.6c18.7,1.6 35.800001,6.1 66.000001,17.4l6.7,2.6l-0.7,-4.8c-1.7,-12.2 -6.9,-35.100001 -9.6,-43.000001c-7.5,-21.7 -21.9,-46.400001 -39.700001,-68.100001c-11.5,-14.1 -33.600001,-36.100001 -44.200001,-43.900001c-9.4,-7.1 -25.3,-15.2 -34.500001,-17.7c-6.9,-1.9 -29.5,-2.8 -36.700001,-1.5z"/>
 </g>
</svg>