<?xml version="1.0" encoding="UTF-8" standalone="no"?>
<svg
   xmlns:dc="http://purl.org/dc/elements/1.1/"
   xmlns:cc="http://creativecommons.org/ns#"
   xmlns:rdf="http://www.w3.org/1999/02/22-rdf-syntax-ns#"
   xmlns:svg="http://www.w3.org/2000/svg"
   xmlns="http://www.w3.org/2000/svg"
   xmlns:sodipodi="http://sodipodi.sourceforge.net/DTD/sodipodi-0.dtd"
   xmlns:inkscape="http://www.inkscape.org/namespaces/inkscape"
   width="499.99999999999994"
   height="582"
   preserveAspectRatio="xMidYMid meet"
   version="1.1"
   id="svg4549"
   sodipodi:docname="thinleaf.svg"
   inkscape:version="0.92.4 5da689c313, 2019-01-14">
  <defs
     id="defs4553" />
  <sodipodi:namedview
     pagecolor="#ffffff"
     bordercolor="#666666"
     borderopacity="1"
     objecttolerance="10"
     gridtolerance="10"
     guidetolerance="10"
     inkscape:pageopacity="0"
     inkscape:pageshadow="2"
     inkscape:window-width="2560"
     inkscape:window-height="1419"
     id="namedview4551"
     showgrid="false"
     inkscape:zoom="2.0962199"
     inkscape:cx="250"
     inkscape:cy="291"
     inkscape:window-x="0"
     inkscape:window-y="0"
     inkscape:window-maximized="0"
     inkscape:current-layer="svg4549" />
  <metadata
     id="metadata4537">Created by potrace 1.15, written by Peter Selinger 2001-2017<rdf:RDF>
  <cc:Work
     rdf:about="">
    <dc:format>image/svg+xml</dc:format>
    <dc:type
       rdf:resource="http://purl.org/dc/dcmitype/StillImage" />
  </cc:Work>
</rdf:RDF>
</metadata>
  <g
     id="g4542">
    <title
       id="title4539">background</title>
    <rect
       fill="none"
       id="canvas_background"
       height="584"
       width="502"
       y="-1"
       x="-1" />
  </g>
  <g
     id="g4547"
     style="fill:#299259;fill-opacity:1">
    <title
       id="title4544">Layer 1</title>
    <path
       id="svg_2"
       d="m193.627194,58.228562c-6.6,22.7 -8.6,30.4 -14.7,56.600001l-3.2,13.9l-2.9,-4.6l-2.9,-4.7l2.1,-8.7c1.7,-7 2.1,-11.1 1.8,-19.8c-0.2,-6.1 -0.3,-19 -0.3,-28.7c0,-9.8 0,-17.7 -0.2,-17.5c-0.1,0.1 -1.6,6.9 -3.4,15.2c-3.6,16.7 -4.8,33.600001 -3.3,46.700001c0.5,4.3 0.8,7.8 0.6,7.8c-0.1,0 -1,-1.1 -1.9,-2.5c-1.3,-2 -1.9,-6.2 -2.4,-17.3c-0.8,-16 -0.7,-15.7 -9.8,-32.7c-2.4,-4.4 -3.4,-7.9 -3.9,-13c-0.9,-8.9 -2.1,-5.6 -2.2,6c-0.1,10.3 1.3,18.9 4.9,29.5c1.5,4.7 2.7,8.6 2.6,8.7c-0.1,0.1 -3.7,-3 -8.1,-6.9c-7.4,-6.4 -41.600001,-30.9 -42.300001,-30.3c-0.6,0.5 19.9,26.5 26.2,33.2c6,6.5 15.8,13.2 25.8,17.8c5.3,2.4 10.8,7.3 10.8,9.6c0,0.6 -1.9,-0.3 -4.3,-2c-7.9,-5.4 -16.2,-9 -26.8,-11.6c-10.7,-2.6 -26.9,-5.5 -30.4,-5.5c-2.3,0.1 31.6,14.9 42.000001,18.4c3.9,1.3 10.4,3.2 14.6,4.1l7.6,1.8l3.6,7.3c2,4.1 3.4,7.4 3.1,7.4c-0.3,0 -7.5,-3.8 -16,-8.5c-8.5,-4.7 -18.4,-9.7 -22,-11.1c-6.7,-2.5 -50.300001,-13.9 -50.900001,-13.2c-0.3,0.3 25.2,12.1 48.000001,22.1c5,2.2 16.8,6.8 26.4,10.2c17.2,6.2 19.9,7.8 20.1,12.1c0,0.7 -5.5,-1.3 -12.2,-4.3c-17.5,-7.8 -22.2,-9.1 -41.200001,-11.9c-18.8,-2.8 -27.4,-5.5 -47.500001,-15c-6.3,-3 -11.7,-5.4 -12,-5.4c-0.3,0 2.6,2.3 6.4,5.1c9,6.5 19.6,11.9 32.1,16.2c5.4,1.9 14.4,5.8 19.9,8.6c14.1,7.3 33.700001,12.8 51.900001,14.7l6.5,0.7l2.1,4.9c1.2,2.8 1.9,5.2 1.7,5.5c-0.3,0.2 -10.6,-2.9 -22.9,-7.1c-25.3,-8.5 -36.400001,-11 -55.800001,-12.6c-7.4,-0.6 -20.2,-1.8 -28.4,-2.6c-16.3,-1.5 -17.1,-1.6 -16.5,-1c0.2,0.2 10.3,3 22.4,6.1c12.1,3.1 26.7,6.9 32.5,8.5c16.4,4.4 36.000001,8.6 54.000001,11.5c9.1,1.5 17,3.2 17.6,3.9c1.3,1.3 7.8,17.5 7.3,18c-0.2,0.2 -10.7,-4.3 -23.4,-10c-12.6,-5.7 -27.7,-11.9 -33.5,-13.8c-9.1,-3 -76.700001,-17.3 -77.500001,-16.4c-0.5,0.5 53.500001,20.2 80.000001,29.2c13.2,4.5 31.5,10.2 40.700001,12.6c15.1,4 16.9,4.7 17.7,7c0.5,1.4 2.1,5.5 3.5,9.2l2.5,6.7l-5.7,-2.6c-3.1,-1.5 -13.3,-6.4 -22.5,-11c-28.5,-14.1 -34.800001,-16.3 -66.700001,-23.3c-12.4,-2.7 -27.6,-6.1 -33.900001,-7.5c-6.2,-1.4 -11.5,-2.5 -11.7,-2.3c-0.2,0.2 4,2.1 9.4,4.2c5.3,2.1 20.1,8.1 32.7,13.3c36.000001,14.8 50.200001,20 76.500001,28.2l24.5,7.7l3.4,9.2c1.8,5.1 3.2,9.5 2.9,9.7c-0.2,0.3 -15.5,-5.8 -33.900001,-13.5c-32.3,-13.4 -33.900001,-13.9 -47.900001,-16.4c-15.3,-2.6 -21.6,-4.8 -52.500001,-18.6c-20,-8.9 -22.5,-10 -22.5,-9.6c0,0.2 3.3,2.3 7.3,4.6c3.9,2.4 10.4,6.4 14.2,9c9.5,6.4 20,12 32.4,17.5c5.8,2.5 11.8,5.6 13.5,6.9c6.2,4.7 16.9,10.7 25.9,14.6c10.9,4.6 22.6,7.6 47.200001,11.9c9.9,1.8 18.6,3.5 19.4,3.9c0.7,0.4 2.6,4.2 4.2,8.5c2.8,7.8 2.8,7.8 0.6,7.1c-1.2,-0.3 -17.7,-6.4 -36.700001,-13.4c-34.800001,-12.8 -38.800001,-14 -66.000001,-18.5c-5.2,-0.9 -19.1,-3.6 -30.9,-6.1c-11.8,-2.4 -21.6,-4.3 -21.8,-4c-0.2,0.2 1.6,0.8 4.1,1.5c8,2 35.900001,11.3 45.700001,15.2c5.3,2.1 14.3,6.8 20,10.5c20.8,13.7 33,17.4 88.600001,26.9c2.9,0.5 3.3,1.1 5.7,8.2c1.4,4.2 2.5,7.8 2.3,7.9c-0.2,0.2 -4.5,-1 -9.7,-2.6c-15.2,-4.8 -33.800001,-9.7 -43.000001,-11.4c-4.7,-0.8 -19.6,-2 -33.1,-2.6c-20.1,-0.8 -25.9,-1.4 -31.5,-3.1c-9.8,-3 -23.5,-9.9 -34.400001,-17.3c-5.2,-3.6 -9.7,-6.3 -9.9,-6c-1.6,1.6 19.6,19 30.7,25.2c11,6.1 18.6,8.1 36.200001,9.8c19.8,1.9 28,4 38.500001,10c7.3,4.2 15.5,5.5 38.100001,6.1l21.2,0.6l3.7,11.4c2,6.3 3.5,11.8 3.3,12.3c-0.3,0.7 -7.1,-1.7 -53.500001,-18.9c-25.5,-9.4 -36.500001,-11.4 -79.300001,-14.5c-17.9,-1.2 -32.7,-2.1 -32.9,-2c-0.5,0.4 -0.3,0.5 17.6,4.8c18.4,4.4 35.700001,10 59.800001,19.3c35.200001,13.7 38.800001,14.6 72.300001,18.4c10.3,1.1 19,2.4 19.3,2.7c0.8,1 5.1,16.3 4.7,16.8c-0.2,0.2 -17.7,-6.2 -38.800001,-14.1c-43.000001,-16.3 -42.800001,-16.2 -67.000001,-20.5c-9.6,-1.7 -29,-5.5 -42.900001,-8.5c-14,-3 -26,-5.5 -26.5,-5.5c-0.6,0.1 4.8,1.9 11.9,4.1c32.9,10 53.400001,18.2 65.400001,26.2c23.6,15.8 36.200001,20.2 82.100001,28.6l20.4,3.7l2.7,9.2c1.5,5.1 2.5,9.2 2.3,9.2c-0.2,0 -6.5,-2.8 -14.1,-6.1c-20.8,-9.3 -27.5,-11.5 -46.400001,-15.3c-32.4,-6.6 -33.900001,-6.7 -78.400001,-7.1c-25.9,-0.3 -39.700001,-0.1 -37.500001,0.5c1.9,0.5 8.7,1.2 15,1.5c20.9,1.1 38.200001,5.8 64.600001,17.5c22.2,9.9 42.900001,14.4 90.200001,20c11.3,1.4 11.2,1.3 12.7,9.3l0.7,3.5l-8.9,-1.9c-4.8,-1.1 -16.9,-4 -26.8,-6.4c-26.9,-6.6 -33.4,-7.5 -61.500001,-8.5c-14,-0.5 -32.9,-1.8 -42.000001,-3c-16.1,-2 -44.700001,-6.4 -49.900001,-7.7c-1.4,-0.3 -2.4,-0.3 -2.1,0c0.9,0.9 35.700001,11.3 42.500001,12.7c8.1,1.6 23.8,6.1 37.600001,10.9c31.7,10.9 47.500001,13.4 92.400001,14.6c12.1,0.4 22.1,0.8 22.3,1c0.3,0.2 5.2,17.5 5.2,18.2c0,0.1 -3.2,-1.1 -7.1,-2.7c-3.9,-1.7 -11.3,-4.3 -16.5,-6l-9.4,-3l-28.8,0c-30.4,0 -48.600001,1.2 -83.200001,5.5c-28.7,3.6 -29.9,4.3 -8.2,4.4c17.2,0.1 24.3,0.8 47.700001,4.6c9.6,1.6 67.800001,4.5 89.400001,4.5c18.5,0 18.4,0 20.3,7.1c1.2,4.6 1.3,5.9 0.3,5.9c-0.7,0 -8.6,-1.8 -17.6,-4.1c-16.1,-4 -16.6,-4.1 -30.9,-3.7c-16.6,0.5 -19.5,1.3 -33.3,9.7c-8.1,4.9 -28.7,19.9 -35.200001,25.6l-3,2.7l3.5,-2c1.9,-1.1 10.5,-6.1 19,-11.1c21.2,-12.5 24,-13.5 37.000001,-13.5c8,0 12.6,0.6 19.5,2.5c8,2.1 11,2.4 26.8,2.4l17.8,0l1,4c0.6,2.2 1.4,5.6 2,7.5c0.5,1.9 0.9,3.8 0.9,4.1c0,0.3 -3.5,0 -7.7,-0.7c-12.1,-2 -32.2,-1.7 -42.500001,0.6c-11.3,2.5 -13.6,3.8 -20,11.2c-7,8.1 -8.7,9.9 -12.3,12.6l-3,2.3l4.2,-2.1c12.3,-5.9 24.8,-9 37.000001,-9c5.2,0 15.2,-1.3 26.9,-3.5c10.3,-2 19,-3.2 19.4,-2.8c0.8,0.9 9.8,37.600001 12.5,50.800001c0.9,4.4 1.8,8.1 2,8.3c0.6,0.6 7.5,-10.5 7.5,-12.1c0,-1.2 -16.8,-59.600001 -18.6,-64.600001c-0.4,-1.2 2.5,-1.3 18.9,-0.8c14.5,0.5 22.5,0.3 31.5,-0.8c24.3,-3 25.6,-3.4 52.000001,-16.4c13.3,-6.6 24.2,-12.3 24.2,-12.7c0,-0.3 -0.8,-0.3 -1.7,0.1c-8.6,3.3 -48.200001,14.9 -53.300001,15.6c-3.6,0.5 -15,0.9 -25.5,0.9c-17.1,0 -20.4,0.3 -33.5,3c-8,1.6 -14.6,3 -14.7,3c-0.4,0 -3.3,-10.3 -3.3,-11.7c0,-0.7 13.4,-8 29.8,-16.2c16.3,-8.2 33.2,-17.2 37.400001,-20c4.4,-2.9 16.1,-12.9 27.1,-23.3c10.6,-10.1 26.2,-24.6 34.700001,-32.2c23.3,-20.9 23.8,-21.7 5.5,-7.2c-11.7,9.2 -24.5,16.3 -46.900001,26c-19.3,8.3 -28.6,14.6 -67.800001,46.200001l-22.7,18.3l-2.1,-7.2c-1.2,-4 -2.5,-8.5 -3.1,-10.1c-0.5,-1.6 -0.9,-3 -0.9,-3.2c0,-0.3 26.6,-16.8 41.000001,-25.4c21.5,-12.8 36.700001,-24.7 45.000001,-35.000001c7.8,-9.8 35.000001,-46.800001 35.000001,-47.700001c0,-0.4 -10,9.2 -22.2,21.4l-22.3,22.1l-22.5,10.9c-25.6,12.4 -32,17 -47.200001,33.4c-5,5.4 -9.4,9.7 -9.7,9.4c-0.8,-0.8 -7,-21.7 -7.1,-23.6c0,-1.7 15,-9 38.500001,-18.9c12.1,-5.1 27.2,-12.8 34.000001,-17.3c2.8,-1.8 12.4,-9.8 21.5,-17.7c9.1,-8 23.9,-20.6 32.9,-28c22.4,-18.4 24.6,-20.5 11.1,-10.9c-12.8,9.2 -26.3,15.9 -48.300001,24.3c-21.1,8 -32.2,14.7 -70.800001,43.200001c-11.6,8.5 -21.4,15.2 -21.8,14.9c-0.9,-0.5 -3.6,-9.4 -3,-9.8c1.4,-1 28.3,-17.5 37.900001,-23.2c16.3,-9.7 30.6,-19.4 36.800001,-25c2.9,-2.6 9.4,-9.5 14.4,-15.4c13.6,-15.7 30.6,-34.700001 45.600001,-50.800001c7.3,-7.9 13.1,-14.3 12.8,-14.3c-0.4,0 -5.7,4.8 -11.9,10.8c-14,13.4 -26.3,21.6 -53.200001,35.500001c-15.8,8.2 -27.4,17.7 -62.700001,51.800001l-22.7,21.9l-2.5,-8.3c-1.4,-4.6 -2.7,-9.3 -2.8,-10.5c-0.2,-1.6 3.2,-4.4 17.7,-14.2c21.5,-14.6 21.9,-15 45.600001,-36.100001c10.3,-9.2 21.5,-18.7 25,-21.1c7.8,-5.5 31.6,-19.8 49.600001,-29.8c7.3,-4.1 13.1,-7.5 13,-7.7c-1.1,-1.1 -98.000001,46.800001 -107.700002,53.200001c-10,6.6 -31.5,30.1 -41.700001,45.700001c-1.4,2.1 -2.8,3.8 -3.2,3.8c-0.6,0 -7.1,-21.6 -7.1,-23.7c0,-0.6 6.4,-5.8 14.3,-11.4c50.500001,-36.400001 58.800001,-45.100001 82.400001,-85.700001c16.2,-27.8 29.5,-53.200001 27.9,-53.200001c-0.2,0 -5.7,7.5 -12.2,16.7c-9,12.6 -15.8,20.7 -27.9,33.3c-8.8,9.1 -21.7,23 -28.6,31c-11.4,13.1 -57.100001,59.000001 -58.800001,59.000001c-0.7,0 -6.5,-17 -5.9,-17.4c2.1,-1.6 49.700001,-40.000001 56.800001,-45.900001c11.8,-9.9 24.7,-23.9 30.8,-33.5c2.6,-4 11.8,-18.2 20.6,-31.5c8.7,-13.3 17,-26 18.4,-28.2l2.5,-4l-2.4,2c-1.3,1 -10,9.4 -19.4,18.5c-9.3,9.1 -27.6,26.8 -40.600001,39.300001c-24.6,23.6 -35.100001,34.900001 -55.900001,60.200001c-6.7,8.2 -12.6,15.1 -13.1,15.3c-0.4,0.2 -2,-3.5 -3.5,-8.1l-2.7,-8.4l20.5,-24.4c36.300001,-43.300001 38.500001,-46.700001 52.600001,-78.400001c4.9,-11 12.2,-27.2 16.2,-36.000001c11.3,-25 11.4,-24.8 -1,-7c-4.6,6.6 -17.7,25.1 -29.1,41.100001c-24.2,33.900001 -33.1,47.600001 -47.600001,73.200001c-5.8,10.3 -11.4,20 -12.3,21.5l-1.7,2.9l-4.5,-12.3l-4.5,-12.2l18.8,-23.7c27.3,-34.500001 27.1,-34.200001 45.800001,-77.900001c6.7,-15.6 12.4,-28.8 12.7,-29.3c0.3,-0.4 0.3,-0.8 0,-0.8c-0.8,0 -48.500001,71.300001 -55.300001,82.500001c-3.3,5.5 -10,17.3 -14.8,26.3c-4.8,9 -9.1,16 -9.6,15.5c-0.9,-0.9 -6.9,-15.9 -6.9,-17.2c0,-0.5 8.4,-13.4 18.6,-28.8c10.3,-15.3 19.5,-29.8 20.6,-32.3c1.1,-2.5 4.2,-11.5 7,-20c2.8,-8.5 8.1,-24.1 11.9,-34.700001c3.8,-10.5 6.9,-19.5 6.9,-20c0,-0.4 -2.6,4.8 -5.8,11.7c-8.4,18.1 -15.9,31.2 -29.1,51.100001c-12.9,19.3 -20.3,33.1 -27.6,51.400001c-2.7,6.6 -5.1,12.3 -5.5,12.7c-0.5,0.7 -8,-15.6 -8,-17.4c0,-0.4 5.8,-11.6 13,-25c11,-20.7 13.4,-26 16.1,-35.800001c1.7,-6.3 5.8,-20.9 9,-32.4c3.3,-11.5 5.7,-21.1 5.5,-21.3c-0.2,-0.2 -1.3,2.5 -2.6,5.9c-4.5,12.7 -10.5,25.8 -22.4,49.300001c-11.3,22.1 -13.2,26.8 -21.3,51.500001c-0.4,1.3 -6.3,-9.9 -6.3,-12.1c0,-0.4 6.7,-13 14.9,-27.9c9.7,-17.6 15.1,-28.5 15.5,-31.3c0.4,-2.3 3.7,-14.5 7.5,-27c3.7,-12.5 6.5,-22.4 6.1,-22c-2.2,2.5 -26.5,55.900001 -34.600001,76.100001c-5.2,13 -9.9,24.8 -10.5,26.2c-1.1,2.4 -1.2,2.3 -4.5,-4.2l-3.3,-6.6l10.5,-22.9c7.4,-15.9 11.2,-25.4 12.5,-31.3c1,-4.7 3.7,-15.5 5.8,-24c2.2,-8.5 3.9,-15.5 3.8,-15.7c-0.7,-0.6 -21.3,53.600001 -26.7,70.200001c-3.4,10.4 -6.6,19.3 -6.9,19.8c-0.4,0.4 -1.8,-1.5 -3.1,-4.2l-2.3,-5l5.6,-12.3c9.5,-21.2 11.8,-28.7 12.7,-42.300001c0.5,-6.6 1.8,-18.5 3,-26.3c1.2,-7.9 2,-14.6 1.7,-14.8c-0.2,-0.2 -3.3,9.8 -7,22.4z"
       style="fill:#299259;fill-opacity:1" />
  </g>
</svg>
