<?xml version="1.0" encoding="UTF-8" standalone="no"?>
<!-- Generator: Adobe Illustrator 19.0.0, SVG Export Plug-In . SVG Version: 6.00 Build 0)  -->

<svg
   xmlns:dc="http://purl.org/dc/elements/1.1/"
   xmlns:cc="http://creativecommons.org/ns#"
   xmlns:rdf="http://www.w3.org/1999/02/22-rdf-syntax-ns#"
   xmlns:svg="http://www.w3.org/2000/svg"
   xmlns="http://www.w3.org/2000/svg"
   xmlns:sodipodi="http://sodipodi.sourceforge.net/DTD/sodipodi-0.dtd"
   xmlns:inkscape="http://www.inkscape.org/namespaces/inkscape"
   version="1.1"
   id="Capa_1"
   x="0px"
   y="0px"
   viewBox="0 0 512 512"
   style="enable-background:new 0 0 512 512;"
   xml:space="preserve"
   sodipodi:docname="rocket.svg"
   inkscape:version="0.92.4 5da689c313, 2019-01-14"><metadata
   id="metadata61"><rdf:RDF><cc:Work
       rdf:about=""><dc:format>image/svg+xml</dc:format><dc:type
         rdf:resource="http://purl.org/dc/dcmitype/StillImage" /><dc:title></dc:title></cc:Work></rdf:RDF></metadata><defs
   id="defs59" /><sodipodi:namedview
   pagecolor="#ffffff"
   bordercolor="#666666"
   borderopacity="1"
   objecttolerance="10"
   gridtolerance="10"
   guidetolerance="10"
   inkscape:pageopacity="0"
   inkscape:pageshadow="2"
   inkscape:window-width="945"
   inkscape:window-height="1041"
   id="namedview57"
   showgrid="false"
   inkscape:zoom="0.921875"
   inkscape:cx="236.32438"
   inkscape:cy="266.29566"
   inkscape:window-x="965"
   inkscape:window-y="8"
   inkscape:window-maximized="0"
   inkscape:current-layer="Capa_1" />
<g
   id="g6"
   transform="matrix(-1,0,0,1,496.64,0)">
	<g
   id="g4">
		<path
   d="M 496.64,232.96 C 468.48,158.72 394.24,120.32 312.32,135.68 232.96,56.32 122.88,2.56 12.8,0 5.12,0 0,5.12 0,12.8 c 2.56,110.08 56.32,220.16 133.12,299.52 -12.8,79.36 23.04,156.16 97.28,184.32 -12.8,-33.28 -15.36,-71.68 -5.12,-110.08 12.8,7.68 25.6,15.36 38.4,20.48 5.12,2.56 10.24,2.56 15.36,-2.56 l 128,-128 c 2.56,-2.56 2.56,-7.68 0,-12.8 -5.12,-12.8 -12.8,-25.6 -20.48,-35.84 38.4,-10.24 76.8,-7.68 110.08,5.12 z m -281.6,-17.92 c -20.48,20.48 -51.2,20.48 -71.68,0 -20.48,-20.48 -20.48,-51.2 0,-71.68 20.48,-20.48 51.2,-20.48 71.68,0 20.48,20.48 20.48,51.2 0,71.68 z"
   id="path2"
   inkscape:connector-curvature="0" />
	</g>
</g>
<g
   id="g12"
   transform="matrix(-1,0,0,1,607.88746,81.186441)">
	<g
   id="g10">
		<path
   d="m 504.32,368.64 -53.76,-53.76 c -10.24,-10.24 -25.6,-10.24 -35.84,0 -10.24,10.24 -10.24,25.6 0,35.84 l 53.76,53.76 c 10.24,10.24 25.6,10.24 35.84,0 10.24,-10.24 10.24,-25.6 0,-35.84 z"
   id="path8"
   inkscape:connector-curvature="0" />
	</g>
</g>
<g
   id="g18"
   transform="matrix(-1,0,0,1,421.05492,-101.9661)">
	<g
   id="g16">
		<path
   d="m 404.48,468.48 -53.76,-53.76 c -10.24,-10.24 -25.6,-10.24 -35.84,0 -10.24,10.24 -10.24,25.6 0,35.84 l 53.76,53.76 c 10.24,10.24 25.6,10.24 35.84,0 10.24,-10.24 10.24,-25.6 0,-35.84 z"
   id="path14"
   inkscape:connector-curvature="0" />
	</g>
</g>
<g
   id="g24"
   transform="matrix(-1,0,0,1,518.20475,-17.355932)">
	<g
   id="g22">
		<path
   d="m 473.6,440.32 -74.24,-74.24 c -10.24,-10.24 -25.6,-10.24 -35.84,0 -10.24,10.24 -10.24,25.6 0,35.84 l 74.24,74.24 c 10.24,10.24 25.6,10.24 35.84,0 10.24,-10.24 10.24,-25.6 0,-35.84 z"
   id="path20"
   inkscape:connector-curvature="0" />
	</g>
</g>
<g
   id="g26">
</g>
<g
   id="g28">
</g>
<g
   id="g30">
</g>
<g
   id="g32">
</g>
<g
   id="g34">
</g>
<g
   id="g36">
</g>
<g
   id="g38">
</g>
<g
   id="g40">
</g>
<g
   id="g42">
</g>
<g
   id="g44">
</g>
<g
   id="g46">
</g>
<g
   id="g48">
</g>
<g
   id="g50">
</g>
<g
   id="g52">
</g>
<g
   id="g54">
</g>
<g
   id="g3897"
   transform="matrix(0.36519548,0,0,0.33527858,229.11958,69.406903)"><circle
     id="circle3785"
     r="64.099998"
     cy="219.948"
     cx="71.598999"
     style="fill:#965a50" /><circle
     id="circle3787"
     r="40.060001"
     cy="219.948"
     cx="71.598999"
     style="fill:#d4af91" /><circle
     id="circle3789"
     r="64.099998"
     cy="219.948"
     cx="440.14899"
     style="fill:#965a50" /><circle
     id="circle3791"
     r="40.060001"
     cy="219.948"
     cx="440.14899"
     style="fill:#ebc9a0" /><path
     id="path3793"
     d="m 436.905,257.862 c -8.117,-14.005 -12.777,-29.742 -12.777,-45.93 v 0 C 424.128,141.715 381.085,81.604 319.971,56.39 V 27.654 L 279.911,43.678 271.899,11.63 C 250.767,18.674 232.74,33.458 219.162,47.817 143.916,64.586 87.621,131.633 87.621,211.932 c 0,16.188 -4.66,31.924 -12.777,45.93 -12.341,21.294 -19.272,45.098 -19.272,70.246 0,90.711 89.678,164.248 200.302,164.248 110.624,0 200.302,-73.536 200.302,-164.248 0,-25.149 -6.931,-48.952 -19.271,-70.246 z"
     style="fill:#af6e5a"
     inkscape:connector-curvature="0" /><path
     id="path3795"
     d="m 143.705,356.817 c 0,-29.339 6.93,-57.11 19.271,-81.953 8.118,-16.34 12.777,-34.698 12.777,-53.585 0,-81.532 42.659,-151.311 103.321,-180.947 L 271.898,11.63 C 250.766,18.674 232.739,33.458 219.16,47.817 143.915,64.585 87.62,131.633 87.62,211.932 c 0,16.188 -4.659,31.924 -12.777,45.93 -12.341,21.294 -19.271,45.098 -19.271,70.246 0,73.217 58.438,135.219 139.143,156.421 -31.707,-33.901 -51.01,-78.642 -51.01,-127.712 z"
     style="fill:#965a50"
     inkscape:connector-curvature="0" /><path
     id="path3797"
     d="m 255.874,460.306 c 66.374,0 120.181,-43.046 120.181,-96.145 0,-11.016 -2.342,-21.582 -6.631,-31.422 -6.219,-14.269 -4.102,-30.646 5.889,-42.582 12.743,-15.224 19.315,-35.779 15.846,-57.858 -4.764,-30.328 -29.283,-54.804 -59.617,-59.525 -23.18,-3.608 -44.666,3.85 -60.059,17.89 -4.375,3.991 -9.993,5.986 -15.607,5.986 -5.618,0 -11.236,-1.995 -15.611,-5.986 -15.393,-14.04 -36.879,-21.498 -60.059,-17.89 -30.335,4.721 -54.853,29.197 -59.617,59.525 -3.468,22.079 3.104,42.634 15.846,57.858 9.991,11.936 12.108,28.313 5.889,42.582 -4.289,9.84 -6.631,20.406 -6.631,31.422 0,53.1 53.807,96.145 120.181,96.145 z"
     style="fill:#faebc8"
     inkscape:connector-curvature="0" /><path
     id="path3799"
     d="m 135.693,364.161 c 0,17.97 6.275,34.729 17.002,49.117 -5.761,-17.863 -8.99,-36.787 -8.99,-56.461 0,-29.339 6.93,-57.11 19.271,-81.953 8.118,-16.34 12.777,-34.698 12.777,-53.585 0,-16.792 1.901,-33.042 5.305,-48.588 -0.287,0.041 -0.565,0.039 -0.853,0.084 -30.335,4.721 -54.852,29.197 -59.617,59.525 -3.468,22.08 3.104,42.635 15.846,57.859 9.992,11.936 12.109,28.312 5.89,42.582 -4.288,9.838 -6.631,20.404 -6.631,31.42 z"
     style="fill:#f5dcb4"
     inkscape:connector-curvature="0" /><path
     id="path3801"
     d="m 175.754,356.15 c 0,39.825 35.871,72.109 80.121,72.109 44.25,0 80.121,-32.284 80.121,-72.109 z"
     style="fill:#4b3f4e"
     inkscape:connector-curvature="0" /><path
     id="path3803"
     d="m 209.709,415.025 c 13.056,8.308 28.96,13.233 46.165,13.233 17.205,0 33.109,-4.925 46.165,-13.233 -5.788,-20.051 -24.316,-34.839 -46.165,-34.839 -21.849,0 -40.377,14.788 -46.165,34.839 z"
     style="fill:#e6646e"
     inkscape:connector-curvature="0" /><path
     id="path3805"
     d="M 71.597,259.337 C 46.227,316.757 20.968,410.584 7.5,500.367 h 96.145 c 16.024,-112.169 44.733,-190.286 44.733,-190.286 z"
     style="fill:#af6e5a"
     inkscape:connector-curvature="0" /><path
     id="path3807"
     d="M 45.182,500.367 C 58.388,425.083 84.973,336.18 106.605,282.472 L 71.597,259.337 C 46.227,316.757 20.968,410.584 7.5,500.367 Z"
     style="fill:#965a50"
     inkscape:connector-curvature="0" /><path
     id="path3809"
     d="m 84.367,148.295 c 11.417,2.198 19.273,12.862 19.273,24.488 v 32.035 l 25.746,-25.746 c 22.537,-22.537 58.548,-26.787 84.287,-7.988 32.439,23.692 35.017,69.978 7.734,97.261 l -35.922,35.922 c -23.867,23.867 -62.921,23.867 -86.787,0 L 88.427,293.996 C 67.391,272.96 55.573,244.43 55.573,214.68 V 171.868 C 55.566,157.04 69.007,145.339 84.367,148.295 Z"
     style="fill:#f5dcb4"
     inkscape:connector-curvature="0" /><path
     id="path3811"
     d="m 210.276,168.847 c -25.435,-16.105 -59.322,-11.343 -80.891,10.226 l -25.745,25.746 v -32.036 c 0,-11.627 -7.857,-22.29 -19.273,-24.489 -15.36,-2.957 -28.8,8.744 -28.794,23.574 v 42.813 c 0,29.749 11.818,58.28 32.854,79.315 l 10.269,10.271 c -8.818,-32.61 36.898,-134.136 111.58,-135.42 z"
     style="fill:#ebc9a0"
     inkscape:connector-curvature="0" /><path
     id="path3813"
     d="m 440.403,259.337 c 25.37,57.42 50.629,151.247 64.097,241.03 H 408.355 C 392.331,388.198 363.622,310.08 363.622,310.08 Z"
     style="fill:#af6e5a"
     inkscape:connector-curvature="0" /><path
     id="path3815"
     d="m 427.633,148.295 c -11.417,2.198 -19.273,12.862 -19.273,24.488 v 32.035 l -25.746,-25.746 c -22.537,-22.537 -58.548,-26.787 -84.287,-7.988 -32.439,23.692 -35.017,69.978 -7.734,97.261 l 35.922,35.922 c 23.867,23.867 62.921,23.867 86.787,0 l 10.271,-10.271 c 21.036,-21.036 32.854,-49.566 32.854,-79.316 v -42.812 c 0.007,-14.828 -13.434,-26.529 -28.794,-23.573 z"
     style="fill:#f5dcb4"
     inkscape:connector-curvature="0" /><path
     id="path3817"
     d="m 220.581,314.812 16.032,8.016 c 1.077,0.539 2.222,0.793 3.349,0.793 2.751,0 5.4,-1.52 6.714,-4.147 1.853,-3.705 0.351,-8.21 -3.354,-10.062 l -16.032,-8.016 c -3.707,-1.854 -8.211,-0.351 -10.063,3.354 -1.852,3.704 -0.35,8.209 3.354,10.062 z"
     inkscape:connector-curvature="0" /><path
     id="path3819"
     d="m 272.038,323.621 c 1.127,0 2.271,-0.255 3.349,-0.793 l 16.032,-8.016 c 3.704,-1.852 5.206,-6.357 3.354,-10.062 -1.852,-3.705 -6.355,-5.208 -10.063,-3.354 l -16.032,8.016 c -3.704,1.852 -5.206,6.357 -3.354,10.062 1.314,2.628 3.963,4.147 6.714,4.147 z"
     inkscape:connector-curvature="0" /><path
     id="path3821"
     d="m 168.339,356.2 c 0,43.917 39.324,79.645 87.661,79.645 48.337,0 87.661,-35.729 87.661,-79.645 0,-4.142 -3.357,-7.5 -7.5,-7.5 H 175.839 c -4.143,0 -7.5,3.358 -7.5,7.5 z M 256,404.813 c -4.143,0 -7.5,3.358 -7.5,7.5 v 8.18 c -10.713,-0.982 -20.738,-4.047 -29.565,-8.725 6.48,-14.503 20.944,-24.019 37.065,-24.019 16.192,0 30.594,9.496 37.067,24.018 -8.828,4.679 -18.853,7.744 -29.567,8.726 v -8.18 c 0,-4.142 -3.357,-7.5 -7.5,-7.5 z M 328.175,363.7 c -2.029,15.556 -10.303,29.435 -22.511,39.625 -9.326,-18.576 -28.366,-30.576 -49.664,-30.576 -21.206,0 -40.314,12.028 -49.656,30.582 -12.212,-10.19 -20.489,-24.071 -22.519,-39.631 z"
     inkscape:connector-curvature="0" /><path
     id="path3823"
     d="M 454.662,290.108 C 487.668,283.414 512,254.074 512,219.926 c 0,-33.837 -23.998,-63.316 -57.079,-70.146 -0.782,-0.799 -1.607,-1.563 -2.479,-2.284 -7.284,-6.019 -16.855,-8.431 -26.265,-6.62 -2.868,0.552 -5.579,1.511 -8.091,2.806 C 400.799,102.691 368.418,69.564 327.629,51.348 V 27.539 c 0,-2.489 -1.234,-4.815 -3.295,-6.21 -2.061,-1.395 -4.679,-1.678 -6.99,-0.753 L 285.241,33.417 279.309,9.688 c -0.507,-2.026 -1.836,-3.75 -3.667,-4.755 -1.833,-1.005 -4.001,-1.201 -5.981,-0.541 -18.575,6.192 -36.821,18.472 -54.261,36.515 -27.77,6.577 -53.772,19.995 -75.329,38.895 -20.015,17.547 -35.845,39.519 -46.142,63.89 -2.516,-1.299 -5.232,-2.261 -8.105,-2.814 -9.405,-1.811 -18.98,0.601 -26.265,6.62 -0.873,0.721 -1.698,1.485 -2.479,2.284 -33.081,6.83 -57.079,36.309 -57.079,70.146 0,34.148 24.332,63.488 57.338,70.182 -20.775,53.555 -45.116,128.346 -57.255,209.27 -0.614,4.097 2.208,7.916 6.305,8.53 0.377,0.057 0.751,0.084 1.122,0.084 3.649,0 6.85,-2.669 7.407,-6.388 12.448,-82.982 37.983,-159.522 58.99,-212.672 2.866,3.609 5.949,7.08 9.257,10.388 l 10.275,10.276 c 11.046,11.046 25.244,17.844 40.614,19.621 -6.783,20.23 -24.789,79.242 -37.785,170.213 -0.586,4.101 2.264,7.899 6.364,8.485 0.359,0.051 0.717,0.076 1.07,0.076 3.672,0 6.881,-2.7 7.415,-6.44 2.271,-15.902 4.708,-30.804 7.196,-44.624 38.016,27.828 86.435,43.047 137.686,43.047 51.229,0 99.668,-15.222 137.688,-43.048 2.5,13.887 4.93,28.775 7.194,44.624 0.534,3.741 3.743,6.44 7.415,6.44 0.354,0 0.711,-0.025 1.07,-0.076 4.101,-0.586 6.95,-4.385 6.364,-8.485 -12.996,-90.972 -31.001,-149.984 -37.785,-170.213 14.701,-1.704 28.388,-8.02 39.233,-18.278 3.01,-2.846 3.142,-7.593 0.295,-10.603 -2.847,-3.01 -7.595,-3.141 -10.602,-0.295 -20.997,19.859 -54.707,19.387 -75.144,-1.052 l -35.939,-35.94 c -11.669,-11.668 -17.623,-27.881 -16.338,-44.482 1.28,-16.522 9.734,-31.637 23.195,-41.468 22.193,-16.208 54.266,-13.097 74.602,7.239 l 25.759,25.759 c 2.146,2.145 5.369,2.786 8.174,1.626 2.803,-1.161 4.63,-3.896 4.63,-6.929 v -32.052 c 0,-8.32 5.675,-15.687 13.201,-17.136 5.072,-0.977 9.998,0.251 13.875,3.454 3.825,3.16 6.018,7.812 6.016,12.767 v 42.834 c 0,22.749 -7.579,45.251 -21.342,63.361 -2.506,3.298 -1.864,8.003 1.434,10.51 2.707,2.057 6.36,1.989 8.97,0.076 21.031,53.163 46.645,129.846 59.118,212.996 0.558,3.719 3.757,6.388 7.407,6.388 0.37,0 0.745,-0.027 1.122,-0.084 4.097,-0.614 6.919,-4.433 6.305,-8.53 -12.139,-80.925 -36.48,-155.716 -57.255,-209.271 z M 15,219.926 c 0,-22.519 13.441,-42.594 33.289,-51.604 -0.128,1.156 -0.193,2.326 -0.192,3.505 v 42.834 c 0,21.13 5.441,41.423 15.653,59.284 -0.262,0.647 -0.522,1.282 -0.786,1.937 C 35.541,271.672 15,247.829 15,219.926 Z m 78.77,68.787 C 73.99,268.932 63.096,242.633 63.096,214.661 v -42.837 c -0.002,-4.952 2.19,-9.604 6.016,-12.764 3.009,-2.485 6.648,-3.781 10.497,-3.781 1.112,0 2.242,0.108 3.378,0.327 7.526,1.449 13.201,8.815 13.201,17.136 v 32.052 c 0,3.034 1.827,5.768 4.63,6.929 2.802,1.161 6.027,0.519 8.174,-1.626 l 25.759,-25.759 c 20.336,-20.336 52.41,-23.449 74.602,-7.239 13.461,9.831 21.915,24.946 23.195,41.468 1.285,16.601 -4.669,32.813 -16.338,44.482 l -35.939,35.94 c -10.132,10.132 -23.667,15.712 -38.112,15.712 -14.444,0 -27.979,-5.58 -38.112,-15.712 z M 256,484.974 c -50.716,0 -98.359,-15.799 -134.595,-44.543 3.761,-19.322 7.536,-36.129 10.955,-50.113 14.293,44.583 64.306,77.591 123.641,77.591 59.32,0 109.322,-32.993 123.63,-77.559 3.536,14.438 7.286,31.177 10.967,50.076 -36.24,28.743 -83.904,44.548 -134.598,44.548 z m 29.183,-211.319 35.939,35.94 c 10.697,10.697 24.404,17.426 39.254,19.447 0.628,2.29 1.402,4.545 2.356,6.733 3.987,9.149 6.01,18.719 6.01,28.441 0,48.906 -50.576,88.693 -112.742,88.693 -62.166,0 -112.742,-39.788 -112.742,-88.693 0,-9.722 2.022,-19.292 6.01,-28.441 0.952,-2.183 1.729,-4.437 2.357,-6.725 14.847,-2.013 28.533,-8.736 39.253,-19.455 l 35.939,-35.94 c 14.771,-14.771 22.31,-35.271 20.686,-56.247 -0.411,-5.305 -1.412,-10.492 -2.946,-15.486 3.658,1.449 7.549,2.18 11.444,2.18 3.893,0 7.784,-0.732 11.442,-2.18 -1.534,4.994 -2.535,10.181 -2.946,15.486 -1.624,20.976 5.915,41.477 20.686,56.247 z M 400.811,172.742 v 13.945 l -12.955,-12.956 c -25.516,-25.514 -65.95,-29.275 -94.057,-8.746 -3.124,2.282 -6.03,4.793 -8.71,7.496 -0.159,0.066 -0.318,0.13 -0.475,0.208 -6.548,3.275 -12.621,7.448 -18.053,12.402 -5.922,5.403 -15.202,5.401 -21.126,-0.001 -5.575,-5.085 -11.817,-9.326 -18.556,-12.637 -2.672,-2.692 -5.567,-5.194 -8.68,-7.467 -28.107,-20.527 -68.542,-16.768 -94.057,8.746 l -12.955,12.956 v -13.945 c 0,-6.741 -1.987,-13.065 -5.421,-18.307 9.301,-24.249 24.542,-46.128 44.192,-63.355 20.248,-17.752 44.779,-30.217 70.94,-36.047 1.461,-0.325 2.791,-1.08 3.818,-2.167 13.755,-14.545 27.882,-25.047 42.097,-31.307 l 5.958,23.833 c 0.525,2.101 1.934,3.873 3.862,4.858 1.929,0.986 4.189,1.09 6.199,0.286 l 29.795,-11.918 v 17.672 c 0,3.037 1.832,5.775 4.64,6.933 40.95,16.895 73.188,50.006 88.976,91.195 -3.44,5.244 -5.432,11.574 -5.432,18.323 z m 63.092,41.919 V 171.83 c 0,-1.18 -0.064,-2.351 -0.192,-3.508 19.848,9.01 33.289,29.085 33.289,51.604 0,27.903 -20.541,51.746 -47.964,55.956 -0.277,-0.688 -0.55,-1.354 -0.825,-2.033 10.182,-17.959 15.692,-38.48 15.692,-59.188 z"
     inkscape:connector-curvature="0" /><g
     id="g3825">
</g><g
     id="g3827">
</g><g
     id="g3829">
</g><g
     id="g3831">
</g><g
     id="g3833">
</g><g
     id="g3835">
</g><g
     id="g3837">
</g><g
     id="g3839">
</g><g
     id="g3841">
</g><g
     id="g3843">
</g><g
     id="g3845">
</g><g
     id="g3847">
</g><g
     id="g3849">
</g><g
     id="g3851">
</g><g
     id="g3853">
</g></g></svg>